<?xml version="1.0" encoding="UTF-8"?>
<svg width="202px" height="291px" viewBox="0 0 202 291" version="1.1" xmlns="http://www.w3.org/2000/svg" xmlns:xlink="http://www.w3.org/1999/xlink">
    <!-- Generator: Sketch 64 (93537) - https://sketch.com -->
    <title>Portate-wom</title>
    <desc>Created with Sketch.</desc>
    <g id="Page-1" stroke="none" stroke-width="1" fill="none" fill-rule="evenodd">
        <g id="caja_proceso" transform="translate(-31.000000, -18.000000)">
            <g id="Portate-wom" transform="translate(32.000000, 18.000000)">
                <path d="M5.81,21 L5.81,16.49 L7.724,16.49 C9.32266667,16.49 10.6573333,16.0206667 11.728,15.082 C12.7986667,14.1433333 13.334,12.9406667 13.334,11.474 C13.334,9.978 12.806,8.77166667 11.75,7.855 C10.694,6.93833333 9.352,6.48 7.724,6.48 L7.724,6.48 L2.026,6.48 L2.026,21 L5.81,21 Z M7.746,13.19 L5.81,13.19 L5.81,9.78 L7.746,9.78 C8.274,9.78 8.69566667,9.934 9.011,10.242 C9.32633333,10.55 9.484,10.9606667 9.484,11.474 C9.484,11.9873333 9.32633333,12.4016667 9.011,12.717 C8.69566667,13.0323333 8.274,13.19 7.746,13.19 L7.746,13.19 Z M25.596,5.072 L28.83,1.64 L28.83,0.98 L24.276,0.98 L22.868,5.072 L25.596,5.072 Z M24.342,21.264 C26.4686667,21.2933333 28.3203333,20.5673333 29.897,19.086 C31.4736667,17.6046667 32.24,15.8226667 32.196,13.74 C32.24,11.672 31.4736667,9.89 29.897,8.394 C28.3203333,6.898 26.4686667,6.172 24.342,6.216 L24.0251175,6.215175 C22.0316058,6.246525 20.2929,6.9728 18.809,8.394 C17.247,9.89 16.488,11.672 16.532,13.74 L16.531395,14.050145 C16.5655317,16.000115 17.3210667,17.6787333 18.798,19.086 C20.3526667,20.5673333 22.2006667,21.2933333 24.342,21.264 Z M24.364,17.788 C23.1906667,17.788 22.2373333,17.4213333 21.504,16.688 C20.7706667,15.9253333 20.404,14.9426667 20.404,13.74 C20.404,12.5373333 20.7706667,11.562 21.504,10.814 C22.2373333,10.066 23.1906667,9.692 24.364,9.692 C25.4933333,9.692 26.4356667,10.0696667 27.191,10.825 C27.9463333,11.5803333 28.324,12.552 28.324,13.74 C28.324,14.9426667 27.95,15.918 27.202,16.666 C26.454,17.414 25.508,17.788 24.364,17.788 Z M40.036,21 L40.036,16.49 L41.598,16.49 L44.876,21 L49.1,21 L45.272,15.61 C46.7973333,14.6713333 47.56,13.2926667 47.56,11.474 C47.56,9.978 47.032,8.77166667 45.976,7.855 C44.92,6.93833333 43.578,6.48 41.95,6.48 L41.95,6.48 L36.252,6.48 L36.252,21 L40.036,21 Z M41.972,13.19 L40.036,13.19 L40.036,9.78 L41.972,9.78 C42.5,9.78 42.9216667,9.934 43.237,10.242 C43.5523333,10.55 43.71,10.9606667 43.71,11.474 C43.71,11.9873333 43.5523333,12.4016667 43.237,12.717 C42.9216667,13.0323333 42.5,13.19 41.972,13.19 L41.972,13.19 Z M58.854,21 L58.854,9.89 L63.21,9.89 L63.21,6.48 L50.714,6.48 L50.714,9.89 L55.07,9.89 L55.07,21 L58.854,21 Z M67.794,21 L68.322,19.79 L73.536,19.79 L74.064,21 L78.134,21 L71.534,6.216 L70.324,6.216 L63.724,21 L67.794,21 Z M72.194,16.754 L69.664,16.754 L70.94,13.388 L72.194,16.754 Z M86.788,21 L86.788,9.89 L91.144,9.89 L91.144,6.48 L78.648,6.48 L78.648,9.89 L83.004,9.89 L83.004,21 L86.788,21 Z M105.056,21 L105.056,17.59 L98.5,17.59 L98.5,15.06 L102.988,15.06 L102.988,11.892 L98.5,11.892 L98.5,9.89 L104.792,9.89 L104.792,6.48 L94.716,6.48 L94.716,21 L105.056,21 Z M118.932,21 L119.46,19.79 L124.674,19.79 L125.202,21 L129.272,21 L122.672,6.216 L121.462,6.216 L114.862,21 L118.932,21 Z M123.332,16.754 L120.802,16.754 L122.078,13.388 L123.332,16.754 Z M144.534,21.264 L148.252,13.674 L151.948,21.264 L153.158,21.264 L159.142,6.48 L154.918,6.48 L152.19,13.454 L148.846,6.216 L147.636,6.216 L144.292,13.454 L141.564,6.48 L137.34,6.48 L143.324,21.264 L144.534,21.264 Z M169.38,21.264 C171.506667,21.2933333 173.358333,20.5673333 174.935,19.086 C176.511667,17.6046667 177.278,15.8226667 177.234,13.74 C177.278,11.672 176.511667,9.89 174.935,8.394 C173.358333,6.898 171.506667,6.172 169.38,6.216 L169.063117,6.215175 C167.069606,6.246525 165.3309,6.9728 163.847,8.394 C162.285,9.89 161.526,11.672 161.57,13.74 L161.569395,14.050145 C161.603532,16.000115 162.359067,17.6787333 163.836,19.086 C165.390667,20.5673333 167.238667,21.2933333 169.38,21.264 Z M169.402,17.788 C168.228667,17.788 167.275333,17.4213333 166.542,16.688 C165.808667,15.9253333 165.442,14.9426667 165.442,13.74 C165.442,12.5373333 165.808667,11.562 166.542,10.814 C167.275333,10.066 168.228667,9.692 169.402,9.692 C170.531333,9.692 171.473667,10.0696667 172.229,10.825 C172.984333,11.5803333 173.362,12.552 173.362,13.74 C173.362,14.9426667 172.988,15.918 172.24,16.666 C171.492,17.414 170.546,17.788 169.402,17.788 Z M185.074,21 L185.074,14.928 L188.066,18.426 L189.276,18.426 L192.29,14.906 L192.29,21 L196.074,21 L196.074,6.216 L194.864,6.216 L188.682,13.762 L182.5,6.216 L181.29,6.216 L181.29,21 L185.074,21 Z" id="PÓRTATEAWOM" fill="#4F008C" fill-rule="nonzero"></path>
                <g id="PREPAGO" transform="translate(1.000000, 21.000000)">
                    <path d="M54.685,18 L54.685,12.874 L57.171,12.874 C58.6963333,12.874 59.9503333,12.434 60.933,11.554 C61.9156667,10.674 62.407,9.54466667 62.407,8.166 C62.407,6.77266667 61.9156667,5.64333333 60.933,4.778 C59.9503333,3.91266667 58.6963333,3.48 57.171,3.48 L57.171,3.48 L51.715,3.48 L51.715,18 L54.685,18 Z M57.171,10.278 L54.685,10.278 L54.685,6.098 L57.171,6.098 C57.831,6.098 58.3626667,6.28866667 58.766,6.67 C59.1693333,7.05133333 59.371,7.55 59.371,8.166 C59.371,8.79666667 59.1766667,9.30633333 58.788,9.695 C58.3993333,10.0836667 57.8603333,10.278 57.171,10.278 L57.171,10.278 Z M67.753,18 L67.753,12.874 L69.931,12.874 L73.693,18 L77.037,18 L72.923,12.302 C73.7296667,11.906 74.3566667,11.345 74.804,10.619 C75.2513333,9.893 75.475,9.07533333 75.475,8.166 C75.475,6.77266667 74.9836667,5.64333333 74.001,4.778 C73.0183333,3.91266667 71.7643333,3.48 70.239,3.48 L70.239,3.48 L64.783,3.48 L64.783,18 L67.753,18 Z M70.239,10.256 L67.753,10.256 L67.753,6.098 L70.239,6.098 C70.899,6.098 71.4306667,6.28866667 71.834,6.67 C72.2373333,7.05133333 72.439,7.55 72.439,8.166 C72.439,8.79666667 72.2446667,9.30266667 71.856,9.684 C71.4673333,10.0653333 70.9283333,10.256 70.239,10.256 L70.239,10.256 Z M88.895,18 L88.895,15.316 L81.833,15.316 L81.833,11.642 L86.827,11.642 L86.827,9.112 L81.833,9.112 L81.833,6.164 L88.631,6.164 L88.631,3.48 L78.863,3.48 L78.863,18 L88.895,18 Z M94.439,18 L94.439,12.874 L96.925,12.874 C98.4503333,12.874 99.7043333,12.434 100.687,11.554 C101.669667,10.674 102.161,9.54466667 102.161,8.166 C102.161,6.77266667 101.669667,5.64333333 100.687,4.778 C99.7043333,3.91266667 98.4503333,3.48 96.925,3.48 L96.925,3.48 L91.469,3.48 L91.469,18 L94.439,18 Z M96.925,10.278 L94.439,10.278 L94.439,6.098 L96.925,6.098 C97.585,6.098 98.1166667,6.28866667 98.52,6.67 C98.9233333,7.05133333 99.125,7.55 99.125,8.166 C99.125,8.79666667 98.9306667,9.30633333 98.542,9.695 C98.1533333,10.0836667 97.6143333,10.278 96.925,10.278 L96.925,10.278 Z M106.341,18 L107.155,16.108 L113.095,16.108 L113.909,18 L117.099,18 L110.631,3.216 L109.641,3.216 L103.151,18 L106.341,18 Z M112.061,13.666 L108.189,13.666 L110.125,8.76 L112.061,13.666 Z M126.009,18.264 C127.534333,18.264 128.898333,17.9046667 130.101,17.186 C131.318333,16.4673333 132.264333,15.514 132.939,14.326 L132.939,14.326 L132.939,10.036 L125.965,10.036 L125.965,12.61 L129.969,12.61 L129.969,13.798 C129.103667,15.0006667 127.827667,15.602 126.141,15.602 C124.703667,15.602 123.537667,15.1473333 122.643,14.238 C121.748333,13.3286667 121.301,12.1626667 121.301,10.74 C121.301,9.34666667 121.733667,8.20266667 122.599,7.308 C123.464333,6.41333333 124.586333,5.966 125.965,5.966 C127.637,5.966 128.986333,6.67733333 130.013,8.1 L130.013,8.1 L132.125,6.362 C130.643667,4.26466667 128.605,3.216 126.009,3.216 C123.853,3.18666667 122.008667,3.91266667 120.476,5.394 C118.943333,6.87533333 118.199,8.65733333 118.243,10.74 C118.213667,12.8226667 118.969,14.6083333 120.509,16.097 C122.049,17.5856667 123.882333,18.308 126.009,18.264 Z M142.705873,18.2645485 C144.665396,18.229446 146.378105,17.5032632 147.844,16.086 C149.391333,14.59 150.150333,12.808 150.121,10.74 C150.150333,8.672 149.391333,6.89 147.844,5.394 C146.296667,3.898 144.474333,3.172 142.377,3.216 L142.064517,3.215175 C140.098872,3.246525 138.388033,3.9728 136.932,5.394 C135.399333,6.89 134.647667,8.672 134.677,10.74 C134.647667,12.808 135.399333,14.59 136.932,16.086 C138.464667,17.582 140.279667,18.308 142.377,18.264 L142.705873,18.2645485 Z M142.399,15.514 C141.049667,15.514 139.935,15.0666667 139.055,14.172 C138.175,13.2773333 137.735,12.1333333 137.735,10.74 C137.735,9.34666667 138.175,8.20266667 139.055,7.308 C139.935,6.41333333 141.049667,5.966 142.399,5.966 C143.733667,5.966 144.844667,6.417 145.732,7.319 C146.619333,8.221 147.063,9.36133333 147.063,10.74 C147.063,12.1333333 146.619333,13.2773333 145.732,14.172 C144.844667,15.0666667 143.733667,15.514 142.399,15.514 Z" fill="#4F008C" fill-rule="nonzero"></path>
                    <line x1="158.5" y1="11.5" x2="198.5" y2="11.5" id="Line" stroke="#DB167A" stroke-width="2" stroke-linecap="square"></line>
                    <line x1="0.5" y1="11.5" x2="40.5" y2="11.5" id="Line" stroke="#DB167A" stroke-width="2" stroke-linecap="square"></line>
                </g>
                <path d="M24.615,57 L24.615,48.525 L27.96,48.525 L27.96,47.1 L19.695,47.1 L19.695,48.525 L23.025,48.525 L23.025,57 L24.615,57 Z M36.135,57 L36.135,55.575 L31.035,55.575 L31.035,52.44 L34.74,52.44 L34.74,51.06 L31.035,51.06 L31.035,48.525 L35.955,48.525 L35.955,47.1 L29.445,47.1 L29.445,57 L36.135,57 Z M43.77,57 L43.77,53.175 L45.585,53.175 L48.405,57 L50.22,57 L47.25,52.92 C47.85,52.69 48.3175,52.33 48.6525,51.84 C48.9875,51.35 49.155,50.78 49.155,50.13 C49.155,49.24 48.845,48.5125 48.225,47.9475 C47.605,47.3825 46.795,47.1 45.795,47.1 L45.795,47.1 L42.18,47.1 L42.18,57 L43.77,57 Z M45.765,51.765 L43.77,51.765 L43.77,48.51 L45.765,48.51 C46.305,48.51 46.7325,48.66 47.0475,48.96 C47.3625,49.26 47.52,49.655 47.52,50.145 C47.52,50.635 47.3625,51.0275 47.0475,51.3225 C46.7325,51.6175 46.305,51.765 45.765,51.765 L45.765,51.765 Z M58.335,57 L58.335,55.575 L53.235,55.575 L53.235,52.44 L56.94,52.44 L56.94,51.06 L53.235,51.06 L53.235,48.525 L58.155,48.525 L58.155,47.1 L51.645,47.1 L51.645,57 L58.335,57 Z M64.8,57.165 C65.79,57.165 66.695,56.93 67.515,56.46 C68.335,55.99 68.97,55.355 69.42,54.555 L69.42,54.555 L69.42,51.765 L64.785,51.765 L64.785,53.175 L67.83,53.175 L67.83,54.24 C67.18,55.24 66.195,55.74 64.875,55.74 C63.815,55.74 62.9425,55.3875 62.2575,54.6825 C61.5725,53.9775 61.23,53.095 61.23,52.035 C61.23,50.985 61.5625,50.115 62.2275,49.425 C62.8925,48.735 63.745,48.39 64.785,48.39 C66.015,48.39 67,48.91 67.74,49.95 L67.74,49.95 L68.895,49.005 C67.905,47.625 66.54,46.935 64.8,46.935 C63.36,46.915 62.1225,47.41 61.0875,48.42 C60.0525,49.43 59.55,50.64 59.58,52.05 C59.56,53.47 60.0625,54.6825 61.0875,55.6875 C62.1125,56.6925 63.35,57.185 64.8,57.165 Z M72.15,57 L72.855,55.35 L77.31,55.35 L78.015,57 L79.725,57 L75.36,46.935 L74.82,46.935 L70.455,57 L72.15,57 Z M76.74,53.985 L73.425,53.985 L75.09,49.89 L76.74,53.985 Z M87.42,57 L87.42,55.575 L82.89,55.575 L82.89,47.1 L81.3,47.1 L81.3,57 L87.42,57 Z M89.805,57 L90.51,55.35 L94.965,55.35 L95.67,57 L97.38,57 L93.015,46.935 L92.475,46.935 L88.11,57 L89.805,57 Z M94.395,53.985 L91.08,53.985 L92.745,49.89 L94.395,53.985 Z M100.545,57 L100.545,50.775 L103.395,54.51 L103.935,54.51 L106.77,50.79 L106.77,57 L108.36,57 L108.36,46.935 L107.82,46.935 L103.665,52.47 L99.51,46.935 L98.955,46.935 L98.955,57 L100.545,57 Z M115.44,57.165 C116.85,57.185 118.0775,56.69 119.1225,55.68 C120.1675,54.67 120.675,53.46 120.645,52.05 C120.675,50.64 120.1675,49.43 119.1225,48.42 C118.0775,47.41 116.85,46.915 115.44,46.935 C114.02,46.915 112.795,47.41 111.765,48.42 C110.735,49.43 110.23,50.64 110.25,52.05 C110.22,53.46 110.7225,54.67 111.7575,55.68 C112.7925,56.69 114.02,57.185 115.44,57.165 Z M115.455,55.71 C114.425,55.71 113.575,55.3625 112.905,54.6675 C112.235,53.9725 111.9,53.095 111.9,52.035 C111.9,50.985 112.2375,50.115 112.9125,49.425 C113.5875,48.735 114.435,48.39 115.455,48.39 C116.465,48.39 117.31,48.7375 117.99,49.4325 C118.67,50.1275 119.01,50.995 119.01,52.035 C119.01,53.085 118.67,53.96 117.99,54.66 C117.31,55.36 116.465,55.71 115.455,55.71 Z M125.58,57.165 C126.54,57.165 127.3325,56.9 127.9575,56.37 C128.5825,55.84 128.895,55.15 128.895,54.3 C128.895,53.66 128.7075,53.125 128.3325,52.695 C127.9575,52.265 127.355,51.86 126.525,51.48 L126.525,51.48 L125.415,50.97 C125.385,50.95 125.34,50.925 125.28,50.895 C124.95,50.725 124.755,50.625 124.695,50.595 C124.635,50.565 124.53,50.4875 124.38,50.3625 C124.23,50.2375 124.1375,50.1175 124.1025,50.0025 C124.0675,49.8875 124.045,49.74 124.035,49.56 C124.035,49.18 124.175,48.885 124.455,48.675 C124.735,48.465 125.095,48.36 125.535,48.36 C126.385,48.36 127.08,48.76 127.62,49.56 L127.62,49.56 L128.73,48.705 C128.42,48.165 127.9825,47.735 127.4175,47.415 C126.8525,47.095 126.225,46.935 125.535,46.935 C124.655,46.935 123.915,47.185 123.315,47.685 C122.715,48.185 122.415,48.83 122.415,49.62 C122.415,50.25 122.6075,50.7775 122.9925,51.2025 C123.3775,51.6275 123.955,52.015 124.725,52.365 L124.725,52.365 L125.82,52.875 C126.37,53.135 126.75,53.3625 126.96,53.5575 C127.17,53.7525 127.275,54.02 127.275,54.36 C127.275,54.78 127.1175,55.115 126.8025,55.365 C126.4875,55.615 126.075,55.74 125.565,55.74 C124.555,55.74 123.69,55.215 122.97,54.165 L122.97,54.165 L121.845,55.02 C122.235,55.69 122.755,56.215 123.405,56.595 C124.055,56.975 124.78,57.165 125.58,57.165 Z M136.725,57 L136.725,52.47 L141.705,52.47 L141.705,57 L143.295,57 L143.295,47.1 L141.705,47.1 L141.705,51.045 L136.725,51.045 L136.725,47.1 L135.135,47.1 L135.135,57 L136.725,57 Z M146.58,57 L147.285,55.35 L151.74,55.35 L152.445,57 L154.155,57 L149.79,46.935 L149.25,46.935 L144.885,57 L146.58,57 Z M151.17,53.985 L147.855,53.985 L149.52,49.89 L151.17,53.985 Z M158.76,57.165 C159.72,57.165 160.5125,56.9 161.1375,56.37 C161.7625,55.84 162.075,55.15 162.075,54.3 C162.075,53.66 161.8875,53.125 161.5125,52.695 C161.1375,52.265 160.535,51.86 159.705,51.48 L159.705,51.48 L158.595,50.97 C158.565,50.95 158.52,50.925 158.46,50.895 C158.13,50.725 157.935,50.625 157.875,50.595 C157.815,50.565 157.71,50.4875 157.56,50.3625 C157.41,50.2375 157.3175,50.1175 157.2825,50.0025 C157.2475,49.8875 157.225,49.74 157.215,49.56 C157.215,49.18 157.355,48.885 157.635,48.675 C157.915,48.465 158.275,48.36 158.715,48.36 C159.565,48.36 160.26,48.76 160.8,49.56 L160.8,49.56 L161.91,48.705 C161.6,48.165 161.1625,47.735 160.5975,47.415 C160.0325,47.095 159.405,46.935 158.715,46.935 C157.835,46.935 157.095,47.185 156.495,47.685 C155.895,48.185 155.595,48.83 155.595,49.62 C155.595,50.25 155.7875,50.7775 156.1725,51.2025 C156.5575,51.6275 157.135,52.015 157.905,52.365 L157.905,52.365 L159,52.875 C159.55,53.135 159.93,53.3625 160.14,53.5575 C160.35,53.7525 160.455,54.02 160.455,54.36 C160.455,54.78 160.2975,55.115 159.9825,55.365 C159.6675,55.615 159.255,55.74 158.745,55.74 C157.735,55.74 156.87,55.215 156.15,54.165 L156.15,54.165 L155.025,55.02 C155.415,55.69 155.935,56.215 156.585,56.595 C157.235,56.975 157.96,57.165 158.76,57.165 Z M168.03,57 L168.03,48.525 L171.375,48.525 L171.375,47.1 L163.11,47.1 L163.11,48.525 L166.44,48.525 L166.44,57 L168.03,57 Z M173.64,57 L174.345,55.35 L178.8,55.35 L179.505,57 L181.215,57 L176.85,46.935 L176.31,46.935 L171.945,57 L173.64,57 Z M178.23,53.985 L174.915,53.985 L176.58,49.89 L178.23,53.985 Z" id="TEREGALAMOSHASTA" fill="#4F008C" fill-rule="nonzero"></path>
                <g id="15-gigas" transform="translate(0.000000, 68.000000)">
                    <rect id="Rectangle" stroke="#E12479" fill="#FFFFFF" x="-0.5" y="-0.5" width="201" height="111" rx="5"></rect>
                    <g id="Group" transform="translate(18.000000, 57.000000)">
                        <path d="M28.4890909,18.24 C29.9424242,18.24 31.1657576,17.7966667 32.1590909,16.91 C33.1524242,16.0233333 33.6490909,14.92 33.6490909,13.6 C33.6490909,12.6666667 33.3890909,11.8466667 32.8690909,11.14 C32.3490909,10.4333333 31.6690909,9.92 30.8290909,9.6 L30.8290909,9.6 L33.4490909,5.7 L33.4490909,4.8 L24.5490909,4.8 L24.5490909,7.9 L28.3090909,7.9 L25.9690909,11.38 L25.9690909,12.26 L27.8490909,12.26 C29.3690909,12.26 30.1290909,12.7133333 30.1290909,13.62 C30.1290909,14.0733333 29.9657576,14.43 29.6390909,14.69 C29.3124242,14.95 28.8824242,15.08 28.3490909,15.08 C27.8424242,15.08 27.3990909,14.95 27.0190909,14.69 C26.6390909,14.43 26.2490909,14 25.8490909,13.4 L25.8490909,13.4 L23.4690909,15.08 C23.9224242,16.0666667 24.5890909,16.84 25.4690909,17.4 C26.3490909,17.96 27.3557576,18.24 28.4890909,18.24 Z M39.5109091,18.24 C41.2442424,18.24 42.5909091,17.5933333 43.5509091,16.3 C44.5109091,15.0066667 44.9909091,13.34 44.9909091,11.3 C44.9909091,9.28666667 44.5142424,7.66 43.5609091,6.42 C42.6075758,5.18 41.2575758,4.56 39.5109091,4.56 C37.7642424,4.56 36.4142424,5.18 35.4609091,6.42 C34.5075758,7.66 34.0309091,9.28666667 34.0309091,11.3 C34.0309091,13.34 34.5109091,15.0066667 35.4709091,16.3 C36.4309091,17.5933333 37.7775758,18.24 39.5109091,18.24 Z M39.5109091,15.08 C38.2042424,15.08 37.5509091,13.8266667 37.5509091,11.32 C37.5509091,10.08 37.7109091,9.17 38.0309091,8.59 C38.3509091,8.01 38.8442424,7.72 39.5109091,7.72 C40.1775758,7.72 40.6709091,8.01 40.9909091,8.59 C41.3109091,9.17 41.4709091,10.08 41.4709091,11.32 C41.4709091,13.8266667 40.8175758,15.08 39.5109091,15.08 Z M51.0527273,18.24 C52.7860606,18.24 54.1327273,17.5933333 55.0927273,16.3 C56.0527273,15.0066667 56.5327273,13.34 56.5327273,11.3 C56.5327273,9.28666667 56.0560606,7.66 55.1027273,6.42 C54.1493939,5.18 52.7993939,4.56 51.0527273,4.56 C49.3060606,4.56 47.9560606,5.18 47.0027273,6.42 C46.0493939,7.66 45.5727273,9.28666667 45.5727273,11.3 C45.5727273,13.34 46.0527273,15.0066667 47.0127273,16.3 C47.9727273,17.5933333 49.3193939,18.24 51.0527273,18.24 Z M51.0527273,15.08 C49.7460606,15.08 49.0927273,13.8266667 49.0927273,11.32 C49.0927273,10.08 49.2527273,9.17 49.5727273,8.59 C49.8927273,8.01 50.3860606,7.72 51.0527273,7.72 C51.7193939,7.72 52.2127273,8.01 52.5327273,8.59 C52.8527273,9.17 53.0127273,10.08 53.0127273,11.32 C53.0127273,13.8266667 52.3593939,15.08 51.0527273,15.08 Z M67.4745455,18 L67.4745455,12.48 L70.1945455,15.66 L71.2945455,15.66 L74.0345455,12.46 L74.0345455,18 L77.4745455,18 L77.4745455,4.56 L76.3745455,4.56 L70.7545455,11.42 L65.1345455,4.56 L64.0345455,4.56 L64.0345455,18 L67.4745455,18 Z M85.3181818,18 L85.3181818,4.8 L81.8781818,4.8 L81.8781818,18 L85.3181818,18 Z M101.421818,18.24 L101.421818,4.8 L97.9818182,4.8 L97.9818182,11.4 L90.8218182,4.56 L89.7218182,4.56 L89.7218182,18 L93.1618182,18 L93.1618182,11.3 L100.321818,18.24 L101.421818,18.24 Z M111.585455,18.24 C113.265455,18.24 114.658788,17.6966667 115.765455,16.61 C116.872121,15.5233333 117.425455,14.12 117.425455,12.4 L117.425455,12.4 L117.425455,4.8 L113.985455,4.8 L113.985455,12.66 C113.985455,13.4066667 113.765455,13.9966667 113.325455,14.43 C112.885455,14.8633333 112.305455,15.08 111.585455,15.08 C110.865455,15.08 110.285455,14.8633333 109.845455,14.43 C109.405455,13.9966667 109.185455,13.4066667 109.185455,12.66 L109.185455,12.66 L109.185455,4.8 L105.745455,4.8 L105.745455,12.4 C105.745455,14.1466667 106.292121,15.5566667 107.385455,16.63 C108.478788,17.7033333 109.878788,18.24 111.585455,18.24 Z M128.029091,18 L128.029091,7.9 L131.989091,7.9 L131.989091,4.8 L120.629091,4.8 L120.629091,7.9 L124.589091,7.9 L124.589091,18 L128.029091,18 Z M141.492727,18.24 C143.426061,18.2666667 145.109394,17.6066667 146.542727,16.26 C147.976061,14.9133333 148.672727,13.2933333 148.632727,11.4 L148.632921,11.1053186 C148.597353,9.35019391 147.900622,7.82842105 146.542727,6.54 C145.109394,5.18 143.426061,4.52 141.492727,4.56 C139.559394,4.52 137.882727,5.18 136.462727,6.54 C135.042727,7.9 134.352727,9.52 134.392727,11.4 L134.39245,11.6966759 C134.427021,13.4631025 135.11378,14.9842105 136.452727,16.26 C137.866061,17.6066667 139.546061,18.2666667 141.492727,18.24 Z M141.512727,15.08 C140.446061,15.08 139.579394,14.7466667 138.912727,14.08 C138.246061,13.3866667 137.912727,12.4933333 137.912727,11.4 C137.912727,10.3066667 138.246061,9.42 138.912727,8.74 C139.579394,8.06 140.446061,7.72 141.512727,7.72 C142.539394,7.72 143.396061,8.06333333 144.082727,8.75 C144.769394,9.43666667 145.112727,10.32 145.112727,11.4 C145.112727,12.4933333 144.772727,13.38 144.092727,14.06 C143.412727,14.74 142.552727,15.08 141.512727,15.08 Z M156.756364,18.24 C158.156364,18.24 159.31303,17.8666667 160.226364,17.12 C161.139697,16.3733333 161.596364,15.3733333 161.596364,14.12 C161.596364,13.2 161.326364,12.43 160.786364,11.81 C160.246364,11.19 159.389697,10.6333333 158.216364,10.14 L158.216364,10.14 L156.696364,9.5 C156.269697,9.32666667 155.97303,9.16333333 155.806364,9.01 C155.639697,8.85666667 155.556364,8.66 155.556364,8.42 C155.556364,7.86 155.949697,7.58 156.736364,7.58 C157.189697,7.58 157.58303,7.69 157.916364,7.91 C158.249697,8.13 158.58303,8.48666667 158.916364,8.98 L158.916364,8.98 L161.216364,7.22 C160.336364,5.44666667 158.829697,4.56 156.696364,4.56 C155.336364,4.56 154.226364,4.92 153.366364,5.64 C152.506364,6.36 152.076364,7.3 152.076364,8.46 C152.076364,10.1266667 153.189697,11.4533333 155.416364,12.44 L155.416364,12.44 L156.776364,13.04 C157.32303,13.28 157.68303,13.4733333 157.856364,13.62 C158.029697,13.7666667 158.116364,13.98 158.116364,14.26 C158.116364,14.9 157.66303,15.22 156.756364,15.22 C156.129697,15.22 155.589697,15.0766667 155.136364,14.79 C154.68303,14.5033333 154.24303,14.08 153.816364,13.52 L153.816364,13.52 L151.496364,15.28 C151.976364,16.2 152.679697,16.9233333 153.606364,17.45 C154.53303,17.9766667 155.58303,18.24 156.756364,18.24 Z" id="300MINUTOS" fill="#4F008C" fill-rule="nonzero"></path>
                        <polygon id="Fill-22" fill="#DB167A" points="9.58605019 13.2966989 9.58605019 19 5.47816637 19 5.47816637 13.2966989 0 13.2966989 0 9.64066021 5.47816637 9.64066021 5.47816637 4 9.58605019 4 9.58605019 9.64066021 15 9.64066021 15 13.2966989"></polygon>
                    </g>
                    <g id="Group-2" transform="translate(10.000000, 10.000000)" fill-rule="nonzero">
                        <path d="M20.45,42 L20.45,2.4 L17.15,2.4 L0.95,7.74 L3.41,16.86 L10.13,14.64 L10.13,42 L20.45,42 Z M35.81,42.72 C40.29,42.72 44.05,41.39 47.09,38.73 C50.13,36.07 51.65,32.72 51.65,28.68 C51.73,24.96 50.4,21.88 47.66,19.44 C44.92,17 41.83,15.82 38.39,15.9 C37.27,15.9 36.01,16.04 34.61,16.32 L34.61,16.32 L34.61,11.7 L49.37,11.7 L49.37,2.4 L24.83,2.4 L24.83,24.78 L34.25,24.78 C38.81,24.78 41.09,26.12 41.09,28.8 C41.09,30.2 40.57,31.29 39.53,32.07 C38.49,32.85 37.11,33.24 35.39,33.24 C33.75,33.24 32.34,32.85 31.16,32.07 C29.98,31.29 28.79,30 27.59,28.2 L27.59,28.2 L20.45,33.24 C21.81,36.2 23.84,38.52 26.54,40.2 C29.24,41.88 32.33,42.72 35.81,42.72 Z" id="15" fill="#4F008C"></path>
                        <path d="M75.3910107,42.4806421 L75.8,42.48 C78.6266667,42.48 81.1866667,41.8133333 83.48,40.48 C85.7733333,39.12 87.5333333,37.3466667 88.76,35.16 L88.76,35.16 L88.76,26.84 L75.72,26.84 L75.72,32.76 L81.88,32.76 L81.88,34 C80.52,35.5733333 78.5866667,36.36 76.08,36.36 C73.76,36.36 71.9133333,35.6666667 70.54,34.28 C69.1666667,32.8933333 68.48,31.0666667 68.48,28.8 C68.48,26.56 69.1266667,24.7733333 70.42,23.44 C71.7133333,22.1066667 73.4666667,21.44 75.68,21.44 C78.4,21.44 80.6266667,22.6533333 82.36,25.08 L82.36,25.08 L87.16,21 C84.52,17.08 80.7333333,15.12 75.8,15.12 C71.8266667,15.0666667 68.4266667,16.3866667 65.6,19.08 C62.7733333,21.7733333 61.3866667,25.0133333 61.44,28.8 L61.4396195,29.1924614 C61.4840111,32.8365676 62.8708046,35.9524138 65.6,38.54 C68.4266667,41.22 71.8266667,42.5333333 75.8,42.48 L75.3910107,42.4806421 Z M99.56,42 L99.56,15.6 L92.68,15.6 L92.68,42 L99.56,42 Z M117.431011,42.4806421 L117.84,42.48 C120.666667,42.48 123.226667,41.8133333 125.52,40.48 C127.813333,39.12 129.573333,37.3466667 130.8,35.16 L130.8,35.16 L130.8,26.84 L117.76,26.84 L117.76,32.76 L123.92,32.76 L123.92,34 C122.56,35.5733333 120.626667,36.36 118.12,36.36 C115.8,36.36 113.953333,35.6666667 112.58,34.28 C111.206667,32.8933333 110.52,31.0666667 110.52,28.8 C110.52,26.56 111.166667,24.7733333 112.46,23.44 C113.753333,22.1066667 115.506667,21.44 117.72,21.44 C120.44,21.44 122.666667,22.6533333 124.4,25.08 L124.4,25.08 L129.2,21 C126.56,17.08 122.773333,15.12 117.84,15.12 C113.866667,15.0666667 110.466667,16.3866667 107.64,19.08 C104.813333,21.7733333 103.426667,25.0133333 103.48,28.8 C103.426667,32.6133333 104.813333,35.86 107.64,38.54 C110.466667,41.22 113.866667,42.5333333 117.84,42.48 L117.431011,42.4806421 Z M139.56,42 L140.52,39.8 L150,39.8 L150.96,42 L158.36,42 L146.36,15.12 L144.16,15.12 L132.16,42 L139.56,42 Z M147.56,34.28 L142.96,34.28 L145.28,28.16 L147.56,34.28 Z M169.88,42.48 C172.68,42.48 174.993333,41.7333333 176.82,40.24 C178.646667,38.7466667 179.56,36.7466667 179.56,34.24 C179.56,32.4 179.02,30.86 177.94,29.62 C176.86,28.38 175.146667,27.2666667 172.8,26.28 L172.8,26.28 L169.76,25 C168.906667,24.6533333 168.313333,24.3266667 167.98,24.02 C167.646667,23.7133333 167.48,23.32 167.48,22.84 C167.48,21.72 168.266667,21.16 169.84,21.16 C170.746667,21.16 171.533333,21.38 172.2,21.82 C172.866667,22.26 173.533333,22.9733333 174.2,23.96 L174.2,23.96 L178.8,20.44 C177.04,16.8933333 174.026667,15.12 169.76,15.12 C167.04,15.12 164.82,15.84 163.1,17.28 C161.38,18.72 160.52,20.6 160.52,22.92 C160.52,26.2533333 162.746667,28.9066667 167.2,30.88 L167.2,30.88 L169.92,32.08 C171.013333,32.56 171.733333,32.9466667 172.08,33.24 C172.426667,33.5333333 172.6,33.96 172.6,34.52 C172.6,35.8 171.693333,36.44 169.88,36.44 C168.626667,36.44 167.546667,36.1533333 166.64,35.58 C165.733333,35.0066667 164.853333,34.16 164,33.04 L164,33.04 L159.36,36.56 C160.32,38.4 161.726667,39.8466667 163.58,40.9 C165.433333,41.9533333 167.533333,42.48 169.88,42.48 Z" id="GIGAS" fill="#DB167A"></path>
                    </g>
                    <path d="M48.5385,99 L48.5385,96.055 L42.8765,96.055 L42.8765,93.87 L46.7525,93.87 L46.7525,91.134 L42.8765,91.134 L42.8765,89.405 L48.3105,89.405 L48.3105,86.46 L39.6085,86.46 L39.6085,99 L48.5385,99 Z M63.6865,99.228 L63.6865,86.46 L60.4185,86.46 L60.4185,92.73 L53.6165,86.232 L52.5715,86.232 L52.5715,99 L55.8395,99 L55.8395,92.635 L62.6415,99.228 L63.6865,99.228 Z M79.1815,99.228 C80.5621667,99.228 81.7243333,98.8068333 82.668,97.9645 C83.6116667,97.1221667 84.0835,96.074 84.0835,94.82 C84.0835,93.9333333 83.8365,93.1543333 83.3425,92.483 C82.8485,91.8116667 82.2025,91.324 81.4045,91.02 L81.4045,91.02 L83.8935,87.315 L83.8935,86.46 L75.4385,86.46 L75.4385,89.405 L79.0105,89.405 L76.7875,92.711 L76.7875,93.547 L78.5735,93.547 C80.0175,93.547 80.7395,93.9776667 80.7395,94.839 C80.7395,95.2696667 80.5843333,95.6085 80.274,95.8555 C79.9636667,96.1025 79.5551667,96.226 79.0485,96.226 C78.5671667,96.226 78.146,96.1025 77.785,95.8555 C77.424,95.6085 77.0535,95.2 76.6735,94.63 L76.6735,94.63 L74.4125,96.226 C74.8431667,97.1633333 75.4765,97.898 76.3125,98.43 C77.1485,98.962 78.1048333,99.228 79.1815,99.228 Z M98.6855,99 L98.6855,93.756 L101.2695,96.777 L102.3145,96.777 L104.9175,93.737 L104.9175,99 L108.1855,99 L108.1855,86.232 L107.1405,86.232 L101.8015,92.749 L96.4625,86.232 L95.4175,86.232 L95.4175,99 L98.6855,99 Z M121.6235,99 L121.6235,96.055 L115.9615,96.055 L115.9615,93.87 L119.8375,93.87 L119.8375,91.134 L115.9615,91.134 L115.9615,89.405 L121.3955,89.405 L121.3955,86.46 L112.6935,86.46 L112.6935,99 L121.6235,99 Z M129.8365,99.228 C131.1665,99.228 132.265333,98.8733333 133.133,98.164 C134.000667,97.4546667 134.4345,96.5046667 134.4345,95.314 C134.4345,94.44 134.178,93.7085 133.665,93.1195 C133.152,92.5305 132.338167,92.0016667 131.2235,91.533 L131.2235,91.533 L129.7795,90.925 C129.374167,90.7603333 129.092333,90.6051667 128.934,90.4595 C128.775667,90.3138333 128.6965,90.127 128.6965,89.899 C128.6965,89.367 129.070167,89.101 129.8175,89.101 C130.248167,89.101 130.621833,89.2055 130.9385,89.4145 C131.255167,89.6235 131.571833,89.9623333 131.8885,90.431 L131.8885,90.431 L134.0735,88.759 C133.2375,87.0743333 131.806167,86.232 129.7795,86.232 C128.4875,86.232 127.433,86.574 126.616,87.258 C125.799,87.942 125.3905,88.835 125.3905,89.937 C125.3905,91.5203333 126.448167,92.7806667 128.5635,93.718 L128.5635,93.718 L129.8555,94.288 C130.374833,94.516 130.716833,94.6996667 130.8815,94.839 C131.046167,94.9783333 131.1285,95.181 131.1285,95.447 C131.1285,96.055 130.697833,96.359 129.8365,96.359 C129.241167,96.359 128.728167,96.2228333 128.2975,95.9505 C127.866833,95.6781667 127.448833,95.276 127.0435,94.744 L127.0435,94.744 L124.8395,96.416 C125.2955,97.29 125.963667,97.9771667 126.844,98.4775 C127.724333,98.9778333 128.721833,99.228 129.8365,99.228 Z M147.2265,99 L147.2265,96.055 L141.5645,96.055 L141.5645,93.87 L145.4405,93.87 L145.4405,91.134 L141.5645,91.134 L141.5645,89.405 L146.9985,89.405 L146.9985,86.46 L138.2965,86.46 L138.2965,99 L147.2265,99 Z M155.4395,99.228 C156.7695,99.228 157.868333,98.8733333 158.736,98.164 C159.603667,97.4546667 160.0375,96.5046667 160.0375,95.314 C160.0375,94.44 159.781,93.7085 159.268,93.1195 C158.755,92.5305 157.941167,92.0016667 156.8265,91.533 L156.8265,91.533 L155.3825,90.925 C154.977167,90.7603333 154.695333,90.6051667 154.537,90.4595 C154.378667,90.3138333 154.2995,90.127 154.2995,89.899 C154.2995,89.367 154.673167,89.101 155.4205,89.101 C155.851167,89.101 156.224833,89.2055 156.5415,89.4145 C156.858167,89.6235 157.174833,89.9623333 157.4915,90.431 L157.4915,90.431 L159.6765,88.759 C158.8405,87.0743333 157.409167,86.232 155.3825,86.232 C154.0905,86.232 153.036,86.574 152.219,87.258 C151.402,87.942 150.9935,88.835 150.9935,89.937 C150.9935,91.5203333 152.051167,92.7806667 154.1665,93.718 L154.1665,93.718 L155.4585,94.288 C155.977833,94.516 156.319833,94.6996667 156.4845,94.839 C156.649167,94.9783333 156.7315,95.181 156.7315,95.447 C156.7315,96.055 156.300833,96.359 155.4395,96.359 C154.844167,96.359 154.331167,96.2228333 153.9005,95.9505 C153.469833,95.6781667 153.051833,95.276 152.6465,94.744 L152.6465,94.744 L150.4425,96.416 C150.8985,97.29 151.566667,97.9771667 152.447,98.4775 C153.327333,98.9778333 154.324833,99.228 155.4395,99.228 Z" id="EN3MESES" fill="#DB167A" fill-rule="nonzero"></path>
                </g>
                <path d="M2.7545,192 L2.7545,189.195 L4.0855,189.195 L6.1535,192 L7.4845,192 L5.3065,189.008 C5.7465,188.839333 6.08933333,188.575333 6.335,188.216 C6.58066667,187.856667 6.7035,187.438667 6.7035,186.962 C6.7035,186.309333 6.47616667,185.775833 6.0215,185.3615 C5.56683333,184.947167 4.97283333,184.74 4.2395,184.74 L4.2395,184.74 L1.5885,184.74 L1.5885,192 L2.7545,192 Z M4.2175,188.161 L2.7545,188.161 L2.7545,185.774 L4.2175,185.774 C4.6135,185.774 4.927,185.884 5.158,186.104 C5.389,186.324 5.5045,186.613667 5.5045,186.973 C5.5045,187.332333 5.389,187.620167 5.158,187.8365 C4.927,188.052833 4.6135,188.161 4.2175,188.161 L4.2175,188.161 Z M13.1355,192 L13.1355,190.955 L9.3955,190.955 L9.3955,188.656 L12.1125,188.656 L12.1125,187.644 L9.3955,187.644 L9.3955,185.785 L13.0035,185.785 L13.0035,184.74 L8.2295,184.74 L8.2295,192 L13.1355,192 Z M14.7605,192 L15.2775,190.79 L18.5445,190.79 L19.0615,192 L20.3155,192 L17.1145,184.619 L16.7185,184.619 L13.5175,192 L14.7605,192 Z M18.1265,189.789 L15.6955,189.789 L16.9165,186.786 L18.1265,189.789 Z M25.6585,192 L25.6585,190.955 L22.3365,190.955 L22.3365,184.74 L21.1705,184.74 L21.1705,192 L25.6585,192 Z M27.7015,192 L27.7015,184.74 L26.5355,184.74 L26.5355,192 L27.7015,192 Z M34.4525,192 L34.4525,190.955 L30.4045,190.955 L34.4415,185.059 L34.4415,184.74 L29.0735,184.74 L29.0735,185.785 L32.6265,185.785 L28.6005,191.681 L28.6005,192 L34.4525,192 Z M35.9675,192 L36.4845,190.79 L39.7515,190.79 L40.2685,192 L41.5225,192 L38.3215,184.619 L37.9255,184.619 L34.7245,192 L35.9675,192 Z M39.3335,189.789 L36.9025,189.789 L38.1235,186.786 L39.3335,189.789 Z M45.7735,192 L45.7735,189.195 L47.1045,189.195 L49.1725,192 L50.5035,192 L48.3255,189.008 C48.7655,188.839333 49.1083333,188.575333 49.354,188.216 C49.5996667,187.856667 49.7225,187.438667 49.7225,186.962 C49.7225,186.309333 49.4951667,185.775833 49.0405,185.3615 C48.5858333,184.947167 47.9918333,184.74 47.2585,184.74 L47.2585,184.74 L44.6075,184.74 L44.6075,192 L45.7735,192 Z M47.2365,188.161 L45.7735,188.161 L45.7735,185.774 L47.2365,185.774 C47.6325,185.774 47.946,185.884 48.177,186.104 C48.408,186.324 48.5235,186.613667 48.5235,186.973 C48.5235,187.332333 48.408,187.620167 48.177,187.8365 C47.946,188.052833 47.6325,188.161 47.2365,188.161 L47.2365,188.161 Z M56.1545,192 L56.1545,190.955 L52.4145,190.955 L52.4145,188.656 L55.1315,188.656 L55.1315,187.644 L52.4145,187.644 L52.4145,185.785 L56.0225,185.785 L56.0225,184.74 L51.2485,184.74 L51.2485,192 L56.1545,192 Z M60.4195,192.121 C61.0868333,192.121 61.6936667,191.9725 62.24,191.6755 C62.7863333,191.3785 63.2171667,190.969667 63.5325,190.449 L63.5325,190.449 L62.6525,189.8 C62.1171667,190.636 61.3765,191.054 60.4305,191.054 C59.6825,191.054 59.0591667,190.799167 58.5605,190.2895 C58.0618333,189.779833 57.8125,189.14 57.8125,188.37 C57.8125,187.6 58.0618333,186.960167 58.5605,186.4505 C59.0591667,185.940833 59.6825,185.686 60.4305,185.686 C61.3765,185.686 62.1171667,186.104 62.6525,186.94 L62.6525,186.94 L63.5325,186.291 C63.2171667,185.777667 62.7845,185.370667 62.2345,185.07 C61.6845,184.769333 61.0795,184.619 60.4195,184.619 C59.3781667,184.604333 58.4761667,184.967333 57.7135,185.708 C56.9508333,186.448667 56.5805,187.336 56.6025,188.37 C56.5805,189.404 56.9508333,190.291333 57.7135,191.032 C58.4761667,191.772667 59.3781667,192.135667 60.4195,192.121 Z M65.0915,192 L65.6085,190.79 L68.8755,190.79 L69.3925,192 L70.6465,192 L67.4455,184.619 L67.0495,184.619 L63.8485,192 L65.0915,192 Z M68.4575,189.789 L66.0265,189.789 L67.2475,186.786 L68.4575,189.789 Z M72.6675,192 L72.6675,189.195 L73.9985,189.195 L76.0665,192 L77.3975,192 L75.2195,189.008 C75.6595,188.839333 76.0023333,188.575333 76.248,188.216 C76.4936667,187.856667 76.6165,187.438667 76.6165,186.962 C76.6165,186.309333 76.3891667,185.775833 75.9345,185.3615 C75.4798333,184.947167 74.8858333,184.74 74.1525,184.74 L74.1525,184.74 L71.5015,184.74 L71.5015,192 L72.6675,192 Z M74.1305,188.161 L72.6675,188.161 L72.6675,185.774 L74.1305,185.774 C74.5265,185.774 74.84,185.884 75.071,186.104 C75.302,186.324 75.4175,186.613667 75.4175,186.973 C75.4175,187.332333 75.302,187.620167 75.071,187.8365 C74.84,188.052833 74.5265,188.161 74.1305,188.161 L74.1305,188.161 Z M81.3655,192.121 C82.0915,192.121 82.7551667,191.948667 83.3565,191.604 C83.9578333,191.259333 84.4235,190.793667 84.7535,190.207 L84.7535,190.207 L84.7535,188.161 L81.3545,188.161 L81.3545,189.195 L83.5875,189.195 L83.5875,189.976 C83.1108333,190.709333 82.3885,191.076 81.4205,191.076 C80.6431667,191.076 80.0033333,190.8175 79.501,190.3005 C78.9986667,189.7835 78.7475,189.136333 78.7475,188.359 C78.7475,187.589 78.9913333,186.951 79.479,186.445 C79.9666667,185.939 80.5918333,185.686 81.3545,185.686 C82.2565,185.686 82.9788333,186.067333 83.5215,186.83 L83.5215,186.83 L84.3685,186.137 C83.6425,185.125 82.6415,184.619 81.3655,184.619 C80.3095,184.604333 79.402,184.967333 78.643,185.708 C77.884,186.448667 77.5155,187.336 77.5375,188.37 C77.5228333,189.411333 77.8913333,190.3005 78.643,191.0375 C79.3946667,191.7745 80.3021667,192.135667 81.3655,192.121 Z M86.3455,192 L86.8625,190.79 L90.1295,190.79 L90.6465,192 L91.9005,192 L88.6995,184.619 L88.3035,184.619 L85.1025,192 L86.3455,192 Z M89.7115,189.789 L87.2805,189.789 L88.5015,186.786 L89.7115,189.789 Z M94.9225,192.121 C95.6265,192.121 96.2076667,191.926667 96.666,191.538 C97.1243333,191.149333 97.3535,190.643333 97.3535,190.02 C97.3535,189.550667 97.216,189.158333 96.941,188.843 C96.666,188.527667 96.2241667,188.230667 95.6155,187.952 L95.6155,187.952 L94.8015,187.578 C94.7795,187.563333 94.7465,187.545 94.7025,187.523 C94.4605,187.398333 94.3175,187.325 94.2735,187.303 C94.2295,187.281 94.1525,187.224167 94.0425,187.1325 C93.9325,187.040833 93.8646667,186.952833 93.839,186.8685 C93.8133333,186.784167 93.7968333,186.676 93.7895,186.544 C93.7895,186.265333 93.8921667,186.049 94.0975,185.895 C94.3028333,185.741 94.5668333,185.664 94.8895,185.664 C95.5128333,185.664 96.0225,185.957333 96.4185,186.544 L96.4185,186.544 L97.2325,185.917 C97.0051667,185.521 96.6843333,185.205667 96.27,184.971 C95.8556667,184.736333 95.3955,184.619 94.8895,184.619 C94.2441667,184.619 93.7015,184.802333 93.2615,185.169 C92.8215,185.535667 92.6015,186.008667 92.6015,186.588 C92.6015,187.05 92.7426667,187.436833 93.025,187.7485 C93.3073333,188.060167 93.7308333,188.344333 94.2955,188.601 L94.2955,188.601 L95.0985,188.975 C95.5018333,189.165667 95.7805,189.3325 95.9345,189.4755 C96.0885,189.6185 96.1655,189.814667 96.1655,190.064 C96.1655,190.372 96.05,190.617667 95.819,190.801 C95.588,190.984333 95.2855,191.076 94.9115,191.076 C94.1708333,191.076 93.5365,190.691 93.0085,189.921 L93.0085,189.921 L92.1835,190.548 C92.4695,191.039333 92.8508333,191.424333 93.3275,191.703 C93.8041667,191.981667 94.3358333,192.121 94.9225,192.121 Z M104.7065,192.121 C105.373833,192.121 105.980667,191.9725 106.527,191.6755 C107.073333,191.3785 107.504167,190.969667 107.8195,190.449 L107.8195,190.449 L106.9395,189.8 C106.404167,190.636 105.6635,191.054 104.7175,191.054 C103.9695,191.054 103.346167,190.799167 102.8475,190.2895 C102.348833,189.779833 102.0995,189.14 102.0995,188.37 C102.0995,187.6 102.348833,186.960167 102.8475,186.4505 C103.346167,185.940833 103.9695,185.686 104.7175,185.686 C105.6635,185.686 106.404167,186.104 106.9395,186.94 L106.9395,186.94 L107.8195,186.291 C107.504167,185.777667 107.0715,185.370667 106.5215,185.07 C105.9715,184.769333 105.3665,184.619 104.7065,184.619 C103.665167,184.604333 102.763167,184.967333 102.0005,185.708 C101.237833,186.448667 100.8675,187.336 100.8895,188.37 C100.8675,189.404 101.237833,190.291333 102.0005,191.032 C102.763167,191.772667 103.665167,192.135667 104.7065,192.121 Z M109.3785,192 L109.8955,190.79 L113.1625,190.79 L113.6795,192 L114.9335,192 L111.7325,184.619 L111.3365,184.619 L108.1355,192 L109.3785,192 Z M112.7445,189.789 L110.3135,189.789 L111.5345,186.786 L112.7445,189.789 Z M118.0655,192 C119.238833,192 120.190333,191.659 120.92,190.977 C121.649667,190.295 122.0145,189.422333 122.0145,188.359 C122.0145,187.281 121.6515,186.408333 120.9255,185.741 C120.1995,185.073667 119.246167,184.74 118.0655,184.74 L118.0655,184.74 L115.7885,184.74 L115.7885,192 L118.0655,192 Z M118.0545,190.955 L116.9545,190.955 L116.9545,185.796 L118.0545,185.796 C118.897833,185.796 119.568833,186.028833 120.0675,186.4945 C120.566167,186.960167 120.8155,187.581667 120.8155,188.359 C120.8155,189.129 120.564333,189.754167 120.062,190.2345 C119.559667,190.714833 118.8905,190.955 118.0545,190.955 L118.0545,190.955 Z M123.4965,192 L124.0135,190.79 L127.2805,190.79 L127.7975,192 L129.0515,192 L125.8505,184.619 L125.4545,184.619 L122.2535,192 L123.4965,192 Z M126.8625,189.789 L124.4315,189.789 L125.6525,186.786 L126.8625,189.789 Z M133.3025,192 L133.3025,187.435 L135.3925,190.174 L135.7885,190.174 L137.8675,187.446 L137.8675,192 L139.0335,192 L139.0335,184.619 L138.6375,184.619 L135.5905,188.678 L132.5435,184.619 L132.1365,184.619 L132.1365,192 L133.3025,192 Z M145.4655,192 L145.4655,190.955 L141.7255,190.955 L141.7255,188.656 L144.4425,188.656 L144.4425,187.644 L141.7255,187.644 L141.7255,185.785 L145.3335,185.785 L145.3335,184.74 L140.5595,184.74 L140.5595,192 L145.4655,192 Z M148.7405,192.121 C149.4445,192.121 150.025667,191.926667 150.484,191.538 C150.942333,191.149333 151.1715,190.643333 151.1715,190.02 C151.1715,189.550667 151.034,189.158333 150.759,188.843 C150.484,188.527667 150.042167,188.230667 149.4335,187.952 L149.4335,187.952 L148.6195,187.578 C148.5975,187.563333 148.5645,187.545 148.5205,187.523 C148.2785,187.398333 148.1355,187.325 148.0915,187.303 C148.0475,187.281 147.9705,187.224167 147.8605,187.1325 C147.7505,187.040833 147.682667,186.952833 147.657,186.8685 C147.631333,186.784167 147.614833,186.676 147.6075,186.544 C147.6075,186.265333 147.710167,186.049 147.9155,185.895 C148.120833,185.741 148.384833,185.664 148.7075,185.664 C149.330833,185.664 149.8405,185.957333 150.2365,186.544 L150.2365,186.544 L151.0505,185.917 C150.823167,185.521 150.502333,185.205667 150.088,184.971 C149.673667,184.736333 149.2135,184.619 148.7075,184.619 C148.062167,184.619 147.5195,184.802333 147.0795,185.169 C146.6395,185.535667 146.4195,186.008667 146.4195,186.588 C146.4195,187.05 146.560667,187.436833 146.843,187.7485 C147.125333,188.060167 147.548833,188.344333 148.1135,188.601 L148.1135,188.601 L148.9165,188.975 C149.319833,189.165667 149.5985,189.3325 149.7525,189.4755 C149.9065,189.6185 149.9835,189.814667 149.9835,190.064 C149.9835,190.372 149.868,190.617667 149.637,190.801 C149.406,190.984333 149.1035,191.076 148.7295,191.076 C147.988833,191.076 147.3545,190.691 146.8265,189.921 L146.8265,189.921 L146.0015,190.548 C146.2875,191.039333 146.668833,191.424333 147.1455,191.703 C147.622167,191.981667 148.153833,192.121 148.7405,192.121 Z M157.7875,192 L157.7875,189.074 L160.2955,184.74 L159.0085,184.74 L157.2045,187.897 L155.4115,184.74 L154.1135,184.74 L156.6215,189.074 L156.6215,192 L157.7875,192 Z M165.8445,192 C167.017833,192 167.969333,191.659 168.699,190.977 C169.428667,190.295 169.7935,189.422333 169.7935,188.359 C169.7935,187.281 169.4305,186.408333 168.7045,185.741 C167.9785,185.073667 167.025167,184.74 165.8445,184.74 L165.8445,184.74 L163.5675,184.74 L163.5675,192 L165.8445,192 Z M165.8335,190.955 L164.7335,190.955 L164.7335,185.796 L165.8335,185.796 C166.676833,185.796 167.347833,186.028833 167.8465,186.4945 C168.345167,186.960167 168.5945,187.581667 168.5945,188.359 C168.5945,189.129 168.343333,189.754167 167.841,190.2345 C167.338667,190.714833 166.6695,190.955 165.8335,190.955 L165.8335,190.955 Z M171.2755,192 L171.7925,190.79 L175.0595,190.79 L175.5765,192 L176.8305,192 L173.6295,184.619 L173.2335,184.619 L170.0325,192 L171.2755,192 Z M174.6415,189.789 L172.2105,189.789 L173.4315,186.786 L174.6415,189.789 Z M178.8515,192 L178.8515,187.435 L180.9415,190.174 L181.3375,190.174 L183.4165,187.446 L183.4165,192 L184.5825,192 L184.5825,184.619 L184.1865,184.619 L181.1395,188.678 L178.0925,184.619 L177.6855,184.619 L177.6855,192 L178.8515,192 Z M189.4745,192.121 C190.5085,192.135667 191.408667,191.772667 192.175,191.032 C192.941333,190.291333 193.3135,189.404 193.2915,188.37 C193.3135,187.336 192.941333,186.448667 192.175,185.708 C191.408667,184.967333 190.5085,184.604333 189.4745,184.619 C188.433167,184.604333 187.534833,184.967333 186.7795,185.708 C186.024167,186.448667 185.653833,187.336 185.6685,188.37 C185.6465,189.404 186.015,190.291333 186.774,191.032 C187.533,191.772667 188.433167,192.135667 189.4745,192.121 Z M189.4855,191.054 C188.730167,191.054 188.106833,190.799167 187.6155,190.2895 C187.124167,189.779833 186.8785,189.136333 186.8785,188.359 C186.8785,187.589 187.126,186.951 187.621,186.445 C188.116,185.939 188.7375,185.686 189.4855,185.686 C190.226167,185.686 190.845833,185.940833 191.3445,186.4505 C191.843167,186.960167 192.0925,187.596333 192.0925,188.359 C192.0925,189.129 191.843167,189.770667 191.3445,190.284 C190.845833,190.797333 190.226167,191.054 189.4855,191.054 Z M196.6105,192.121 C197.3145,192.121 197.895667,191.926667 198.354,191.538 C198.812333,191.149333 199.0415,190.643333 199.0415,190.02 C199.0415,189.550667 198.904,189.158333 198.629,188.843 C198.354,188.527667 197.912167,188.230667 197.3035,187.952 L197.3035,187.952 L196.4895,187.578 C196.4675,187.563333 196.4345,187.545 196.3905,187.523 C196.1485,187.398333 196.0055,187.325 195.9615,187.303 C195.9175,187.281 195.8405,187.224167 195.7305,187.1325 C195.6205,187.040833 195.552667,186.952833 195.527,186.8685 C195.501333,186.784167 195.484833,186.676 195.4775,186.544 C195.4775,186.265333 195.580167,186.049 195.7855,185.895 C195.990833,185.741 196.254833,185.664 196.5775,185.664 C197.200833,185.664 197.7105,185.957333 198.1065,186.544 L198.1065,186.544 L198.9205,185.917 C198.693167,185.521 198.372333,185.205667 197.958,184.971 C197.543667,184.736333 197.0835,184.619 196.5775,184.619 C195.932167,184.619 195.3895,184.802333 194.9495,185.169 C194.5095,185.535667 194.2895,186.008667 194.2895,186.588 C194.2895,187.05 194.430667,187.436833 194.713,187.7485 C194.995333,188.060167 195.418833,188.344333 195.9835,188.601 L195.9835,188.601 L196.7865,188.975 C197.189833,189.165667 197.4685,189.3325 197.6225,189.4755 C197.7765,189.6185 197.8535,189.814667 197.8535,190.064 C197.8535,190.372 197.738,190.617667 197.507,190.801 C197.276,190.984333 196.9735,191.076 196.5995,191.076 C195.858833,191.076 195.2245,190.691 194.6965,189.921 L194.6965,189.921 L193.8715,190.548 C194.1575,191.039333 194.538833,191.424333 195.0155,191.703 C195.492167,191.981667 196.023833,192.121 196.6105,192.121 Z M13.3805,207.132 C14.1651667,207.132 14.8251667,206.8955 15.3605,206.4225 C15.8958333,205.9495 16.1635,205.346333 16.1635,204.613 C16.1635,203.909 15.9215,203.349833 15.4375,202.9355 C14.9535,202.521167 14.3778333,202.314 13.7105,202.314 C13.4538333,202.314 13.1788333,202.343333 12.8855,202.402 L12.8855,202.402 L12.8855,201.082 L15.7455,201.082 L15.7455,199.74 L11.4555,199.74 L11.4555,203.59 L13.1495,203.59 C14.1395,203.59 14.6345,203.938333 14.6345,204.635 C14.6345,204.979667 14.5135,205.252833 14.2715,205.4545 C14.0295,205.656167 13.7178333,205.757 13.3365,205.757 C12.6911667,205.757 12.1521667,205.423333 11.7195,204.756 L11.7195,204.756 L10.6855,205.482 C10.9348333,205.995333 11.296,206.398667 11.769,206.692 C12.242,206.985333 12.7791667,207.132 13.3805,207.132 Z M20.9595,207.132 C21.7221667,207.132 22.4041667,206.952333 23.0055,206.593 C23.6141667,206.233667 24.0871667,205.757 24.4245,205.163 L24.4245,205.163 L24.4245,203.018 L20.9375,203.018 L20.9375,204.305 L22.9395,204.305 L22.9395,204.899 C22.5068333,205.500333 21.8688333,205.801 21.0255,205.801 C20.3068333,205.801 19.7238333,205.573667 19.2765,205.119 C18.8291667,204.664333 18.6055,204.081333 18.6055,203.37 C18.6055,202.673333 18.8218333,202.101333 19.2545,201.654 C19.6871667,201.206667 20.2481667,200.983 20.9375,200.983 C21.7735,200.983 22.4481667,201.338667 22.9615,202.05 L22.9615,202.05 L24.0175,201.181 C23.2768333,200.132333 22.2575,199.608 20.9595,199.608 C19.8815,199.593333 18.9593333,199.956333 18.193,200.697 C17.4266667,201.437667 17.0545,202.328667 17.0765,203.37 C17.0618333,204.411333 17.4395,205.304167 18.2095,206.0485 C18.9795,206.792833 19.8961667,207.154 20.9595,207.132 Z M27.1965,207 L27.1965,199.74 L25.7115,199.74 L25.7115,207 L27.1965,207 Z M32.3225,207.132 C33.0851667,207.132 33.7671667,206.952333 34.3685,206.593 C34.9771667,206.233667 35.4501667,205.757 35.7875,205.163 L35.7875,205.163 L35.7875,203.018 L32.3005,203.018 L32.3005,204.305 L34.3025,204.305 L34.3025,204.899 C33.8698333,205.500333 33.2318333,205.801 32.3885,205.801 C31.6698333,205.801 31.0868333,205.573667 30.6395,205.119 C30.1921667,204.664333 29.9685,204.081333 29.9685,203.37 C29.9685,202.673333 30.1848333,202.101333 30.6175,201.654 C31.0501667,201.206667 31.6111667,200.983 32.3005,200.983 C33.1365,200.983 33.8111667,201.338667 34.3245,202.05 L34.3245,202.05 L35.3805,201.181 C34.6398333,200.132333 33.6205,199.608 32.3225,199.608 C31.2445,199.593333 30.3223333,199.956333 29.556,200.697 C28.7896667,201.437667 28.4175,202.328667 28.4395,203.37 C28.4248333,204.411333 28.8025,205.304167 29.5725,206.0485 C30.3425,206.792833 31.2591667,207.154 32.3225,207.132 Z M37.9765,207 L38.3835,206.054 L41.3535,206.054 L41.7605,207 L43.3555,207 L40.1215,199.608 L39.6265,199.608 L36.3815,207 L37.9765,207 Z M40.8365,204.833 L38.9005,204.833 L39.8685,202.38 L40.8365,204.833 Z M46.6445,207.132 C47.3851667,207.132 47.9938333,206.932167 48.4705,206.5325 C48.9471667,206.132833 49.1855,205.606667 49.1855,204.954 C49.1855,204.47 49.0425,204.064833 48.7565,203.7385 C48.4705,203.412167 48.0158333,203.109667 47.3925,202.831 L47.3925,202.831 L46.5675,202.468 C46.2448333,202.321333 46.023,202.191167 45.902,202.0775 C45.781,201.963833 45.7205,201.815333 45.7205,201.632 C45.7205,201.412 45.8048333,201.239667 45.9735,201.115 C46.1421667,200.990333 46.3585,200.928 46.6225,200.928 C47.1725,200.928 47.6345,201.206667 48.0085,201.764 L48.0085,201.764 L49.0205,200.983 C48.7858333,200.557667 48.4631667,200.222167 48.0525,199.9765 C47.6418333,199.730833 47.1651667,199.608 46.6225,199.608 C45.9258333,199.608 45.3501667,199.796833 44.8955,200.1745 C44.4408333,200.552167 44.2135,201.049 44.2135,201.665 C44.2135,202.537667 44.8001667,203.234333 45.9735,203.755 L45.9735,203.755 L46.7545,204.107 C47.1211667,204.275667 47.3668333,204.416833 47.4915,204.5305 C47.6161667,204.644167 47.6785,204.803667 47.6785,205.009 C47.6785,205.258333 47.5868333,205.4545 47.4035,205.5975 C47.2201667,205.7405 46.9671667,205.812 46.6445,205.812 C45.9698333,205.812 45.3758333,205.46 44.8625,204.756 L44.8625,204.756 L43.8395,205.526 C44.1255,206.024667 44.5123333,206.417 45,206.703 C45.4876667,206.989 46.0358333,207.132 46.6445,207.132 Z M56.5445,206.054 L56.5445,204.107 L58.4145,204.107 L58.4145,202.842 L56.5445,202.842 L56.5445,200.906 L55.1255,200.906 L55.1255,202.842 L53.2335,202.842 L53.2335,204.107 L55.1255,204.107 L55.1255,206.054 L56.5445,206.054 Z M65.3885,207 L65.3885,199.74 L64.8935,199.74 L62.1765,200.631 L62.5285,201.94 L63.9035,201.5 L63.9035,207 L65.3885,207 Z M69.8875,207.132 C70.8041667,207.132 71.5118333,206.776333 72.0105,206.065 C72.5091667,205.353667 72.7585,204.437 72.7585,203.315 C72.7585,202.200333 72.5128333,201.305667 72.0215,200.631 C71.5375,199.949 70.8261667,199.608 69.8875,199.608 C68.9488333,199.608 68.2338333,199.949 67.7425,200.631 C67.2511667,201.305667 67.0055,202.200333 67.0055,203.315 C67.0055,204.437 67.2548333,205.353667 67.7535,206.065 C68.2521667,206.776333 68.9635,207.132 69.8875,207.132 Z M69.8875,205.757 C68.9855,205.757 68.5345,204.946667 68.5345,203.326 C68.5345,201.764 68.9855,200.983 69.8875,200.983 C70.7821667,200.983 71.2295,201.764 71.2295,203.326 C71.2295,204.946667 70.7821667,205.757 69.8875,205.757 Z M76.8725,207.132 C77.7891667,207.132 78.4968333,206.776333 78.9955,206.065 C79.4941667,205.353667 79.7435,204.437 79.7435,203.315 C79.7435,202.200333 79.4978333,201.305667 79.0065,200.631 C78.5225,199.949 77.8111667,199.608 76.8725,199.608 C75.9338333,199.608 75.2188333,199.949 74.7275,200.631 C74.2361667,201.305667 73.9905,202.200333 73.9905,203.315 C73.9905,204.437 74.2398333,205.353667 74.7385,206.065 C75.2371667,206.776333 75.9485,207.132 76.8725,207.132 Z M76.8725,205.757 C75.9705,205.757 75.5195,204.946667 75.5195,203.326 C75.5195,201.764 75.9705,200.983 76.8725,200.983 C77.7671667,200.983 78.2145,201.764 78.2145,203.326 C78.2145,204.946667 77.7671667,205.757 76.8725,205.757 Z M85.7605,207 L85.7605,203.128 L87.5865,205.416 L88.0705,205.416 L89.8965,203.128 L89.8965,207 L91.3815,207 L91.3815,199.608 L90.8975,199.608 L87.8285,203.535 L84.7595,199.608 L84.2755,199.608 L84.2755,207 L85.7605,207 Z M94.5385,207 L94.5385,199.74 L93.0535,199.74 L93.0535,207 L94.5385,207 Z M102.3815,207.132 L102.3815,199.74 L100.8965,199.74 L100.8965,204.074 L96.6835,199.608 L96.1995,199.608 L96.1995,207 L97.6845,207 L97.6845,202.644 L101.8865,207.132 L102.3815,207.132 Z M107.0565,207.132 C107.951167,207.132 108.688167,206.846 109.2675,206.274 C109.846833,205.702 110.1365,204.943 110.1365,203.997 L110.1365,203.997 L110.1365,199.74 L108.6515,199.74 L108.6515,204.107 C108.6515,204.627667 108.506667,205.032833 108.217,205.3225 C107.927333,205.612167 107.5405,205.757 107.0565,205.757 C106.579833,205.757 106.194833,205.612167 105.9015,205.3225 C105.608167,205.032833 105.4615,204.627667 105.4615,204.107 L105.4615,204.107 L105.4615,199.74 L103.9765,199.74 L103.9765,203.997 C103.9765,204.943 104.264333,205.702 104.84,206.274 C105.415667,206.846 106.1545,207.132 107.0565,207.132 Z M114.8665,207 L114.8665,201.082 L117.1985,201.082 L117.1985,199.74 L111.0605,199.74 L111.0605,201.082 L113.3815,201.082 L113.3815,207 L114.8665,207 Z M121.6095,207.132 C122.658167,207.154 123.569333,206.791 124.343,206.043 C125.116667,205.295 125.496167,204.404 125.4815,203.37 C125.496167,202.336 125.116667,201.445 124.343,200.697 C123.569333,199.949 122.658167,199.586 121.6095,199.608 C120.560833,199.586 119.653333,199.949 118.887,200.697 C118.120667,201.445 117.744833,202.336 117.7595,203.37 C117.744833,204.404 118.120667,205.295 118.887,206.043 C119.653333,206.791 120.560833,207.154 121.6095,207.132 Z M121.6205,205.757 C120.945833,205.757 120.3885,205.533333 119.9485,205.086 C119.5085,204.638667 119.2885,204.066667 119.2885,203.37 C119.2885,202.673333 119.5085,202.101333 119.9485,201.654 C120.3885,201.206667 120.945833,200.983 121.6205,200.983 C122.287833,200.983 122.843333,201.2085 123.287,201.6595 C123.730667,202.1105 123.9525,202.680667 123.9525,203.37 C123.9525,204.066667 123.730667,204.638667 123.287,205.086 C122.843333,205.533333 122.287833,205.757 121.6205,205.757 Z M129.0345,207.132 C129.775167,207.132 130.383833,206.932167 130.8605,206.5325 C131.337167,206.132833 131.5755,205.606667 131.5755,204.954 C131.5755,204.47 131.4325,204.064833 131.1465,203.7385 C130.8605,203.412167 130.405833,203.109667 129.7825,202.831 L129.7825,202.831 L128.9575,202.468 C128.634833,202.321333 128.413,202.191167 128.292,202.0775 C128.171,201.963833 128.1105,201.815333 128.1105,201.632 C128.1105,201.412 128.194833,201.239667 128.3635,201.115 C128.532167,200.990333 128.7485,200.928 129.0125,200.928 C129.5625,200.928 130.0245,201.206667 130.3985,201.764 L130.3985,201.764 L131.4105,200.983 C131.175833,200.557667 130.853167,200.222167 130.4425,199.9765 C130.031833,199.730833 129.555167,199.608 129.0125,199.608 C128.315833,199.608 127.740167,199.796833 127.2855,200.1745 C126.830833,200.552167 126.6035,201.049 126.6035,201.665 C126.6035,202.537667 127.190167,203.234333 128.3635,203.755 L128.3635,203.755 L129.1445,204.107 C129.511167,204.275667 129.756833,204.416833 129.8815,204.5305 C130.006167,204.644167 130.0685,204.803667 130.0685,205.009 C130.0685,205.258333 129.976833,205.4545 129.7935,205.5975 C129.610167,205.7405 129.357167,205.812 129.0345,205.812 C128.359833,205.812 127.765833,205.46 127.2525,204.756 L127.2525,204.756 L126.2295,205.526 C126.5155,206.024667 126.902333,206.417 127.39,206.703 C127.877667,206.989 128.425833,207.132 129.0345,207.132 Z M137.4495,207 L137.4495,203.128 L139.2755,205.416 L139.7595,205.416 L141.5855,203.128 L141.5855,207 L143.0705,207 L143.0705,199.608 L142.5865,199.608 L139.5175,203.535 L136.4485,199.608 L135.9645,199.608 L135.9645,207 L137.4495,207 Z M149.7585,207 L149.7585,205.658 L146.2275,205.658 L146.2275,203.821 L148.7245,203.821 L148.7245,202.556 L146.2275,202.556 L146.2275,201.082 L149.6265,201.082 L149.6265,199.74 L144.7425,199.74 L144.7425,207 L149.7585,207 Z M153.3445,207.132 C154.085167,207.132 154.693833,206.932167 155.1705,206.5325 C155.647167,206.132833 155.8855,205.606667 155.8855,204.954 C155.8855,204.47 155.7425,204.064833 155.4565,203.7385 C155.1705,203.412167 154.715833,203.109667 154.0925,202.831 L154.0925,202.831 L153.2675,202.468 C152.944833,202.321333 152.723,202.191167 152.602,202.0775 C152.481,201.963833 152.4205,201.815333 152.4205,201.632 C152.4205,201.412 152.504833,201.239667 152.6735,201.115 C152.842167,200.990333 153.0585,200.928 153.3225,200.928 C153.8725,200.928 154.3345,201.206667 154.7085,201.764 L154.7085,201.764 L155.7205,200.983 C155.485833,200.557667 155.163167,200.222167 154.7525,199.9765 C154.341833,199.730833 153.865167,199.608 153.3225,199.608 C152.625833,199.608 152.050167,199.796833 151.5955,200.1745 C151.140833,200.552167 150.9135,201.049 150.9135,201.665 C150.9135,202.537667 151.500167,203.234333 152.6735,203.755 L152.6735,203.755 L153.4545,204.107 C153.821167,204.275667 154.066833,204.416833 154.1915,204.5305 C154.316167,204.644167 154.3785,204.803667 154.3785,205.009 C154.3785,205.258333 154.286833,205.4545 154.1035,205.5975 C153.920167,205.7405 153.667167,205.812 153.3445,205.812 C152.669833,205.812 152.075833,205.46 151.5625,204.756 L151.5625,204.756 L150.5395,205.526 C150.8255,206.024667 151.212333,206.417 151.7,206.703 C152.187667,206.989 152.735833,207.132 153.3445,207.132 Z M160.2085,207.132 C161.103167,207.132 161.840167,206.846 162.4195,206.274 C162.998833,205.702 163.2885,204.943 163.2885,203.997 L163.2885,203.997 L163.2885,199.74 L161.8035,199.74 L161.8035,204.107 C161.8035,204.627667 161.658667,205.032833 161.369,205.3225 C161.079333,205.612167 160.6925,205.757 160.2085,205.757 C159.731833,205.757 159.346833,205.612167 159.0535,205.3225 C158.760167,205.032833 158.6135,204.627667 158.6135,204.107 L158.6135,204.107 L158.6135,199.74 L157.1285,199.74 L157.1285,203.997 C157.1285,204.943 157.416333,205.702 157.992,206.274 C158.567667,206.846 159.3065,207.132 160.2085,207.132 Z M165.7965,207 L166.2035,206.054 L169.1735,206.054 L169.5805,207 L171.1755,207 L167.9415,199.608 L167.4465,199.608 L164.2015,207 L165.7965,207 Z M168.6565,204.833 L166.7205,204.833 L167.6885,202.38 L168.6565,204.833 Z M176.8295,207 L176.8295,205.658 L173.6505,205.658 L173.6505,199.74 L172.1655,199.74 L172.1655,207 L176.8295,207 Z M182.9455,207 L182.9455,205.658 L179.4145,205.658 L179.4145,203.821 L181.9115,203.821 L181.9115,202.556 L179.4145,202.556 L179.4145,201.082 L182.8135,201.082 L182.8135,199.74 L177.9295,199.74 L177.9295,207 L182.9455,207 Z M186.5315,207.132 C187.272167,207.132 187.880833,206.932167 188.3575,206.5325 C188.834167,206.132833 189.0725,205.606667 189.0725,204.954 C189.0725,204.47 188.9295,204.064833 188.6435,203.7385 C188.3575,203.412167 187.902833,203.109667 187.2795,202.831 L187.2795,202.831 L186.4545,202.468 C186.131833,202.321333 185.91,202.191167 185.789,202.0775 C185.668,201.963833 185.6075,201.815333 185.6075,201.632 C185.6075,201.412 185.691833,201.239667 185.8605,201.115 C186.029167,200.990333 186.2455,200.928 186.5095,200.928 C187.0595,200.928 187.5215,201.206667 187.8955,201.764 L187.8955,201.764 L188.9075,200.983 C188.672833,200.557667 188.350167,200.222167 187.9395,199.9765 C187.528833,199.730833 187.052167,199.608 186.5095,199.608 C185.812833,199.608 185.237167,199.796833 184.7825,200.1745 C184.327833,200.552167 184.1005,201.049 184.1005,201.665 C184.1005,202.537667 184.687167,203.234333 185.8605,203.755 L185.8605,203.755 L186.6415,204.107 C187.008167,204.275667 187.253833,204.416833 187.3785,204.5305 C187.503167,204.644167 187.5655,204.803667 187.5655,205.009 C187.5655,205.258333 187.473833,205.4545 187.2905,205.5975 C187.107167,205.7405 186.854167,205.812 186.5315,205.812 C185.856833,205.812 185.262833,205.46 184.7495,204.756 L184.7495,204.756 L183.7265,205.526 C184.0125,206.024667 184.399333,206.417 184.887,206.703 C185.374667,206.989 185.922833,207.132 186.5315,207.132 Z" id="REALIZARECARGASCADAMESYDAMOS5GIGAS+100MINUTOSMESUALES" fill="#4F008C" fill-rule="nonzero"></path>
                <g id="Group-8" transform="translate(25.000000, 232.000000)" fill-rule="nonzero">
                    <g id="Group-4">
                        <path d="M23.68,11.132 C24.408,11.132 25.07,10.97 25.666,10.646 C26.262,10.322 26.732,9.876 27.076,9.308 L27.076,9.308 L26.116,8.6 C25.532,9.512 24.724,9.968 23.692,9.968 C22.876,9.968 22.196,9.69 21.652,9.134 C21.108,8.578 20.836,7.88 20.836,7.04 C20.836,6.2 21.108,5.502 21.652,4.946 C22.196,4.39 22.876,4.112 23.692,4.112 C24.724,4.112 25.532,4.568 26.116,5.48 L26.116,5.48 L27.076,4.772 C26.732,4.212 26.26,3.768 25.66,3.44 C25.06,3.112 24.4,2.948 23.68,2.948 C22.544,2.932 21.56,3.328 20.728,4.136 C19.896,4.944 19.492,5.912 19.516,7.04 C19.492,8.168 19.896,9.136 20.728,9.944 C21.56,10.752 22.544,11.148 23.68,11.132 Z M29.872,11 L29.872,7.376 L33.856,7.376 L33.856,11 L35.128,11 L35.128,3.08 L33.856,3.08 L33.856,6.236 L29.872,6.236 L29.872,3.08 L28.6,3.08 L28.6,11 L29.872,11 Z M38.404,11 L38.404,3.08 L37.132,3.08 L37.132,11 L38.404,11 Z M41.668,11 L41.668,7.94 L43.288,7.94 C44.08,7.94 44.726,7.712 45.226,7.256 C45.726,6.8 45.976,6.216 45.976,5.504 C45.976,4.792 45.728,4.21 45.232,3.758 C44.736,3.306 44.088,3.08 43.288,3.08 L43.288,3.08 L40.396,3.08 L40.396,11 L41.668,11 Z M43.264,6.812 L41.668,6.812 L41.668,4.208 L43.264,4.208 C43.704,4.208 44.048,4.326 44.296,4.562 C44.544,4.798 44.668,5.116 44.668,5.516 C44.668,5.916 44.544,6.232 44.296,6.464 C44.048,6.696 43.704,6.812 43.264,6.812 L43.264,6.812 Z M52.024,11 L52.024,7.94 L53.644,7.94 C54.436,7.94 55.082,7.712 55.582,7.256 C56.082,6.8 56.332,6.216 56.332,5.504 C56.332,4.792 56.084,4.21 55.588,3.758 C55.092,3.306 54.444,3.08 53.644,3.08 L53.644,3.08 L50.752,3.08 L50.752,11 L52.024,11 Z M53.62,6.812 L52.024,6.812 L52.024,4.208 L53.62,4.208 C54.06,4.208 54.404,4.326 54.652,4.562 C54.9,4.798 55.024,5.116 55.024,5.516 C55.024,5.916 54.9,6.232 54.652,6.464 C54.404,6.696 54.06,6.812 53.62,6.812 L53.62,6.812 Z M59.02,11 L59.02,7.94 L60.472,7.94 L62.728,11 L64.18,11 L61.804,7.736 C62.284,7.552 62.658,7.264 62.926,6.872 C63.194,6.48 63.328,6.024 63.328,5.504 C63.328,4.792 63.08,4.21 62.584,3.758 C62.088,3.306 61.44,3.08 60.64,3.08 L60.64,3.08 L57.748,3.08 L57.748,11 L59.02,11 Z M60.616,6.812 L59.02,6.812 L59.02,4.208 L60.616,4.208 C61.048,4.208 61.39,4.328 61.642,4.568 C61.894,4.808 62.02,5.124 62.02,5.516 C62.02,5.908 61.894,6.222 61.642,6.458 C61.39,6.694 61.048,6.812 60.616,6.812 L60.616,6.812 Z M70.672,11 L70.672,9.86 L66.592,9.86 L66.592,7.352 L69.556,7.352 L69.556,6.248 L66.592,6.248 L66.592,4.22 L70.528,4.22 L70.528,3.08 L65.32,3.08 L65.32,11 L70.672,11 Z M73.42,11 L73.42,7.94 L75.04,7.94 C75.832,7.94 76.478,7.712 76.978,7.256 C77.478,6.8 77.728,6.216 77.728,5.504 C77.728,4.792 77.48,4.21 76.984,3.758 C76.488,3.306 75.84,3.08 75.04,3.08 L75.04,3.08 L72.148,3.08 L72.148,11 L73.42,11 Z M75.016,6.812 L73.42,6.812 L73.42,4.208 L75.016,4.208 C75.456,4.208 75.8,4.326 76.048,4.562 C76.296,4.798 76.42,5.116 76.42,5.516 C76.42,5.916 76.296,6.232 76.048,6.464 C75.8,6.696 75.456,6.812 75.016,6.812 L75.016,6.812 Z M79.768,11 L80.332,9.68 L83.896,9.68 L84.46,11 L85.828,11 L82.336,2.948 L81.904,2.948 L78.412,11 L79.768,11 Z M83.44,8.588 L80.788,8.588 L82.12,5.312 L83.44,8.588 Z M90.784,11.132 C91.576,11.132 92.3,10.944 92.956,10.568 C93.612,10.192 94.12,9.684 94.48,9.044 L94.48,9.044 L94.48,6.812 L90.772,6.812 L90.772,7.94 L93.208,7.94 L93.208,8.792 C92.688,9.592 91.9,9.992 90.844,9.992 C89.996,9.992 89.298,9.71 88.75,9.146 C88.202,8.582 87.928,7.876 87.928,7.028 C87.928,6.188 88.194,5.492 88.726,4.94 C89.258,4.388 89.94,4.112 90.772,4.112 C91.756,4.112 92.544,4.528 93.136,5.36 L93.136,5.36 L94.06,4.604 C93.268,3.5 92.176,2.948 90.784,2.948 C89.632,2.932 88.642,3.328 87.814,4.136 C86.986,4.944 86.584,5.912 86.608,7.04 C86.592,8.176 86.994,9.146 87.814,9.95 C88.634,10.754 89.624,11.148 90.784,11.132 Z M99.712,11.132 C100.84,11.148 101.822,10.752 102.658,9.944 C103.494,9.136 103.9,8.168 103.876,7.04 C103.9,5.912 103.494,4.944 102.658,4.136 C101.822,3.328 100.84,2.932 99.712,2.948 C98.576,2.932 97.596,3.328 96.772,4.136 C95.948,4.944 95.544,5.912 95.56,7.04 C95.536,8.168 95.938,9.136 96.766,9.944 C97.594,10.752 98.576,11.148 99.712,11.132 Z M99.724,9.968 C98.9,9.968 98.22,9.69 97.684,9.134 C97.148,8.578 96.88,7.876 96.88,7.028 C96.88,6.188 97.15,5.492 97.69,4.94 C98.23,4.388 98.908,4.112 99.724,4.112 C100.532,4.112 101.208,4.39 101.752,4.946 C102.296,5.502 102.568,6.196 102.568,7.028 C102.568,7.868 102.296,8.568 101.752,9.128 C101.208,9.688 100.532,9.968 99.724,9.968 Z M112.456,11.132 C113.248,11.132 113.972,10.944 114.628,10.568 C115.284,10.192 115.792,9.684 116.152,9.044 L116.152,9.044 L116.152,6.812 L112.444,6.812 L112.444,7.94 L114.88,7.94 L114.88,8.792 C114.36,9.592 113.572,9.992 112.516,9.992 C111.668,9.992 110.97,9.71 110.422,9.146 C109.874,8.582 109.6,7.876 109.6,7.028 C109.6,6.188 109.866,5.492 110.398,4.94 C110.93,4.388 111.612,4.112 112.444,4.112 C113.428,4.112 114.216,4.528 114.808,5.36 L114.808,5.36 L115.732,4.604 C114.94,3.5 113.848,2.948 112.456,2.948 C111.304,2.932 110.314,3.328 109.486,4.136 C108.658,4.944 108.256,5.912 108.28,7.04 C108.264,8.176 108.666,9.146 109.486,9.95 C110.306,10.754 111.296,11.148 112.456,11.132 Z M118.984,11 L118.984,7.94 L120.436,7.94 L122.692,11 L124.144,11 L121.768,7.736 C122.248,7.552 122.622,7.264 122.89,6.872 C123.158,6.48 123.292,6.024 123.292,5.504 C123.292,4.792 123.044,4.21 122.548,3.758 C122.052,3.306 121.404,3.08 120.604,3.08 L120.604,3.08 L117.712,3.08 L117.712,11 L118.984,11 Z M120.58,6.812 L118.984,6.812 L118.984,4.208 L120.58,4.208 C121.012,4.208 121.354,4.328 121.606,4.568 C121.858,4.808 121.984,5.124 121.984,5.516 C121.984,5.908 121.858,6.222 121.606,6.458 C121.354,6.694 121.012,6.812 120.58,6.812 L120.58,6.812 Z M125.908,11 L126.472,9.68 L130.036,9.68 L130.6,11 L131.968,11 L128.476,2.948 L128.044,2.948 L124.552,11 L125.908,11 Z M129.58,8.588 L126.928,8.588 L128.26,5.312 L129.58,8.588 Z M136.36,11 L136.36,4.22 L139.036,4.22 L139.036,3.08 L132.424,3.08 L132.424,4.22 L135.088,4.22 L135.088,11 L136.36,11 Z M141.496,11 L141.496,3.08 L140.224,3.08 L140.224,11 L141.496,11 Z M145.912,11.132 C146.68,11.132 147.314,10.92 147.814,10.496 C148.314,10.072 148.564,9.52 148.564,8.84 C148.564,8.328 148.414,7.9 148.114,7.556 C147.814,7.212 147.332,6.888 146.668,6.584 L146.668,6.584 L145.78,6.176 C145.756,6.16 145.72,6.14 145.672,6.116 C145.408,5.98 145.252,5.9 145.204,5.876 C145.156,5.852 145.072,5.79 144.952,5.69 C144.832,5.59 144.758,5.494 144.73,5.402 C144.702,5.31 144.684,5.192 144.676,5.048 C144.676,4.744 144.788,4.508 145.012,4.34 C145.236,4.172 145.524,4.088 145.876,4.088 C146.556,4.088 147.112,4.408 147.544,5.048 L147.544,5.048 L148.432,4.364 C148.184,3.932 147.834,3.588 147.382,3.332 C146.93,3.076 146.428,2.948 145.876,2.948 C145.172,2.948 144.58,3.148 144.1,3.548 C143.62,3.948 143.38,4.464 143.38,5.096 C143.38,5.6 143.534,6.022 143.842,6.362 C144.15,6.702 144.612,7.012 145.228,7.292 L145.228,7.292 L146.104,7.7 C146.544,7.908 146.848,8.09 147.016,8.246 C147.184,8.402 147.268,8.616 147.268,8.888 C147.268,9.224 147.142,9.492 146.89,9.692 C146.638,9.892 146.308,9.992 145.9,9.992 C145.092,9.992 144.4,9.572 143.824,8.732 L143.824,8.732 L142.924,9.416 C143.236,9.952 143.652,10.372 144.172,10.676 C144.692,10.98 145.272,11.132 145.912,11.132 Z" id="CHIPPREPAGOGRATIS" fill="#4F008C"></path>
                        <path d="M6.5,0 C8.29854369,0 9.92354369,0.725728155 11.0910194,1.90898058 C12.2742718,3.09223301 13,4.71723301 13,6.5157767 C13,8.31432039 12.2742718,9.93932039 11.0910194,11.1067961 C9.90776699,12.2742718 8.29854369,13 6.5,13 C4.70145631,13 3.07645631,12.2742718 1.89320388,11.0910194 C0.709951456,9.90776699 0,8.29854369 0,6.5 C0,4.70145631 0.725728155,3.07645631 1.90898058,1.89320388 C3.07645631,0.725728155 4.70145631,0 6.5,0 Z M10.7754854,3.64441748 C10.5230583,3.36043689 10.0970874,3.34466019 9.8131068,3.59708738 L9.8131068,3.59708738 L5.08009709,7.91990291 L3.2657767,5.79004854 C3.02912621,5.50606796 2.58737864,5.45873786 2.30339806,5.71116505 C2.00364078,5.96359223 1.97208738,6.38956311 2.22451456,6.67354369 L2.22451456,6.67354369 L4.49635922,9.33980583 C4.74878641,9.62378641 5.17475728,9.65533981 5.45873786,9.41868932 L5.45873786,9.41868932 L5.47451456,9.40291262 L10.7281553,4.60679612 C11.0121359,4.35436893 11.0279126,3.92839806 10.7754854,3.64441748 Z" id="Shape" fill="#DB167A"></path>
                    </g>
                    <g id="Group-5" transform="translate(0.000000, 18.000000)">
                        <path d="M22.48,10 C23.76,10 24.798,9.628 25.594,8.884 C26.39,8.14 26.788,7.188 26.788,6.028 C26.788,4.852 26.392,3.9 25.6,3.172 C24.808,2.444 23.768,2.08 22.48,2.08 L22.48,2.08 L19.996,2.08 L19.996,10 L22.48,10 Z M22.468,8.86 L21.268,8.86 L21.268,3.232 L22.468,3.232 C23.388,3.232 24.12,3.486 24.664,3.994 C25.208,4.502 25.48,5.18 25.48,6.028 C25.48,6.868 25.206,7.55 24.658,8.074 C24.11,8.598 23.38,8.86 22.468,8.86 L22.468,8.86 Z M33.652,10 L33.652,8.86 L29.572,8.86 L29.572,6.352 L32.536,6.352 L32.536,5.248 L29.572,5.248 L29.572,3.22 L33.508,3.22 L33.508,2.08 L28.3,2.08 L28.3,10 L33.652,10 Z M37.552,10.132 C38.32,10.132 38.954,9.92 39.454,9.496 C39.954,9.072 40.204,8.52 40.204,7.84 C40.204,7.328 40.054,6.9 39.754,6.556 C39.454,6.212 38.972,5.888 38.308,5.584 L38.308,5.584 L37.42,5.176 C37.396,5.16 37.36,5.14 37.312,5.116 C37.048,4.98 36.892,4.9 36.844,4.876 C36.796,4.852 36.712,4.79 36.592,4.69 C36.472,4.59 36.398,4.494 36.37,4.402 C36.342,4.31 36.324,4.192 36.316,4.048 C36.316,3.744 36.428,3.508 36.652,3.34 C36.876,3.172 37.164,3.088 37.516,3.088 C38.196,3.088 38.752,3.408 39.184,4.048 L39.184,4.048 L40.072,3.364 C39.824,2.932 39.474,2.588 39.022,2.332 C38.57,2.076 38.068,1.948 37.516,1.948 C36.812,1.948 36.22,2.148 35.74,2.548 C35.26,2.948 35.02,3.464 35.02,4.096 C35.02,4.6 35.174,5.022 35.482,5.362 C35.79,5.702 36.252,6.012 36.868,6.292 L36.868,6.292 L37.744,6.7 C38.184,6.908 38.488,7.09 38.656,7.246 C38.824,7.402 38.908,7.616 38.908,7.888 C38.908,8.224 38.782,8.492 38.53,8.692 C38.278,8.892 37.948,8.992 37.54,8.992 C36.732,8.992 36.04,8.572 35.464,7.732 L35.464,7.732 L34.564,8.416 C34.876,8.952 35.292,9.372 35.812,9.676 C36.332,9.98 36.912,10.132 37.552,10.132 Z M43.108,10 L43.108,6.94 L44.728,6.94 C45.52,6.94 46.166,6.712 46.666,6.256 C47.166,5.8 47.416,5.216 47.416,4.504 C47.416,3.792 47.168,3.21 46.672,2.758 C46.176,2.306 45.528,2.08 44.728,2.08 L44.728,2.08 L41.836,2.08 L41.836,10 L43.108,10 Z M44.704,5.812 L43.108,5.812 L43.108,3.208 L44.704,3.208 C45.144,3.208 45.488,3.326 45.736,3.562 C45.984,3.798 46.108,4.116 46.108,4.516 C46.108,4.916 45.984,5.232 45.736,5.464 C45.488,5.696 45.144,5.812 44.704,5.812 L44.704,5.812 Z M49.456,10 L50.02,8.68 L53.584,8.68 L54.148,10 L55.516,10 L52.024,1.948 L51.592,1.948 L48.1,10 L49.456,10 Z M53.128,7.588 L50.476,7.588 L51.808,4.312 L53.128,7.588 Z M60.46,10.132 C61.188,10.132 61.85,9.97 62.446,9.646 C63.042,9.322 63.512,8.876 63.856,8.308 L63.856,8.308 L62.896,7.6 C62.312,8.512 61.504,8.968 60.472,8.968 C59.656,8.968 58.976,8.69 58.432,8.134 C57.888,7.578 57.616,6.88 57.616,6.04 C57.616,5.2 57.888,4.502 58.432,3.946 C58.976,3.39 59.656,3.112 60.472,3.112 C61.504,3.112 62.312,3.568 62.896,4.48 L62.896,4.48 L63.856,3.772 C63.512,3.212 63.04,2.768 62.44,2.44 C61.84,2.112 61.18,1.948 60.46,1.948 C59.324,1.932 58.34,2.328 57.508,3.136 C56.676,3.944 56.272,4.912 56.296,6.04 C56.272,7.168 56.676,8.136 57.508,8.944 C58.34,9.752 59.324,10.148 60.46,10.132 Z M66.652,10 L66.652,6.376 L70.636,6.376 L70.636,10 L71.908,10 L71.908,2.08 L70.636,2.08 L70.636,5.236 L66.652,5.236 L66.652,2.08 L65.38,2.08 L65.38,10 L66.652,10 Z M77.584,10.132 C78.712,10.148 79.694,9.752 80.53,8.944 C81.366,8.136 81.772,7.168 81.748,6.04 C81.772,4.912 81.366,3.944 80.53,3.136 C79.694,2.328 78.712,1.932 77.584,1.948 C76.448,1.932 75.468,2.328 74.644,3.136 C73.82,3.944 73.416,4.912 73.432,6.04 C73.408,7.168 73.81,8.136 74.638,8.944 C75.466,9.752 76.448,10.148 77.584,10.132 Z M77.596,8.968 C76.772,8.968 76.092,8.69 75.556,8.134 C75.02,7.578 74.752,6.876 74.752,6.028 C74.752,5.188 75.022,4.492 75.562,3.94 C76.102,3.388 76.78,3.112 77.596,3.112 C78.404,3.112 79.08,3.39 79.624,3.946 C80.168,4.502 80.44,5.196 80.44,6.028 C80.44,6.868 80.168,7.568 79.624,8.128 C79.08,8.688 78.404,8.968 77.596,8.968 Z M90.328,10.132 C91.12,10.132 91.844,9.944 92.5,9.568 C93.156,9.192 93.664,8.684 94.024,8.044 L94.024,8.044 L94.024,5.812 L90.316,5.812 L90.316,6.94 L92.752,6.94 L92.752,7.792 C92.232,8.592 91.444,8.992 90.388,8.992 C89.54,8.992 88.842,8.71 88.294,8.146 C87.746,7.582 87.472,6.876 87.472,6.028 C87.472,5.188 87.738,4.492 88.27,3.94 C88.802,3.388 89.484,3.112 90.316,3.112 C91.3,3.112 92.088,3.528 92.68,4.36 L92.68,4.36 L93.604,3.604 C92.812,2.5 91.72,1.948 90.328,1.948 C89.176,1.932 88.186,2.328 87.358,3.136 C86.53,3.944 86.128,4.912 86.152,6.04 C86.136,7.176 86.538,8.146 87.358,8.95 C88.178,9.754 89.168,10.148 90.328,10.132 Z M96.856,10 L96.856,6.94 L98.308,6.94 L100.564,10 L102.016,10 L99.64,6.736 C100.12,6.552 100.494,6.264 100.762,5.872 C101.03,5.48 101.164,5.024 101.164,4.504 C101.164,3.792 100.916,3.21 100.42,2.758 C99.924,2.306 99.276,2.08 98.476,2.08 L98.476,2.08 L95.584,2.08 L95.584,10 L96.856,10 Z M98.452,5.812 L96.856,5.812 L96.856,3.208 L98.452,3.208 C98.884,3.208 99.226,3.328 99.478,3.568 C99.73,3.808 99.856,4.124 99.856,4.516 C99.856,4.908 99.73,5.222 99.478,5.458 C99.226,5.694 98.884,5.812 98.452,5.812 L98.452,5.812 Z M103.78,10 L104.344,8.68 L107.908,8.68 L108.472,10 L109.84,10 L106.348,1.948 L105.916,1.948 L102.424,10 L103.78,10 Z M107.452,7.588 L104.8,7.588 L106.132,4.312 L107.452,7.588 Z M114.232,10 L114.232,3.22 L116.908,3.22 L116.908,2.08 L110.296,2.08 L110.296,3.22 L112.96,3.22 L112.96,10 L114.232,10 Z M119.368,10 L119.368,2.08 L118.096,2.08 L118.096,10 L119.368,10 Z M123.784,10.132 C124.552,10.132 125.186,9.92 125.686,9.496 C126.186,9.072 126.436,8.52 126.436,7.84 C126.436,7.328 126.286,6.9 125.986,6.556 C125.686,6.212 125.204,5.888 124.54,5.584 L124.54,5.584 L123.652,5.176 C123.628,5.16 123.592,5.14 123.544,5.116 C123.28,4.98 123.124,4.9 123.076,4.876 C123.028,4.852 122.944,4.79 122.824,4.69 C122.704,4.59 122.63,4.494 122.602,4.402 C122.574,4.31 122.556,4.192 122.548,4.048 C122.548,3.744 122.66,3.508 122.884,3.34 C123.108,3.172 123.396,3.088 123.748,3.088 C124.428,3.088 124.984,3.408 125.416,4.048 L125.416,4.048 L126.304,3.364 C126.056,2.932 125.706,2.588 125.254,2.332 C124.802,2.076 124.3,1.948 123.748,1.948 C123.044,1.948 122.452,2.148 121.972,2.548 C121.492,2.948 121.252,3.464 121.252,4.096 C121.252,4.6 121.406,5.022 121.714,5.362 C122.022,5.702 122.484,6.012 123.1,6.292 L123.1,6.292 L123.976,6.7 C124.416,6.908 124.72,7.09 124.888,7.246 C125.056,7.402 125.14,7.616 125.14,7.888 C125.14,8.224 125.014,8.492 124.762,8.692 C124.51,8.892 124.18,8.992 123.772,8.992 C122.964,8.992 122.272,8.572 121.696,7.732 L121.696,7.732 L120.796,8.416 C121.108,8.952 121.524,9.372 122.044,9.676 C122.564,9.98 123.144,10.132 123.784,10.132 Z" id="DESPACHOGRATIS" fill="#4F008C"></path>
                        <path d="M6.5,0 C8.29854369,0 9.92354369,0.725728155 11.0910194,1.90898058 C12.2742718,3.09223301 13,4.71723301 13,6.5157767 C13,8.31432039 12.2742718,9.93932039 11.0910194,11.1067961 C9.90776699,12.2742718 8.29854369,13 6.5,13 C4.70145631,13 3.07645631,12.2742718 1.89320388,11.0910194 C0.709951456,9.90776699 0,8.29854369 0,6.5 C0,4.70145631 0.725728155,3.07645631 1.90898058,1.89320388 C3.07645631,0.725728155 4.70145631,0 6.5,0 Z M10.7754854,3.64441748 C10.5230583,3.36043689 10.0970874,3.34466019 9.8131068,3.59708738 L9.8131068,3.59708738 L5.08009709,7.91990291 L3.2657767,5.79004854 C3.02912621,5.50606796 2.58737864,5.45873786 2.30339806,5.71116505 C2.00364078,5.96359223 1.97208738,6.38956311 2.22451456,6.67354369 L2.22451456,6.67354369 L4.49635922,9.33980583 C4.74878641,9.62378641 5.17475728,9.65533981 5.45873786,9.41868932 L5.45873786,9.41868932 L5.47451456,9.40291262 L10.7281553,4.60679612 C11.0121359,4.35436893 11.0279126,3.92839806 10.7754854,3.64441748 Z" id="Shape" fill="#DB167A"></path>
                    </g>
                    <g id="Group-6" transform="translate(0.000000, 36.000000)">
                        <path d="M20.62,10 L21.184,8.68 L24.748,8.68 L25.312,10 L26.68,10 L23.188,1.948 L22.756,1.948 L19.264,10 L20.62,10 Z M24.292,7.588 L21.64,7.588 L22.972,4.312 L24.292,7.588 Z M31.624,10.132 C32.352,10.132 33.014,9.97 33.61,9.646 C34.206,9.322 34.676,8.876 35.02,8.308 L35.02,8.308 L34.06,7.6 C33.476,8.512 32.668,8.968 31.636,8.968 C30.82,8.968 30.14,8.69 29.596,8.134 C29.052,7.578 28.78,6.88 28.78,6.04 C28.78,5.2 29.052,4.502 29.596,3.946 C30.14,3.39 30.82,3.112 31.636,3.112 C32.668,3.112 33.476,3.568 34.06,4.48 L34.06,4.48 L35.02,3.772 C34.676,3.212 34.204,2.768 33.604,2.44 C33.004,2.112 32.344,1.948 31.624,1.948 C30.488,1.932 29.504,2.328 28.672,3.136 C27.84,3.944 27.436,4.912 27.46,6.04 C27.436,7.168 27.84,8.136 28.672,8.944 C29.504,9.752 30.488,10.148 31.624,10.132 Z M40.228,10.132 C40.956,10.132 41.618,9.97 42.214,9.646 C42.81,9.322 43.28,8.876 43.624,8.308 L43.624,8.308 L42.664,7.6 C42.08,8.512 41.272,8.968 40.24,8.968 C39.424,8.968 38.744,8.69 38.2,8.134 C37.656,7.578 37.384,6.88 37.384,6.04 C37.384,5.2 37.656,4.502 38.2,3.946 C38.744,3.39 39.424,3.112 40.24,3.112 C41.272,3.112 42.08,3.568 42.664,4.48 L42.664,4.48 L43.624,3.772 C43.28,3.212 42.808,2.768 42.208,2.44 C41.608,2.112 40.948,1.948 40.228,1.948 C39.092,1.932 38.108,2.328 37.276,3.136 C36.444,3.944 36.04,4.912 36.064,6.04 C36.04,7.168 36.444,8.136 37.276,8.944 C38.108,9.752 39.092,10.148 40.228,10.132 Z M50.5,10 L50.5,8.86 L46.42,8.86 L46.42,6.352 L49.384,6.352 L49.384,5.248 L46.42,5.248 L46.42,3.22 L50.356,3.22 L50.356,2.08 L45.148,2.08 L45.148,10 L50.5,10 Z M54.4,10.132 C55.168,10.132 55.802,9.92 56.302,9.496 C56.802,9.072 57.052,8.52 57.052,7.84 C57.052,7.328 56.902,6.9 56.602,6.556 C56.302,6.212 55.82,5.888 55.156,5.584 L55.156,5.584 L54.268,5.176 C54.244,5.16 54.208,5.14 54.16,5.116 C53.896,4.98 53.74,4.9 53.692,4.876 C53.644,4.852 53.56,4.79 53.44,4.69 C53.32,4.59 53.246,4.494 53.218,4.402 C53.19,4.31 53.172,4.192 53.164,4.048 C53.164,3.744 53.276,3.508 53.5,3.34 C53.724,3.172 54.012,3.088 54.364,3.088 C55.044,3.088 55.6,3.408 56.032,4.048 L56.032,4.048 L56.92,3.364 C56.672,2.932 56.322,2.588 55.87,2.332 C55.418,2.076 54.916,1.948 54.364,1.948 C53.66,1.948 53.068,2.148 52.588,2.548 C52.108,2.948 51.868,3.464 51.868,4.096 C51.868,4.6 52.022,5.022 52.33,5.362 C52.638,5.702 53.1,6.012 53.716,6.292 L53.716,6.292 L54.592,6.7 C55.032,6.908 55.336,7.09 55.504,7.246 C55.672,7.402 55.756,7.616 55.756,7.888 C55.756,8.224 55.63,8.492 55.378,8.692 C55.126,8.892 54.796,8.992 54.388,8.992 C53.58,8.992 52.888,8.572 52.312,7.732 L52.312,7.732 L51.412,8.416 C51.724,8.952 52.14,9.372 52.66,9.676 C53.18,9.98 53.76,10.132 54.4,10.132 Z M62.356,10.132 C63.484,10.148 64.466,9.752 65.302,8.944 C66.138,8.136 66.544,7.168 66.52,6.04 C66.544,4.912 66.138,3.944 65.302,3.136 C64.466,2.328 63.484,1.932 62.356,1.948 C61.22,1.932 60.24,2.328 59.416,3.136 C58.592,3.944 58.188,4.912 58.204,6.04 C58.18,7.168 58.582,8.136 59.41,8.944 C60.238,9.752 61.22,10.148 62.356,10.132 Z M62.368,8.968 C61.544,8.968 60.864,8.69 60.328,8.134 C59.792,7.578 59.524,6.876 59.524,6.028 C59.524,5.188 59.794,4.492 60.334,3.94 C60.874,3.388 61.552,3.112 62.368,3.112 C63.176,3.112 63.852,3.39 64.396,3.946 C64.94,4.502 65.212,5.196 65.212,6.028 C65.212,6.868 64.94,7.568 64.396,8.128 C63.852,8.688 63.176,8.968 62.368,8.968 Z M72.028,10 L72.592,8.68 L76.156,8.68 L76.72,10 L78.088,10 L74.596,1.948 L74.164,1.948 L70.672,10 L72.028,10 Z M75.7,7.588 L73.048,7.588 L74.38,4.312 L75.7,7.588 Z M85.84,10 L85.84,3.22 L88.516,3.22 L88.516,2.08 L81.904,2.08 L81.904,3.22 L84.568,3.22 L84.568,10 L85.84,10 Z M93.376,10.132 C94.504,10.148 95.486,9.752 96.322,8.944 C97.158,8.136 97.564,7.168 97.54,6.04 C97.564,4.912 97.158,3.944 96.322,3.136 C95.486,2.328 94.504,1.932 93.376,1.948 C92.24,1.932 91.26,2.328 90.436,3.136 C89.612,3.944 89.208,4.912 89.224,6.04 C89.2,7.168 89.602,8.136 90.43,8.944 C91.258,9.752 92.24,10.148 93.376,10.132 Z M93.388,8.968 C92.564,8.968 91.884,8.69 91.348,8.134 C90.812,7.578 90.544,6.876 90.544,6.028 C90.544,5.188 90.814,4.492 91.354,3.94 C91.894,3.388 92.572,3.112 93.388,3.112 C94.196,3.112 94.872,3.39 95.416,3.946 C95.96,4.502 96.232,5.196 96.232,6.028 C96.232,6.868 95.96,7.568 95.416,8.128 C94.872,8.688 94.196,8.968 93.388,8.968 Z M101.548,10 C102.828,10 103.866,9.628 104.662,8.884 C105.458,8.14 105.856,7.188 105.856,6.028 C105.856,4.852 105.46,3.9 104.668,3.172 C103.876,2.444 102.836,2.08 101.548,2.08 L101.548,2.08 L99.064,2.08 L99.064,10 L101.548,10 Z M101.536,8.86 L100.336,8.86 L100.336,3.232 L101.536,3.232 C102.456,3.232 103.188,3.486 103.732,3.994 C104.276,4.502 104.548,5.18 104.548,6.028 C104.548,6.868 104.274,7.55 103.726,8.074 C103.178,8.598 102.448,8.86 101.536,8.86 L101.536,8.86 Z M107.992,10 L108.556,8.68 L112.12,8.68 L112.684,10 L114.052,10 L110.56,1.948 L110.128,1.948 L106.636,10 L107.992,10 Z M111.664,7.588 L109.012,7.588 L110.344,4.312 L111.664,7.588 Z M117.736,10.132 C118.504,10.132 119.138,9.92 119.638,9.496 C120.138,9.072 120.388,8.52 120.388,7.84 C120.388,7.328 120.238,6.9 119.938,6.556 C119.638,6.212 119.156,5.888 118.492,5.584 L118.492,5.584 L117.604,5.176 C117.58,5.16 117.544,5.14 117.496,5.116 C117.232,4.98 117.076,4.9 117.028,4.876 C116.98,4.852 116.896,4.79 116.776,4.69 C116.656,4.59 116.582,4.494 116.554,4.402 C116.526,4.31 116.508,4.192 116.5,4.048 C116.5,3.744 116.612,3.508 116.836,3.34 C117.06,3.172 117.348,3.088 117.7,3.088 C118.38,3.088 118.936,3.408 119.368,4.048 L119.368,4.048 L120.256,3.364 C120.008,2.932 119.658,2.588 119.206,2.332 C118.754,2.076 118.252,1.948 117.7,1.948 C116.996,1.948 116.404,2.148 115.924,2.548 C115.444,2.948 115.204,3.464 115.204,4.096 C115.204,4.6 115.358,5.022 115.666,5.362 C115.974,5.702 116.436,6.012 117.052,6.292 L117.052,6.292 L117.928,6.7 C118.368,6.908 118.672,7.09 118.84,7.246 C119.008,7.402 119.092,7.616 119.092,7.888 C119.092,8.224 118.966,8.492 118.714,8.692 C118.462,8.892 118.132,8.992 117.724,8.992 C116.916,8.992 116.224,8.572 115.648,7.732 L115.648,7.732 L114.748,8.416 C115.06,8.952 115.476,9.372 115.996,9.676 C116.516,9.98 117.096,10.132 117.736,10.132 Z M26.524,22.132 L26.524,14.08 L25.252,14.08 L25.252,19.42 L20.44,13.948 L19.996,13.948 L19.996,22 L21.268,22 L21.268,16.636 L26.092,22.132 L26.524,22.132 Z M31.708,22.132 C32.66,22.132 33.438,21.832 34.042,21.232 C34.646,20.632 34.948,19.82 34.948,18.796 L34.948,18.796 L34.948,14.08 L33.676,14.08 L33.676,18.88 C33.676,19.536 33.496,20.048 33.136,20.416 C32.776,20.784 32.3,20.968 31.708,20.968 C31.108,20.968 30.626,20.784 30.262,20.416 C29.898,20.048 29.716,19.536 29.716,18.88 L29.716,18.88 L29.716,14.08 L28.444,14.08 L28.444,18.796 C28.444,19.82 28.746,20.632 29.35,21.232 C29.954,21.832 30.74,22.132 31.708,22.132 Z M42.208,22 L42.208,20.86 L38.128,20.86 L38.128,18.352 L41.092,18.352 L41.092,17.248 L38.128,17.248 L38.128,15.22 L42.064,15.22 L42.064,14.08 L36.856,14.08 L36.856,22 L42.208,22 Z M46.108,22.132 C46.876,22.132 47.51,21.92 48.01,21.496 C48.51,21.072 48.76,20.52 48.76,19.84 C48.76,19.328 48.61,18.9 48.31,18.556 C48.01,18.212 47.528,17.888 46.864,17.584 L46.864,17.584 L45.976,17.176 C45.952,17.16 45.916,17.14 45.868,17.116 C45.604,16.98 45.448,16.9 45.4,16.876 C45.352,16.852 45.268,16.79 45.148,16.69 C45.028,16.59 44.954,16.494 44.926,16.402 C44.898,16.31 44.88,16.192 44.872,16.048 C44.872,15.744 44.984,15.508 45.208,15.34 C45.432,15.172 45.72,15.088 46.072,15.088 C46.752,15.088 47.308,15.408 47.74,16.048 L47.74,16.048 L48.628,15.364 C48.38,14.932 48.03,14.588 47.578,14.332 C47.126,14.076 46.624,13.948 46.072,13.948 C45.368,13.948 44.776,14.148 44.296,14.548 C43.816,14.948 43.576,15.464 43.576,16.096 C43.576,16.6 43.73,17.022 44.038,17.362 C44.346,17.702 44.808,18.012 45.424,18.292 L45.424,18.292 L46.3,18.7 C46.74,18.908 47.044,19.09 47.212,19.246 C47.38,19.402 47.464,19.616 47.464,19.888 C47.464,20.224 47.338,20.492 47.086,20.692 C46.834,20.892 46.504,20.992 46.096,20.992 C45.288,20.992 44.596,20.572 44.02,19.732 L44.02,19.732 L43.12,20.416 C43.432,20.952 43.848,21.372 44.368,21.676 C44.888,21.98 45.468,22.132 46.108,22.132 Z M53.524,22 L53.524,15.22 L56.2,15.22 L56.2,14.08 L49.588,14.08 L49.588,15.22 L52.252,15.22 L52.252,22 L53.524,22 Z M58.66,22 L58.66,18.94 L60.112,18.94 L62.368,22 L63.82,22 L61.444,18.736 C61.924,18.552 62.298,18.264 62.566,17.872 C62.834,17.48 62.968,17.024 62.968,16.504 C62.968,15.792 62.72,15.21 62.224,14.758 C61.728,14.306 61.08,14.08 60.28,14.08 L60.28,14.08 L57.388,14.08 L57.388,22 L58.66,22 Z M60.256,17.812 L58.66,17.812 L58.66,15.208 L60.256,15.208 C60.688,15.208 61.03,15.328 61.282,15.568 C61.534,15.808 61.66,16.124 61.66,16.516 C61.66,16.908 61.534,17.222 61.282,17.458 C61.03,17.694 60.688,17.812 60.256,17.812 L60.256,17.812 Z M65.584,22 L66.148,20.68 L69.712,20.68 L70.276,22 L71.644,22 L68.152,13.948 L67.72,13.948 L64.228,22 L65.584,22 Z M69.256,19.588 L66.604,19.588 L67.936,16.312 L69.256,19.588 Z M75.328,22.132 C76.096,22.132 76.73,21.92 77.23,21.496 C77.73,21.072 77.98,20.52 77.98,19.84 C77.98,19.328 77.83,18.9 77.53,18.556 C77.23,18.212 76.748,17.888 76.084,17.584 L76.084,17.584 L75.196,17.176 C75.172,17.16 75.136,17.14 75.088,17.116 C74.824,16.98 74.668,16.9 74.62,16.876 C74.572,16.852 74.488,16.79 74.368,16.69 C74.248,16.59 74.174,16.494 74.146,16.402 C74.118,16.31 74.1,16.192 74.092,16.048 C74.092,15.744 74.204,15.508 74.428,15.34 C74.652,15.172 74.94,15.088 75.292,15.088 C75.972,15.088 76.528,15.408 76.96,16.048 L76.96,16.048 L77.848,15.364 C77.6,14.932 77.25,14.588 76.798,14.332 C76.346,14.076 75.844,13.948 75.292,13.948 C74.588,13.948 73.996,14.148 73.516,14.548 C73.036,14.948 72.796,15.464 72.796,16.096 C72.796,16.6 72.95,17.022 73.258,17.362 C73.566,17.702 74.028,18.012 74.644,18.292 L74.644,18.292 L75.52,18.7 C75.96,18.908 76.264,19.09 76.432,19.246 C76.6,19.402 76.684,19.616 76.684,19.888 C76.684,20.224 76.558,20.492 76.306,20.692 C76.054,20.892 75.724,20.992 75.316,20.992 C74.508,20.992 73.816,20.572 73.24,19.732 L73.24,19.732 L72.34,20.416 C72.652,20.952 73.068,21.372 73.588,21.676 C74.108,21.98 74.688,22.132 75.328,22.132 Z M84.244,22 L84.244,18.94 L85.864,18.94 C86.656,18.94 87.302,18.712 87.802,18.256 C88.302,17.8 88.552,17.216 88.552,16.504 C88.552,15.792 88.304,15.21 87.808,14.758 C87.312,14.306 86.664,14.08 85.864,14.08 L85.864,14.08 L82.972,14.08 L82.972,22 L84.244,22 Z M85.84,17.812 L84.244,17.812 L84.244,15.208 L85.84,15.208 C86.28,15.208 86.624,15.326 86.872,15.562 C87.12,15.798 87.244,16.116 87.244,16.516 C87.244,16.916 87.12,17.232 86.872,17.464 C86.624,17.696 86.28,17.812 85.84,17.812 L85.84,17.812 Z M91.24,22 L91.24,18.94 L92.692,18.94 L94.948,22 L96.4,22 L94.024,18.736 C94.504,18.552 94.878,18.264 95.146,17.872 C95.414,17.48 95.548,17.024 95.548,16.504 C95.548,15.792 95.3,15.21 94.804,14.758 C94.308,14.306 93.66,14.08 92.86,14.08 L92.86,14.08 L89.968,14.08 L89.968,22 L91.24,22 Z M92.836,17.812 L91.24,17.812 L91.24,15.208 L92.836,15.208 C93.268,15.208 93.61,15.328 93.862,15.568 C94.114,15.808 94.24,16.124 94.24,16.516 C94.24,16.908 94.114,17.222 93.862,17.458 C93.61,17.694 93.268,17.812 92.836,17.812 L92.836,17.812 Z M101.212,22.132 C102.34,22.148 103.322,21.752 104.158,20.944 C104.994,20.136 105.4,19.168 105.376,18.04 C105.4,16.912 104.994,15.944 104.158,15.136 C103.322,14.328 102.34,13.932 101.212,13.948 C100.076,13.932 99.096,14.328 98.272,15.136 C97.448,15.944 97.044,16.912 97.06,18.04 C97.036,19.168 97.438,20.136 98.266,20.944 C99.094,21.752 100.076,22.148 101.212,22.132 Z M101.224,20.968 C100.4,20.968 99.72,20.69 99.184,20.134 C98.648,19.578 98.38,18.876 98.38,18.028 C98.38,17.188 98.65,16.492 99.19,15.94 C99.73,15.388 100.408,15.112 101.224,15.112 C102.032,15.112 102.708,15.39 103.252,15.946 C103.796,16.502 104.068,17.196 104.068,18.028 C104.068,18.868 103.796,19.568 103.252,20.128 C102.708,20.688 102.032,20.968 101.224,20.968 Z M108.172,22 L108.172,17.02 L110.452,20.008 L110.884,20.008 L113.152,17.032 L113.152,22 L114.424,22 L114.424,13.948 L113.992,13.948 L110.668,18.376 L107.344,13.948 L106.9,13.948 L106.9,22 L108.172,22 Z M120.088,22.132 C121.216,22.148 122.198,21.752 123.034,20.944 C123.87,20.136 124.276,19.168 124.252,18.04 C124.276,16.912 123.87,15.944 123.034,15.136 C122.198,14.328 121.216,13.932 120.088,13.948 C118.952,13.932 117.972,14.328 117.148,15.136 C116.324,15.944 115.92,16.912 115.936,18.04 C115.912,19.168 116.314,20.136 117.142,20.944 C117.97,21.752 118.952,22.148 120.088,22.132 Z M120.1,20.968 C119.276,20.968 118.596,20.69 118.06,20.134 C117.524,19.578 117.256,18.876 117.256,18.028 C117.256,17.188 117.526,16.492 118.066,15.94 C118.606,15.388 119.284,15.112 120.1,15.112 C120.908,15.112 121.584,15.39 122.128,15.946 C122.672,16.502 122.944,17.196 122.944,18.028 C122.944,18.868 122.672,19.568 122.128,20.128 C121.584,20.688 120.908,20.968 120.1,20.968 Z M128.2,22.132 C128.968,22.132 129.602,21.92 130.102,21.496 C130.602,21.072 130.852,20.52 130.852,19.84 C130.852,19.328 130.702,18.9 130.402,18.556 C130.102,18.212 129.62,17.888 128.956,17.584 L128.956,17.584 L128.068,17.176 C128.044,17.16 128.008,17.14 127.96,17.116 C127.696,16.98 127.54,16.9 127.492,16.876 C127.444,16.852 127.36,16.79 127.24,16.69 C127.12,16.59 127.046,16.494 127.018,16.402 C126.99,16.31 126.972,16.192 126.964,16.048 C126.964,15.744 127.076,15.508 127.3,15.34 C127.524,15.172 127.812,15.088 128.164,15.088 C128.844,15.088 129.4,15.408 129.832,16.048 L129.832,16.048 L130.72,15.364 C130.472,14.932 130.122,14.588 129.67,14.332 C129.218,14.076 128.716,13.948 128.164,13.948 C127.46,13.948 126.868,14.148 126.388,14.548 C125.908,14.948 125.668,15.464 125.668,16.096 C125.668,16.6 125.822,17.022 126.13,17.362 C126.438,17.702 126.9,18.012 127.516,18.292 L127.516,18.292 L128.392,18.7 C128.832,18.908 129.136,19.09 129.304,19.246 C129.472,19.402 129.556,19.616 129.556,19.888 C129.556,20.224 129.43,20.492 129.178,20.692 C128.926,20.892 128.596,20.992 128.188,20.992 C127.38,20.992 126.688,20.572 126.112,19.732 L126.112,19.732 L125.212,20.416 C125.524,20.952 125.94,21.372 126.46,21.676 C126.98,21.98 127.56,22.132 128.2,22.132 Z" id="ACCESOATODASNUESTRASPROMOS" fill="#4F008C"></path>
                        <path d="M6.5,0 C8.29854369,0 9.92354369,0.725728155 11.0910194,1.90898058 C12.2742718,3.09223301 13,4.71723301 13,6.5157767 C13,8.31432039 12.2742718,9.93932039 11.0910194,11.1067961 C9.90776699,12.2742718 8.29854369,13 6.5,13 C4.70145631,13 3.07645631,12.2742718 1.89320388,11.0910194 C0.709951456,9.90776699 0,8.29854369 0,6.5 C0,4.70145631 0.725728155,3.07645631 1.90898058,1.89320388 C3.07645631,0.725728155 4.70145631,0 6.5,0 Z M10.7754854,3.64441748 C10.5230583,3.36043689 10.0970874,3.34466019 9.8131068,3.59708738 L9.8131068,3.59708738 L5.08009709,7.91990291 L3.2657767,5.79004854 C3.02912621,5.50606796 2.58737864,5.45873786 2.30339806,5.71116505 C2.00364078,5.96359223 1.97208738,6.38956311 2.22451456,6.67354369 L2.22451456,6.67354369 L4.49635922,9.33980583 C4.74878641,9.62378641 5.17475728,9.65533981 5.45873786,9.41868932 L5.45873786,9.41868932 L5.47451456,9.40291262 L10.7281553,4.60679612 C11.0121359,4.35436893 11.0279126,3.92839806 10.7754854,3.64441748 Z" id="Shape" fill="#DB167A"></path>
                    </g>
                </g>
                <line x1="4.33680869e-16" y1="221.5" x2="200" y2="221.5" id="Line-4" stroke="#E8E8E8" stroke-linecap="square"></line>
            </g>
        </g>
    </g>
</svg>