<svg width="202" height="285" xmlns="http://www.w3.org/2000/svg"><g fill="none" fill-rule="evenodd"><path d="M26.728 15V9.434L31.7.48h-4.158l-2.706 5.06L22.13.48h-4.18l4.994 8.998V15h3.784zm9.16 0l.528-1.21h5.214l.528 1.21h4.07L39.628.216h-1.21L31.818 15h4.07zm4.4-4.246h-2.53l1.276-3.366 1.254 3.366zM66.924 15v-3.41h-6.556V9.06h4.488V5.892h-4.488V3.89h6.292V.48H56.584V15h10.34zm8.038 0v-4.51h1.562L79.802 15h4.224l-3.828-5.39c1.525-.939 2.288-2.317 2.288-4.136 0-1.496-.528-2.702-1.584-3.619C79.846.938 78.504.48 76.876.48h-5.698V15h3.784zm1.936-7.81h-1.936V3.78h1.936c.528 0 .95.154 1.265.462.315.308.473.719.473 1.232s-.158.928-.473 1.243c-.315.315-.737.473-1.265.473zM97.762 15v-3.41h-6.556V9.06h4.488V5.892h-4.488V3.89h6.292V.48H87.422V15h10.34zm9.094.264c1.54 0 2.812-.41 3.817-1.232 1.005-.821 1.507-1.921 1.507-3.3 0-1.012-.297-1.859-.891-2.541-.594-.682-1.536-1.294-2.827-1.837l-1.672-.704c-.47-.19-.796-.37-.979-.539a.842.842 0 01-.275-.649c0-.616.433-.924 1.298-.924.499 0 .931.121 1.298.363s.733.634 1.1 1.177l2.53-1.936c-.968-1.95-2.625-2.926-4.972-2.926-1.496 0-2.717.396-3.663 1.188-.946.792-1.419 1.826-1.419 3.102 0 1.833 1.225 3.293 3.674 4.378l1.496.66c.601.264.997.477 1.188.638.19.161.286.396.286.704 0 .704-.499 1.056-1.496 1.056-.69 0-1.283-.158-1.782-.473-.499-.315-.983-.781-1.452-1.397l-2.552 1.936a5.773 5.773 0 002.321 2.387c1.02.58 2.174.869 3.465.869zm22.346 0l3.718-7.59 3.696 7.59h1.21L143.81.48h-4.224l-2.728 6.974-3.344-7.238h-1.21l-3.344 7.238L126.232.48h-4.224l5.984 14.784h1.21zm24.846 0c2.127.03 3.978-.697 5.555-2.178 1.577-1.481 2.343-3.263 2.299-5.346.044-2.068-.722-3.85-2.299-5.346S156.175.172 154.048.216h-.317c-1.993.03-3.732.757-5.216 2.178-1.562 1.496-2.321 3.278-2.277 5.346v.31c.034 1.95.79 3.629 2.266 5.036 1.555 1.481 3.403 2.207 5.544 2.178zm.022-3.476c-1.173 0-2.127-.367-2.86-1.1-.733-.763-1.1-1.745-1.1-2.948 0-1.203.367-2.178 1.1-2.926.733-.748 1.687-1.122 2.86-1.122 1.13 0 2.072.378 2.827 1.133.755.755 1.133 1.727 1.133 2.915 0 1.203-.374 2.178-1.122 2.926-.748.748-1.694 1.122-2.838 1.122zM169.742 15V8.928l2.992 3.498h1.21l3.014-3.52V15h3.784V.216h-1.21l-6.182 7.546-6.182-7.546h-1.21V15h3.784z" fill="#DB167A" fill-rule="nonzero"/><path d="M56.685 33v-5.126h2.486c1.525 0 2.78-.44 3.762-1.32.983-.88 1.474-2.01 1.474-3.388 0-1.393-.491-2.523-1.474-3.388-.983-.865-2.237-1.298-3.762-1.298h-5.456V33h2.97zm2.486-7.722h-2.486v-4.18h2.486c.66 0 1.192.19 1.595.572.403.381.605.88.605 1.496 0 .63-.194 1.14-.583 1.529-.389.389-.928.583-1.617.583zM69.753 33v-5.126h2.178L75.693 33h3.344l-4.114-5.698c.807-.396 1.434-.957 1.881-1.683.447-.726.671-1.544.671-2.453 0-1.393-.491-2.523-1.474-3.388-.983-.865-2.237-1.298-3.762-1.298h-5.456V33h2.97zm2.486-7.744h-2.486v-4.158h2.486c.66 0 1.192.19 1.595.572.403.381.605.88.605 1.496 0 .63-.194 1.137-.583 1.518-.389.381-.928.572-1.617.572zM90.895 33v-2.684h-7.062v-3.674h4.994v-2.53h-4.994v-2.948h6.798V18.48h-9.768V33h10.032zm5.544 0v-5.126h2.486c1.525 0 2.78-.44 3.762-1.32.983-.88 1.474-2.01 1.474-3.388 0-1.393-.491-2.523-1.474-3.388-.983-.865-2.237-1.298-3.762-1.298h-5.456V33h2.97zm2.486-7.722h-2.486v-4.18h2.486c.66 0 1.192.19 1.595.572.403.381.605.88.605 1.496 0 .63-.194 1.14-.583 1.529-.389.389-.928.583-1.617.583zM108.341 33l.814-1.892h5.94l.814 1.892h3.19l-6.468-14.784h-.99L105.151 33h3.19zm5.72-4.334h-3.872l1.936-4.906 1.936 4.906zm13.948 4.598c1.525 0 2.89-.36 4.092-1.078 1.217-.719 2.163-1.672 2.838-2.86v-4.29h-6.974v2.574h4.004v1.188c-.865 1.203-2.141 1.804-3.828 1.804-1.437 0-2.603-.455-3.498-1.364-.895-.91-1.342-2.075-1.342-3.498 0-1.393.433-2.537 1.298-3.432s1.987-1.342 3.366-1.342c1.672 0 3.021.711 4.048 2.134l2.112-1.738c-1.481-2.097-3.52-3.146-6.116-3.146-2.156-.03-4 .697-5.533 2.178-1.533 1.481-2.277 3.263-2.233 5.346-.03 2.083.726 3.868 2.266 5.357 1.54 1.489 3.373 2.211 5.5 2.167zm16.697 0c1.96-.035 3.672-.76 5.138-2.178 1.547-1.496 2.306-3.278 2.277-5.346.03-2.068-.73-3.85-2.277-5.346-1.547-1.496-3.37-2.222-5.467-2.178h-.312c-1.966.03-3.677.757-5.133 2.178-1.533 1.496-2.284 3.278-2.255 5.346-.03 2.068.722 3.85 2.255 5.346s3.348 2.222 5.445 2.178h.329zm-.307-2.75c-1.35 0-2.464-.447-3.344-1.342-.88-.895-1.32-2.039-1.32-3.432 0-1.393.44-2.537 1.32-3.432.88-.895 1.995-1.342 3.344-1.342 1.335 0 2.446.451 3.333 1.353.887.902 1.331 2.042 1.331 3.421 0 1.393-.444 2.537-1.331 3.432s-1.998 1.342-3.333 1.342z" fill="#4F008C" fill-rule="nonzero"/><path stroke="#DB167A" stroke-width="2" stroke-linecap="square" d="M160.5 26.5h40M2.5 26.5h40"/><path d="M25.615 51v-8.475h3.345V41.1h-8.265v1.425h3.33V51h1.59zm11.52 0v-1.425h-5.1V46.44h3.705v-1.38h-3.705v-2.535h4.92V41.1h-6.51V51h6.69zm7.635 0v-3.825h1.815L49.405 51h1.815l-2.97-4.08c.6-.23 1.068-.59 1.403-1.08.334-.49.502-1.06.502-1.71 0-.89-.31-1.617-.93-2.183-.62-.565-1.43-.847-2.43-.847H43.18V51h1.59zm1.995-5.235H44.77V42.51h1.995c.54 0 .968.15 1.282.45.316.3.473.695.473 1.185 0 .49-.158.883-.473 1.177-.314.295-.742.443-1.282.443zM59.335 51v-1.425h-5.1V46.44h3.705v-1.38h-3.705v-2.535h4.92V41.1h-6.51V51h6.69zm6.465.165c.99 0 1.895-.235 2.715-.705a4.98 4.98 0 001.905-1.905v-2.79h-4.635v1.41h3.045v1.065c-.65 1-1.635 1.5-2.955 1.5-1.06 0-1.932-.352-2.617-1.058-.686-.705-1.028-1.587-1.028-2.647 0-1.05.333-1.92.998-2.61.664-.69 1.517-1.035 2.557-1.035 1.23 0 2.215.52 2.955 1.56l1.155-.945c-.99-1.38-2.355-2.07-4.095-2.07-1.44-.02-2.677.475-3.712 1.485-1.035 1.01-1.538 2.22-1.508 3.63-.02 1.42.483 2.633 1.508 3.638 1.024 1.005 2.262 1.497 3.712 1.477zM73.15 51l.705-1.65h4.455l.705 1.65h1.71L76.36 40.935h-.54L71.455 51h1.695zm4.59-3.015h-3.315l1.665-4.095 1.65 4.095zM88.42 51v-1.425h-4.53V41.1H82.3V51h6.12zm2.385 0l.705-1.65h4.455L96.67 51h1.71l-4.365-10.065h-.54L89.11 51h1.695zm4.59-3.015H92.08l1.665-4.095 1.65 4.095zm6.15 3.015v-6.225l2.85 3.735h.54l2.835-3.72V51h1.59V40.935h-.54l-4.155 5.535-4.155-5.535h-.555V51h1.59zm14.895.165c1.41.02 2.638-.475 3.683-1.485 1.044-1.01 1.552-2.22 1.522-3.63.03-1.41-.477-2.62-1.522-3.63-1.046-1.01-2.273-1.505-3.683-1.485-1.42-.02-2.645.475-3.675 1.485-1.03 1.01-1.535 2.22-1.515 3.63-.03 1.41.472 2.62 1.507 3.63 1.035 1.01 2.263 1.505 3.683 1.485zm.015-1.455c-1.03 0-1.88-.348-2.55-1.043-.67-.695-1.005-1.572-1.005-2.632 0-1.05.337-1.92 1.012-2.61s1.523-1.035 2.543-1.035c1.01 0 1.855.347 2.535 1.042.68.695 1.02 1.563 1.02 2.603 0 1.05-.34 1.925-1.02 2.625-.68.7-1.525 1.05-2.535 1.05zm10.125 1.455c.96 0 1.752-.265 2.377-.795.626-.53.938-1.22.938-2.07 0-.64-.188-1.175-.563-1.605-.375-.43-.977-.835-1.807-1.215l-1.11-.51a1.334 1.334 0 00-.135-.075l-.585-.3a2.092 2.092 0 01-.315-.233c-.15-.125-.243-.245-.278-.36a1.922 1.922 0 01-.067-.442c0-.38.14-.675.42-.885.28-.21.64-.315 1.08-.315.85 0 1.545.4 2.085 1.2l1.11-.855c-.31-.54-.748-.97-1.313-1.29a3.753 3.753 0 00-1.882-.48c-.88 0-1.62.25-2.22.75-.6.5-.9 1.145-.9 1.935 0 .63.192 1.158.577 1.583.385.424.963.812 1.733 1.162l1.095.51c.55.26.93.487 1.14.682.21.195.315.463.315.803 0 .42-.158.755-.473 1.005-.315.25-.727.375-1.237.375-1.01 0-1.875-.525-2.595-1.575l-1.125.855a4.23 4.23 0 003.735 2.145zM137.725 51v-4.53h4.98V51h1.59v-9.9h-1.59v3.945h-4.98V41.1h-1.59V51h1.59zm9.855 0l.705-1.65h4.455l.705 1.65h1.71l-4.365-10.065h-.54L145.885 51h1.695zm4.59-3.015h-3.315l1.665-4.095 1.65 4.095zm7.59 3.18c.96 0 1.752-.265 2.377-.795.625-.53.938-1.22.938-2.07 0-.64-.188-1.175-.563-1.605-.375-.43-.977-.835-1.807-1.215l-1.11-.51a1.334 1.334 0 00-.135-.075l-.585-.3a2.092 2.092 0 01-.315-.233c-.15-.125-.243-.245-.278-.36a1.922 1.922 0 01-.067-.442c0-.38.14-.675.42-.885.28-.21.64-.315 1.08-.315.85 0 1.545.4 2.085 1.2l1.11-.855c-.31-.54-.748-.97-1.313-1.29a3.753 3.753 0 00-1.882-.48c-.88 0-1.62.25-2.22.75-.6.5-.9 1.145-.9 1.935 0 .63.192 1.158.578 1.583.385.424.962.812 1.732 1.162l1.095.51c.55.26.93.487 1.14.682.21.195.315.463.315.803 0 .42-.157.755-.473 1.005-.315.25-.727.375-1.237.375-1.01 0-1.875-.525-2.595-1.575l-1.125.855a4.23 4.23 0 003.735 2.145zm9.27-.165v-8.475h3.345V41.1h-8.265v1.425h3.33V51h1.59zm5.61 0l.705-1.65h4.455l.705 1.65h1.71l-4.365-10.065h-.54L172.945 51h1.695zm4.59-3.015h-3.315l1.665-4.095 1.65 4.095z" fill="#4F008C" fill-rule="nonzero"/><path d="M196 61H6a6 6 0 00-6 6v100a6 6 0 006 6h190a6 6 0 006-6V67a6 6 0 00-6-6zm0 1a5 5 0 015 5v100a5 5 0 01-5 5H6a5 5 0 01-5-5V67a5 5 0 015-5h190z" fill="#E12479" fill-rule="nonzero"/><path d="M47.49 137.24c1.452 0 2.676-.443 3.67-1.33.992-.887 1.49-1.99 1.49-3.31 0-.933-.26-1.753-.78-2.46a4.437 4.437 0 00-2.04-1.54l2.62-3.9v-.9h-8.9v3.1h3.76l-2.34 3.48v.88h1.88c1.52 0 2.28.453 2.28 1.36 0 .453-.164.81-.49 1.07-.328.26-.758.39-1.29.39-.508 0-.95-.13-1.33-.39-.38-.26-.77-.69-1.17-1.29l-2.38 1.68c.452.987 1.12 1.76 2 2.32.88.56 1.886.84 3.02.84zm11.02 0c1.734 0 3.08-.647 4.04-1.94s1.44-2.96 1.44-5c0-2.013-.476-3.64-1.43-4.88-.952-1.24-2.302-1.86-4.05-1.86-1.746 0-3.096.62-4.05 1.86-.952 1.24-1.43 2.867-1.43 4.88 0 2.04.48 3.707 1.44 5 .96 1.293 2.308 1.94 4.04 1.94zm0-3.16c-1.306 0-1.96-1.253-1.96-3.76 0-1.24.16-2.15.48-2.73.32-.58.814-.87 1.48-.87.668 0 1.16.29 1.48.87.32.58.48 1.49.48 2.73 0 2.507-.652 3.76-1.96 3.76zm11.543 3.16c1.733 0 3.08-.647 4.04-1.94s1.44-2.96 1.44-5c0-2.013-.477-3.64-1.43-4.88-.954-1.24-2.304-1.86-4.05-1.86-1.747 0-3.097.62-4.05 1.86-.954 1.24-1.43 2.867-1.43 4.88 0 2.04.48 3.707 1.44 5 .96 1.293 2.306 1.94 4.04 1.94zm0-3.16c-1.307 0-1.96-1.253-1.96-3.76 0-1.24.16-2.15.48-2.73.32-.58.813-.87 1.48-.87.666 0 1.16.29 1.48.87.32.58.48 1.49.48 2.73 0 2.507-.654 3.76-1.96 3.76zM86.475 137v-5.52l2.72 3.18h1.1l2.74-3.2V137h3.44v-13.44h-1.1l-5.62 6.86-5.62-6.86h-1.1V137h3.44zm17.843 0v-13.2h-3.44V137h3.44zm16.104.24V123.8h-3.44v6.6l-7.16-6.84h-1.1V137h3.44v-6.7l7.16 6.94h1.1zm10.163 0c1.68 0 3.074-.543 4.18-1.63 1.107-1.087 1.66-2.49 1.66-4.21v-7.6h-3.44v7.86c0 .747-.22 1.337-.66 1.77-.44.433-1.02.65-1.74.65s-1.3-.217-1.74-.65c-.44-.433-.66-1.023-.66-1.77v-7.86h-3.44v7.6c0 1.747.547 3.157 1.64 4.23 1.094 1.073 2.494 1.61 4.2 1.61zm16.444-.24v-10.1h3.96v-3.1h-11.36v3.1h3.96V137h3.44zm13.464.24c1.933.027 3.616-.633 5.05-1.98 1.433-1.347 2.13-2.967 2.09-4.86v-.295c-.036-1.755-.732-3.277-2.09-4.565-1.434-1.36-3.117-2.02-5.05-1.98-1.934-.04-3.61.62-5.03 1.98-1.42 1.36-2.11 2.98-2.07 4.86v.297c.034 1.766.72 3.287 2.06 4.563 1.413 1.347 3.093 2.007 5.04 1.98zm.02-3.16c-1.067 0-1.934-.333-2.6-1-.667-.693-1-1.587-1-2.68 0-1.093.333-1.98 1-2.66.666-.68 1.533-1.02 2.6-1.02 1.026 0 1.883.343 2.57 1.03.686.687 1.03 1.57 1.03 2.65 0 1.093-.34 1.98-1.02 2.66-.68.68-1.54 1.02-2.58 1.02zm15.243 3.16c1.4 0 2.557-.373 3.47-1.12.914-.747 1.37-1.747 1.37-3 0-.92-.27-1.69-.81-2.31-.54-.62-1.396-1.177-2.57-1.67l-1.52-.64c-.426-.173-.723-.337-.89-.49a.766.766 0 01-.25-.59c0-.56.394-.84 1.18-.84.454 0 .847.11 1.18.33.334.22.667.577 1 1.07l2.3-1.76c-.88-1.773-2.386-2.66-4.52-2.66-1.36 0-2.47.36-3.33 1.08-.86.72-1.29 1.66-1.29 2.82 0 1.667 1.114 2.993 3.34 3.98l1.36.6c.547.24.907.433 1.08.58.174.147.26.36.26.64 0 .64-.453.96-1.36.96-.626 0-1.166-.143-1.62-.43-.453-.287-.893-.71-1.32-1.27l-2.32 1.76a5.248 5.248 0 002.11 2.17c.927.527 1.977.79 3.15.79z" fill="#4F008C" fill-rule="nonzero"/><path fill="#DB167A" d="M28.586 132.297V138h-4.108v-5.703H19v-3.656h5.478V123h4.108v5.64H34v3.657z"/><g fill-rule="nonzero"><path d="M31.45 114V74.4h-3.3l-16.2 5.34 2.46 9.12 6.72-2.22V114h10.32zm15.36.72c4.48 0 8.24-1.33 11.28-3.99 3.04-2.66 4.56-6.01 4.56-10.05.08-3.72-1.25-6.8-3.99-9.24-2.74-2.44-5.83-3.62-9.27-3.54-1.12 0-2.38.14-3.78.42V83.7h14.76v-9.3H35.83v22.38h9.42c4.56 0 6.84 1.34 6.84 4.02 0 1.4-.52 2.49-1.56 3.27-1.04.78-2.42 1.17-4.14 1.17-1.64 0-3.05-.39-4.23-1.17-1.18-.78-2.37-2.07-3.57-3.87l-7.14 5.04c1.36 2.96 3.39 5.28 6.09 6.96 2.7 1.68 5.79 2.52 9.27 2.52z" fill="#4F008C"/><path d="M86.391 114.48h.409c2.827 0 5.387-.667 7.68-2 2.293-1.36 4.053-3.133 5.28-5.32v-8.32H86.72v5.92h6.16V106c-1.36 1.573-3.293 2.36-5.8 2.36-2.32 0-4.167-.693-5.54-2.08-1.373-1.387-2.06-3.213-2.06-5.48 0-2.24.647-4.027 1.94-5.36 1.293-1.333 3.047-2 5.26-2 2.72 0 4.947 1.213 6.68 3.64l4.8-4.08c-2.64-3.92-6.427-5.88-11.36-5.88-3.973-.053-7.373 1.267-10.2 3.96-2.827 2.693-4.213 5.933-4.16 9.72v.392c.044 3.645 1.43 6.76 4.16 9.348 2.827 2.68 6.227 3.993 10.2 3.94h-.409zm24.169-.48V87.6h-6.88V114h6.88zm17.871.48h.409c2.827 0 5.387-.667 7.68-2 2.293-1.36 4.053-3.133 5.28-5.32v-8.32h-13.04v5.92h6.16V106c-1.36 1.573-3.293 2.36-5.8 2.36-2.32 0-4.167-.693-5.54-2.08-1.373-1.387-2.06-3.213-2.06-5.48 0-2.24.647-4.027 1.94-5.36 1.293-1.333 3.047-2 5.26-2 2.72 0 4.947 1.213 6.68 3.64l4.8-4.08c-2.64-3.92-6.427-5.88-11.36-5.88-3.973-.053-7.373 1.267-10.2 3.96-2.827 2.693-4.213 5.933-4.16 9.72-.053 3.813 1.333 7.06 4.16 9.74 2.827 2.68 6.227 3.993 10.2 3.94h-.409zm22.129-.48l.96-2.2H161l.96 2.2h7.4l-12-26.88h-2.2l-12 26.88h7.4zm8-7.72h-4.6l2.32-6.12 2.28 6.12zm22.32 8.2c2.8 0 5.113-.747 6.94-2.24 1.827-1.493 2.74-3.493 2.74-6 0-1.84-.54-3.38-1.62-4.62-1.08-1.24-2.793-2.353-5.14-3.34L180.76 97c-.853-.347-1.447-.673-1.78-.98-.333-.307-.5-.7-.5-1.18 0-1.12.787-1.68 2.36-1.68.907 0 1.693.22 2.36.66.667.44 1.333 1.153 2 2.14l4.6-3.52c-1.76-3.547-4.773-5.32-9.04-5.32-2.72 0-4.94.72-6.66 2.16-1.72 1.44-2.58 3.32-2.58 5.64 0 3.333 2.227 5.987 6.68 7.96l2.72 1.2c1.093.48 1.813.867 2.16 1.16.347.293.52.72.52 1.28 0 1.28-.907 1.92-2.72 1.92-1.253 0-2.333-.287-3.24-.86s-1.787-1.42-2.64-2.54l-4.64 3.52c.96 1.84 2.367 3.287 4.22 4.34 1.853 1.053 3.953 1.58 6.3 1.58z" fill="#DB167A"/></g><path d="M49.538 161v-2.945h-5.661v-2.185h3.875v-2.736h-3.876v-1.729h5.434v-2.945h-8.702V161h8.93zm15.149.228V148.46h-3.269v6.27l-6.802-6.498h-1.045V161h3.268v-6.365l6.802 6.593h1.045zm15.494 0c1.381 0 2.543-.421 3.487-1.263.944-.843 1.415-1.891 1.415-3.145 0-.887-.246-1.666-.74-2.337a4.215 4.215 0 00-1.939-1.463l2.49-3.705v-.855h-8.456v2.945h3.572l-2.223 3.306v.836h1.786c1.445 0 2.167.43 2.167 1.292 0 .43-.156.77-.466 1.016-.31.247-.719.371-1.225.371-.482 0-.903-.124-1.264-.37-.361-.248-.731-.656-1.111-1.226l-2.262 1.596c.431.937 1.064 1.672 1.9 2.204.837.532 1.793.798 2.87.798zM99.686 161v-5.244l2.583 3.021h1.045l2.604-3.04V161h3.267v-12.768h-1.044l-5.34 6.517-5.338-6.517h-1.045V161h3.267zm22.938 0v-2.945h-5.662v-2.185h3.876v-2.736h-3.876v-1.729h5.433v-2.945h-8.701V161h8.93zm8.213.228c1.33 0 2.428-.355 3.296-1.064.868-.71 1.302-1.66 1.302-2.85 0-.874-.257-1.605-.77-2.194-.513-.59-1.327-1.118-2.441-1.587l-1.444-.608c-.406-.165-.688-.32-.846-.465a.727.727 0 01-.238-.561c0-.532.374-.798 1.121-.798.431 0 .805.105 1.121.314.317.209.634.547.95 1.016l2.185-1.672c-.835-1.685-2.267-2.527-4.293-2.527-1.292 0-2.347.342-3.164 1.026-.817.684-1.225 1.577-1.225 2.679 0 1.583 1.057 2.844 3.172 3.781l1.293.57c.519.228.86.412 1.025.551.165.14.248.342.248.608 0 .608-.431.912-1.292.912-.596 0-1.109-.136-1.54-.409-.43-.272-.848-.674-1.254-1.206l-2.204 1.672a4.986 4.986 0 002.005 2.061c.88.5 1.878.751 2.993.751zm17.39-.228v-2.945h-5.662v-2.185h3.875v-2.736h-3.875v-1.729h5.434v-2.945h-8.702V161h8.93zm8.213.228c1.33 0 2.428-.355 3.296-1.064.868-.71 1.302-1.66 1.302-2.85 0-.874-.257-1.605-.77-2.194-.513-.59-1.327-1.118-2.441-1.587l-1.445-.608c-.405-.165-.687-.32-.845-.465a.727.727 0 01-.238-.561c0-.532.374-.798 1.121-.798.431 0 .805.105 1.122.314.316.209.633.547.95 1.016l2.185-1.672c-.837-1.685-2.268-2.527-4.294-2.527-1.293 0-2.347.342-3.164 1.026-.817.684-1.225 1.577-1.225 2.679 0 1.583 1.057 2.844 3.173 3.781l1.291.57c.52.228.862.412 1.026.551.165.14.248.342.248.608 0 .608-.431.912-1.292.912-.596 0-1.109-.136-1.54-.409-.43-.272-.848-.674-1.254-1.206l-2.203 1.672a4.986 4.986 0 002.004 2.061c.88.5 1.878.751 2.993.751z" fill="#DB167A" fill-rule="nonzero"/><path d="M8.695 201.525c.785 0 1.445-.237 1.98-.71.535-.473.803-1.076.803-1.81 0-.703-.242-1.262-.726-1.677-.484-.414-1.06-.621-1.727-.621-.257 0-.532.03-.825.088v-1.32h2.86v-1.342H6.77v3.85h1.694c.99 0 1.485.348 1.485 1.045 0 .345-.121.618-.363.82-.242.201-.554.302-.935.302-.645 0-1.184-.334-1.617-1.001L6 199.875c.25.513.61.917 1.083 1.21.473.293 1.01.44 1.612.44zm10.659 0c.763 0 1.445-.18 2.046-.54a3.847 3.847 0 001.419-1.43v-2.144h-3.487v1.287h2.002v.594c-.433.601-1.07.902-1.914.902-.719 0-1.302-.227-1.749-.682-.447-.455-.671-1.038-.671-1.75 0-.696.216-1.268.649-1.715.433-.447.994-.671 1.683-.671.836 0 1.51.356 2.024 1.067l1.056-.87c-.74-1.048-1.76-1.572-3.058-1.572-1.078-.015-2 .348-2.766 1.089-.767.74-1.139 1.632-1.117 2.673-.015 1.041.363 1.934 1.133 2.678.77.745 1.687 1.106 2.75 1.084zm6.237-.132v-7.26h-1.485v7.26h1.485zm5.126.132c.763 0 1.445-.18 2.046-.54a3.847 3.847 0 001.419-1.43v-2.144h-3.487v1.287h2.002v.594c-.433.601-1.07.902-1.914.902-.719 0-1.302-.227-1.749-.682-.447-.455-.671-1.038-.671-1.75 0-.696.216-1.268.649-1.715.433-.447.994-.671 1.683-.671.836 0 1.51.356 2.024 1.067l1.056-.87c-.74-1.048-1.76-1.572-3.058-1.572-1.078-.015-2 .348-2.766 1.089-.767.74-1.139 1.632-1.117 2.673-.015 1.041.363 1.934 1.133 2.678.77.745 1.687 1.106 2.75 1.084zm5.654-.132l.407-.946h2.97l.407.946h1.595L38.516 194h-.495l-3.245 7.392h1.595zm2.86-2.167h-1.936l.968-2.453.968 2.453zm5.808 2.299c.74 0 1.35-.2 1.826-.6.477-.4.715-.925.715-1.578 0-.484-.143-.89-.429-1.216-.286-.326-.74-.628-1.364-.907l-.825-.363c-.323-.147-.545-.277-.666-.39a.583.583 0 01-.181-.446c0-.22.084-.392.253-.517.169-.125.385-.187.649-.187.55 0 1.012.279 1.386.836l1.012-.781a2.633 2.633 0 00-.968-1.007c-.41-.245-.887-.368-1.43-.368-.697 0-1.272.189-1.727.566-.455.378-.682.875-.682 1.49 0 .874.587 1.57 1.76 2.09l.781.353c.367.169.612.31.737.423.125.114.187.274.187.479 0 .25-.092.445-.275.588-.183.143-.436.215-.759.215-.675 0-1.269-.352-1.782-1.056l-1.023.77c.286.499.673.89 1.16 1.177a3.19 3.19 0 001.645.429zm9.9-1.078V198.5h1.87v-1.265h-1.87v-1.936H53.52v1.936h-1.892v1.265h1.892v1.947h1.419zm8.844.946v-7.26h-.495l-2.717.89.352 1.31 1.375-.44v5.5h1.485zm4.499.132c.917 0 1.624-.356 2.123-1.067.499-.711.748-1.628.748-2.75 0-1.115-.246-2.01-.737-2.684-.484-.682-1.195-1.023-2.134-1.023-.939 0-1.654.34-2.145 1.023-.491.675-.737 1.57-.737 2.684 0 1.122.25 2.039.748 2.75.499.711 1.21 1.067 2.134 1.067zm0-1.375c-.902 0-1.353-.81-1.353-2.431 0-1.562.451-2.343 1.353-2.343.895 0 1.342.78 1.342 2.343 0 1.62-.447 2.43-1.342 2.43zm6.985 1.375c.917 0 1.624-.356 2.123-1.067.499-.711.748-1.628.748-2.75 0-1.115-.246-2.01-.737-2.684-.484-.682-1.195-1.023-2.134-1.023-.939 0-1.654.34-2.145 1.023-.491.675-.737 1.57-.737 2.684 0 1.122.25 2.039.748 2.75.499.711 1.21 1.067 2.134 1.067zm0-1.375c-.902 0-1.353-.81-1.353-2.431 0-1.562.451-2.343 1.353-2.343.895 0 1.342.78 1.342 2.343 0 1.62-.447 2.43-1.342 2.43zm8.888 1.243v-3.872l1.826 2.288h.484l1.826-2.288v3.872h1.485V194h-.484l-3.069 3.927L83.154 194h-.484v7.392h1.485zm8.778 0v-7.26h-1.485v7.26h1.485zm7.843.132v-7.392h-1.485v4.334L95.078 194h-.484v7.392h1.485v-4.356l4.202 4.488h.495zm4.675 0c.895 0 1.632-.286 2.211-.858.58-.572.869-1.331.869-2.277v-4.257h-1.485v4.367c0 .52-.145.926-.434 1.215-.29.29-.677.435-1.161.435-.477 0-.862-.145-1.155-.435-.293-.29-.44-.694-.44-1.215v-4.367h-1.485v4.257c0 .946.288 1.705.864 2.277.575.572 1.314.858 2.216.858zm7.81-.132v-5.918h2.332v-1.342h-6.138v1.342h2.321v5.918h1.485zm6.743.132c1.049.022 1.96-.341 2.733-1.09.774-.747 1.154-1.638 1.139-2.672.015-1.034-.365-1.925-1.139-2.673-.773-.748-1.684-1.111-2.733-1.09-1.049-.021-1.956.342-2.723 1.09-.766.748-1.142 1.639-1.127 2.673-.015 1.034.361 1.925 1.127 2.673.767.748 1.674 1.11 2.723 1.089zm.011-1.375c-.675 0-1.232-.224-1.672-.671-.44-.447-.66-1.02-.66-1.716 0-.697.22-1.269.66-1.716.44-.447.997-.671 1.672-.671.667 0 1.223.225 1.666.676.444.451.666 1.022.666 1.71 0 .698-.222 1.27-.665 1.717-.444.447-1 .67-1.667.67zm7.414 1.375c.74 0 1.35-.2 1.826-.6.477-.4.715-.925.715-1.578 0-.484-.143-.89-.429-1.216-.286-.326-.74-.628-1.364-.907l-.825-.363c-.323-.147-.544-.277-.665-.39a.583.583 0 01-.182-.446c0-.22.084-.392.253-.517.169-.125.385-.187.649-.187.55 0 1.012.279 1.386.836l1.012-.781a2.633 2.633 0 00-.968-1.007c-.41-.245-.887-.368-1.43-.368-.697 0-1.272.189-1.727.566-.455.378-.682.875-.682 1.49 0 .874.587 1.57 1.76 2.09l.781.353c.367.169.612.31.737.423.125.114.187.274.187.479 0 .25-.092.445-.275.588-.183.143-.436.215-.759.215-.675 0-1.269-.352-1.782-1.056l-1.023.77c.286.499.673.89 1.16 1.177a3.19 3.19 0 001.645.429zm8.415-.132v-3.872l1.826 2.288h.484l1.826-2.288v3.872h1.485V194h-.484l-3.069 3.927-3.069-3.927h-.484v7.392h1.485zm12.309 0v-1.342h-3.531v-1.837h2.497v-1.265h-2.497v-1.474h3.399v-1.342h-4.884v7.26h5.016zm7.469.132v-7.392h-1.485v4.334L149.924 194h-.484v7.392h1.485v-4.356l4.202 4.488h.495zm3.96 0c.74 0 1.35-.2 1.826-.6.477-.4.715-.925.715-1.578 0-.484-.143-.89-.429-1.216-.286-.326-.74-.628-1.364-.907l-.825-.363c-.323-.147-.544-.277-.666-.39a.583.583 0 01-.181-.446c0-.22.084-.392.253-.517.169-.125.385-.187.649-.187.55 0 1.012.279 1.386.836l1.012-.781a2.633 2.633 0 00-.968-1.007c-.41-.245-.887-.368-1.43-.368-.697 0-1.272.189-1.727.566-.455.378-.682.875-.682 1.49 0 .874.587 1.57 1.76 2.09l.781.353c.367.169.612.31.737.423.125.114.187.274.187.479 0 .25-.092.445-.275.588-.183.143-.436.215-.759.215-.675 0-1.269-.352-1.782-1.056l-1.023.77c.286.499.673.89 1.16 1.177a3.19 3.19 0 001.645.429zm6.864 0c.895 0 1.632-.286 2.211-.858.58-.572.869-1.331.869-2.277v-4.257h-1.485v4.367c0 .52-.145.926-.434 1.215-.29.29-.677.435-1.161.435-.477 0-.862-.145-1.155-.435-.293-.29-.44-.694-.44-1.215v-4.367h-1.485v4.257c0 .946.288 1.705.863 2.277.576.572 1.315.858 2.217.858zm5.588-.132l.407-.946h2.97l.407.946h1.595L174.179 194h-.495l-3.245 7.392h1.595zm2.86-2.167h-1.936l.968-2.453.968 2.453zm8.173 2.167v-1.342h-3.179v-5.918h-1.485v7.26h4.664zm6.116 0v-1.342h-3.531v-1.837h2.497v-1.265h-2.497v-1.474h3.399v-1.342h-4.884v7.26h5.016zm3.586.132c.74 0 1.35-.2 1.826-.6.477-.4.715-.925.715-1.578 0-.484-.143-.89-.429-1.216-.286-.326-.74-.628-1.364-.907l-.825-.363c-.323-.147-.544-.277-.666-.39a.583.583 0 01-.181-.446c0-.22.084-.392.253-.517.169-.125.385-.187.649-.187.55 0 1.012.279 1.386.836l1.012-.781a2.633 2.633 0 00-.968-1.007c-.41-.245-.887-.368-1.43-.368-.697 0-1.272.189-1.727.566-.455.378-.682.875-.682 1.49 0 .874.587 1.57 1.76 2.09l.781.353c.367.169.612.31.737.423.125.114.187.274.187.479 0 .25-.092.445-.275.588-.183.143-.436.215-.759.215-.675 0-1.269-.352-1.782-1.056l-1.023.77c.286.499.673.89 1.16 1.177a3.19 3.19 0 001.645.429z" fill="#4F018C" fill-rule="nonzero"/><path d="M3.079 186v-2.805H4.41L6.478 186h1.331l-2.178-2.992c.44-.169.783-.433 1.029-.792.245-.36.368-.777.368-1.254 0-.653-.227-1.186-.682-1.6-.455-.415-1.049-.622-1.782-.622H1.913V186h1.166zm1.463-3.839H3.079v-2.387h1.463c.396 0 .71.11.94.33.231.22.347.51.347.869 0 .36-.115.647-.346.863-.231.217-.545.325-.941.325zM13.03 186v-1.045H9.29v-2.299h2.717v-1.012H9.29v-1.859h3.608v-1.045H8.124V186h4.906zm1.195 0l.517-1.21h3.267l.517 1.21h1.254l-3.201-7.381h-.396L12.982 186h1.243zm3.366-2.211H15.16l1.221-3.003 1.21 3.003zM24.693 186v-1.045h-3.322v-6.215h-1.166V186h4.488zm1.613 0v-7.26H25.14V186h1.166zm6.321 0v-1.045h-4.048l4.037-5.896v-.319h-5.368v1.045h3.553l-4.026 5.896V186h5.852zm1.085 0l.517-1.21h3.267l.517 1.21h1.254l-3.201-7.381h-.396L32.469 186h1.243zm3.366-2.211h-2.431l1.221-3.003 1.21 3.003zM43.769 186v-7.26h-.407l-2.519.825.286 1.023 1.474-.473V186h1.166zm4.799 0v-2.805h1.331L51.967 186h1.331l-2.178-2.992c.44-.169.783-.433 1.029-.792.245-.36.368-.777.368-1.254 0-.653-.227-1.186-.682-1.6-.455-.415-1.049-.622-1.782-.622h-2.651V186h1.166zm1.463-3.839h-1.463v-2.387h1.463c.396 0 .71.11.94.33.232.22.347.51.347.869 0 .36-.115.647-.346.863-.232.217-.545.325-.941.325zM58.519 186v-1.045h-3.74v-2.299h2.717v-1.012h-2.717v-1.859h3.608v-1.045h-4.774V186h4.906zm3.835.121c.667 0 1.274-.149 1.82-.446a3.354 3.354 0 001.293-1.226l-.88-.649c-.535.836-1.276 1.254-2.222 1.254-.748 0-1.371-.255-1.87-.764-.499-.51-.748-1.15-.748-1.92s.25-1.41.748-1.92c.499-.51 1.122-.764 1.87-.764.946 0 1.687.418 2.222 1.254l.88-.649a3.412 3.412 0 00-1.298-1.221 3.722 3.722 0 00-1.815-.451c-1.041-.015-1.943.348-2.706 1.089-.763.74-1.133 1.628-1.111 2.662-.022 1.034.348 1.921 1.111 2.662.763.74 1.665 1.104 2.706 1.089zm4.242-.121l.517-1.21h3.267l.517 1.21h1.254l-3.201-7.381h-.396L65.353 186h1.243zm3.366-2.211h-2.431l1.221-3.003 1.21 3.003zm3.78 2.211v-2.805h1.331L77.141 186h1.331l-2.178-2.992c.44-.169.783-.433 1.029-.792.245-.36.368-.777.368-1.254 0-.653-.227-1.186-.682-1.6-.455-.415-1.049-.622-1.782-.622h-2.651V186h1.166zm1.463-3.839h-1.463v-2.387h1.463c.396 0 .71.11.94.33.231.22.347.51.347.869 0 .36-.116.647-.347.863-.23.217-.544.325-.94.325zm6.805 3.96c.726 0 1.39-.172 1.991-.517a3.652 3.652 0 001.397-1.397v-2.046h-3.399v1.034h2.233v.781c-.477.733-1.199 1.1-2.167 1.1-.777 0-1.417-.258-1.92-.775-.502-.517-.753-1.165-.753-1.942 0-.77.244-1.408.732-1.914.487-.506 1.112-.759 1.875-.759.902 0 1.624.381 2.167 1.144l.847-.693c-.726-1.012-1.727-1.518-3.003-1.518-1.056-.015-1.964.348-2.723 1.089-.759.74-1.127 1.628-1.105 2.662-.015 1.041.354 1.93 1.105 2.667.752.737 1.66 1.099 2.723 1.084zm4.55-.121l.517-1.21h3.267l.517 1.21h1.254l-3.201-7.381h-.396L85.317 186h1.243zm3.366-2.211h-2.431l1.221-3.003 1.21 3.003zm10.141 2.332c.667 0 1.274-.149 1.82-.446a3.354 3.354 0 001.293-1.226l-.88-.649c-.535.836-1.276 1.254-2.222 1.254-.748 0-1.371-.255-1.87-.764-.499-.51-.748-1.15-.748-1.92s.25-1.41.748-1.92c.499-.51 1.122-.764 1.87-.764.946 0 1.687.418 2.222 1.254l.88-.649a3.412 3.412 0 00-1.298-1.221 3.722 3.722 0 00-1.815-.451c-1.041-.015-1.943.348-2.706 1.089-.763.74-1.133 1.628-1.111 2.662-.022 1.034.348 1.921 1.111 2.662.763.74 1.665 1.104 2.706 1.089zm4.242-.121l.517-1.21h3.267l.517 1.21h1.254l-3.201-7.381h-.396L103.066 186h1.243zm3.366-2.211h-2.431l1.221-3.003 1.21 3.003zm4.891 2.211c1.173 0 2.125-.341 2.855-1.023.73-.682 1.094-1.555 1.094-2.618 0-1.078-.363-1.95-1.089-2.618-.726-.667-1.68-1.001-2.86-1.001h-2.277V186h2.277zm-.011-1.045h-1.1v-5.159h1.1c.843 0 1.514.233 2.013.698.499.466.748 1.088.748 1.865 0 .77-.251 1.395-.754 1.875-.502.48-1.171.721-2.007.721zm5.012 1.045l.517-1.21h3.267l.517 1.21h1.254l-3.201-7.381h-.396L116.324 186h1.243zm3.366-2.211h-2.431l1.221-3.003 1.21 3.003zm5.58 2.211v-4.565l2.09 2.739h.396l2.079-2.728V186h1.166v-7.381h-.396l-3.047 4.059-3.047-4.059h-.407V186h1.166zm11.733 0v-1.045h-3.74v-2.299h2.717v-1.012h-2.717v-1.859h3.608v-1.045h-4.774V186h4.906zm2.845.121c.704 0 1.285-.194 1.743-.583.459-.389.688-.895.688-1.518 0-.47-.137-.862-.412-1.177-.276-.315-.717-.612-1.326-.891l-.814-.374a.978.978 0 00-.099-.055 67.87 67.87 0 00-.429-.22 1.534 1.534 0 01-.231-.17.597.597 0 01-.204-.264 1.41 1.41 0 01-.049-.325c0-.279.103-.495.308-.649.205-.154.47-.231.792-.231.623 0 1.133.293 1.529.88l.814-.627a2.512 2.512 0 00-.963-.946 2.752 2.752 0 00-1.38-.352c-.645 0-1.188.183-1.628.55-.44.367-.66.84-.66 1.419 0 .462.141.849.423 1.16.283.312.706.596 1.271.853l.803.374c.403.19.682.358.836.5.154.144.231.34.231.589a.893.893 0 01-.346.737c-.232.183-.534.275-.908.275-.74 0-1.375-.385-1.903-1.155l-.825.627a3.102 3.102 0 002.739 1.573zm8.187-.121v-2.926l2.508-4.334h-1.287l-1.804 3.157-1.793-3.157h-1.298l2.508 4.334V186h1.166zm7.241 0v-6.215h2.453v-1.045h-6.061v1.045h2.442V186h1.166zm7.718 0v-1.045h-3.74v-2.299h2.717v-1.012h-2.717v-1.859h3.608v-1.045h-4.774V186h4.906zm5.25 0c1.173 0 2.125-.341 2.855-1.023.73-.682 1.094-1.555 1.094-2.618 0-1.078-.363-1.95-1.089-2.618-.726-.667-1.68-1.001-2.86-1.001h-2.277V186h2.277zm-.011-1.045h-1.1v-5.159h1.1c.843 0 1.514.233 2.013.698.499.466.748 1.088.748 1.865 0 .77-.251 1.395-.754 1.875-.502.48-1.171.721-2.007.721zm5.012 1.045l.517-1.21h3.267l.517 1.21h1.254l-3.201-7.381h-.396L173.245 186h1.243zm3.366-2.211h-2.431l1.221-3.003 1.21 3.003zm3.78 2.211v-4.565l2.09 2.739h.396l2.079-2.728V186h1.166v-7.381h-.396l-3.047 4.059-3.047-4.059h-.407V186h1.166zm10.193.121c1.034.015 1.934-.348 2.7-1.089.767-.74 1.139-1.628 1.117-2.662.022-1.034-.35-1.921-1.117-2.662-.766-.74-1.666-1.104-2.7-1.089-1.041-.015-1.94.348-2.695 1.089-.755.74-1.126 1.628-1.111 2.662-.022 1.034.347 1.921 1.106 2.662.758.74 1.659 1.104 2.7 1.089zm.011-1.067c-.755 0-1.379-.255-1.87-.764-.491-.51-.737-1.154-.737-1.931 0-.77.248-1.408.743-1.914s1.116-.759 1.864-.759c.74 0 1.36.255 1.859.764.499.51.748 1.146.748 1.909 0 .77-.25 1.412-.748 1.925-.499.513-1.118.77-1.859.77zm6.695 1.067c.704 0 1.285-.194 1.744-.583.458-.389.687-.895.687-1.518 0-.47-.137-.862-.412-1.177-.275-.315-.717-.612-1.326-.891l-.814-.374a.978.978 0 00-.099-.055 67.87 67.87 0 00-.429-.22 1.534 1.534 0 01-.231-.17.597.597 0 01-.203-.264 1.41 1.41 0 01-.05-.325c0-.279.103-.495.308-.649.205-.154.47-.231.792-.231.623 0 1.133.293 1.529.88l.814-.627a2.512 2.512 0 00-.962-.946 2.752 2.752 0 00-1.381-.352c-.645 0-1.188.183-1.628.55-.44.367-.66.84-.66 1.419 0 .462.141.849.424 1.16.282.312.705.596 1.27.853l.803.374c.403.19.682.358.836.5.154.144.231.34.231.589a.893.893 0 01-.347.737c-.23.183-.533.275-.907.275-.74 0-1.375-.385-1.903-1.155l-.825.627a3.102 3.102 0 002.739 1.573z" fill="#4F008C" fill-rule="nonzero"/><g fill-rule="nonzero"><path d="M49.68 237.132a4.09 4.09 0 001.986-.486 3.66 3.66 0 001.41-1.338l-.96-.708c-.584.912-1.392 1.368-2.424 1.368-.816 0-1.496-.278-2.04-.834-.544-.556-.816-1.254-.816-2.094 0-.84.272-1.538.816-2.094.544-.556 1.224-.834 2.04-.834 1.032 0 1.84.456 2.424 1.368l.96-.708a3.722 3.722 0 00-1.416-1.332 4.06 4.06 0 00-1.98-.492c-1.136-.016-2.12.38-2.952 1.188-.832.808-1.236 1.776-1.212 2.904-.024 1.128.38 2.096 1.212 2.904.832.808 1.816 1.204 2.952 1.188zm6.192-.132v-3.624h3.984V237h1.272v-7.92h-1.272v3.156h-3.984v-3.156H54.6V237h1.272zm8.532 0v-7.92h-1.272V237h1.272zm3.264 0v-3.06h1.62c.792 0 1.438-.228 1.938-.684.5-.456.75-1.04.75-1.752s-.248-1.294-.744-1.746c-.496-.452-1.144-.678-1.944-.678h-2.892V237h1.272zm1.596-4.188h-1.596v-2.604h1.596c.44 0 .784.118 1.032.354s.372.554.372.954c0 .4-.124.716-.372.948-.248.232-.592.348-1.032.348zm8.76 4.188v-3.06h1.62c.792 0 1.438-.228 1.938-.684.5-.456.75-1.04.75-1.752s-.248-1.294-.744-1.746c-.496-.452-1.144-.678-1.944-.678h-2.892V237h1.272zm1.596-4.188h-1.596v-2.604h1.596c.44 0 .784.118 1.032.354s.372.554.372.954c0 .4-.124.716-.372.948-.248.232-.592.348-1.032.348zm5.4 4.188v-3.06h1.452l2.256 3.06h1.452l-2.376-3.264c.48-.184.854-.472 1.122-.864.268-.392.402-.848.402-1.368 0-.712-.248-1.294-.744-1.746-.496-.452-1.144-.678-1.944-.678h-2.892V237h1.272zm1.596-4.188H85.02v-2.604h1.596c.432 0 .774.12 1.026.36s.378.556.378.948c0 .392-.126.706-.378.942s-.594.354-1.026.354zM96.672 237v-1.14h-4.08v-2.508h2.964v-1.104h-2.964v-2.028h3.936v-1.14H91.32V237h5.352zm2.748 0v-3.06h1.62c.792 0 1.438-.228 1.938-.684.5-.456.75-1.04.75-1.752s-.248-1.294-.744-1.746c-.496-.452-1.144-.678-1.944-.678h-2.892V237h1.272zm1.596-4.188H99.42v-2.604h1.596c.44 0 .784.118 1.032.354s.372.554.372.954c0 .4-.124.716-.372.948-.248.232-.592.348-1.032.348zm4.752 4.188l.564-1.32h3.564l.564 1.32h1.368l-3.492-8.052h-.432L104.412 237h1.356zm3.672-2.412h-2.652l1.332-3.276 1.32 3.276zm7.344 2.544a4.29 4.29 0 002.172-.564 3.984 3.984 0 001.524-1.524v-2.232h-3.708v1.128h2.436v.852c-.52.8-1.308 1.2-2.364 1.2-.848 0-1.546-.282-2.094-.846-.548-.564-.822-1.27-.822-2.118 0-.84.266-1.536.798-2.088s1.214-.828 2.046-.828c.984 0 1.772.416 2.364 1.248l.924-.756c-.792-1.104-1.884-1.656-3.276-1.656-1.152-.016-2.142.38-2.97 1.188-.828.808-1.23 1.776-1.206 2.904-.016 1.136.386 2.106 1.206 2.91.82.804 1.81 1.198 2.97 1.182zm8.928 0c1.128.016 2.11-.38 2.946-1.188.836-.808 1.242-1.776 1.218-2.904.024-1.128-.382-2.096-1.218-2.904-.836-.808-1.818-1.204-2.946-1.188-1.136-.016-2.116.38-2.94 1.188-.824.808-1.228 1.776-1.212 2.904-.024 1.128.378 2.096 1.206 2.904.828.808 1.81 1.204 2.946 1.188zm.012-1.164c-.824 0-1.504-.278-2.04-.834-.536-.556-.804-1.258-.804-2.106 0-.84.27-1.536.81-2.088s1.218-.828 2.034-.828c.808 0 1.484.278 2.028.834.544.556.816 1.25.816 2.082 0 .84-.272 1.54-.816 2.1-.544.56-1.22.84-2.028.84zm12.732 1.164a4.29 4.29 0 002.172-.564 3.984 3.984 0 001.524-1.524v-2.232h-3.708v1.128h2.436v.852c-.52.8-1.308 1.2-2.364 1.2-.848 0-1.546-.282-2.094-.846-.548-.564-.822-1.27-.822-2.118 0-.84.266-1.536.798-2.088s1.214-.828 2.046-.828c.984 0 1.772.416 2.364 1.248l.924-.756c-.792-1.104-1.884-1.656-3.276-1.656-1.152-.016-2.142.38-2.97 1.188-.828.808-1.23 1.776-1.206 2.904-.016 1.136.386 2.106 1.206 2.91.82.804 1.81 1.198 2.97 1.182zm6.528-.132v-3.06h1.452l2.256 3.06h1.452l-2.376-3.264c.48-.184.854-.472 1.122-.864.268-.392.402-.848.402-1.368 0-.712-.248-1.294-.744-1.746-.496-.452-1.144-.678-1.944-.678h-2.892V237h1.272zm1.596-4.188h-1.596v-2.604h1.596c.432 0 .774.12 1.026.36s.378.556.378.948c0 .392-.126.706-.378.942s-.594.354-1.026.354zm5.328 4.188l.564-1.32h3.564l.564 1.32h1.368l-3.492-8.052h-.432L150.552 237h1.356zm3.672-2.412h-2.652l1.332-3.276 1.32 3.276zm6.78 2.412v-6.78h2.676v-1.14h-6.612v1.14h2.664V237h1.272zm5.136 0v-7.92h-1.272V237h1.272zm4.416.132c.768 0 1.402-.212 1.902-.636.5-.424.75-.976.75-1.656 0-.512-.15-.94-.45-1.284-.3-.344-.782-.668-1.446-.972l-.888-.408a1.067 1.067 0 00-.108-.06 74.06 74.06 0 00-.468-.24 1.674 1.674 0 01-.252-.186c-.12-.1-.194-.196-.222-.288a1.537 1.537 0 01-.054-.354c0-.304.112-.54.336-.708.224-.168.512-.252.864-.252.68 0 1.236.32 1.668.96l.888-.684a2.74 2.74 0 00-1.05-1.032 3.002 3.002 0 00-1.506-.384c-.704 0-1.296.2-1.776.6-.48.4-.72.916-.72 1.548 0 .504.154.926.462 1.266.308.34.77.65 1.386.93l.876.408c.44.208.744.39.912.546.168.156.252.37.252.642a.974.974 0 01-.378.804c-.252.2-.582.3-.99.3-.808 0-1.5-.42-2.076-1.26l-.9.684a3.384 3.384 0 002.988 1.716z" fill="#4F008C"/><path d="M32.5 226c1.799 0 3.424.726 4.591 1.909A6.486 6.486 0 0139 232.516a6.422 6.422 0 01-1.909 4.59A6.501 6.501 0 0132.5 239a6.486 6.486 0 01-4.607-1.909A6.435 6.435 0 0126 232.5c0-1.799.726-3.424 1.909-4.607A6.473 6.473 0 0132.5 226zm4.275 3.644a.677.677 0 00-.962-.047l-4.733 4.323-1.814-2.13a.678.678 0 00-.963-.079.666.666 0 00-.078.963l2.271 2.666a.694.694 0 00.963.079l.016-.016 5.253-4.796a.677.677 0 00.047-.963z" fill="#DB167A"/><path d="M48.48 254c1.28 0 2.318-.372 3.114-1.116.796-.744 1.194-1.696 1.194-2.856 0-1.176-.396-2.128-1.188-2.856-.792-.728-1.832-1.092-3.12-1.092h-2.484V254h2.484zm-.012-1.14h-1.2v-5.628h1.2c.92 0 1.652.254 2.196.762.544.508.816 1.186.816 2.034 0 .84-.274 1.522-.822 2.046-.548.524-1.278.786-2.19.786zM59.652 254v-1.14h-4.08v-2.508h2.964v-1.104h-2.964v-2.028h3.936v-1.14H54.3V254h5.352zm3.9.132c.768 0 1.402-.212 1.902-.636.5-.424.75-.976.75-1.656 0-.512-.15-.94-.45-1.284-.3-.344-.782-.668-1.446-.972l-.888-.408a1.067 1.067 0 00-.108-.06 74.06 74.06 0 00-.468-.24 1.674 1.674 0 01-.252-.186c-.12-.1-.194-.196-.222-.288a1.537 1.537 0 01-.054-.354c0-.304.112-.54.336-.708.224-.168.512-.252.864-.252.68 0 1.236.32 1.668.96l.888-.684a2.74 2.74 0 00-1.05-1.032 3.002 3.002 0 00-1.506-.384c-.704 0-1.296.2-1.776.6-.48.4-.72.916-.72 1.548 0 .504.154.926.462 1.266.308.34.77.65 1.386.93l.876.408c.44.208.744.39.912.546.168.156.252.37.252.642a.974.974 0 01-.378.804c-.252.2-.582.3-.99.3-.808 0-1.5-.42-2.076-1.26l-.9.684a3.384 3.384 0 002.988 1.716zm5.556-.132v-3.06h1.62c.792 0 1.438-.228 1.938-.684.5-.456.75-1.04.75-1.752s-.248-1.294-.744-1.746c-.496-.452-1.144-.678-1.944-.678h-2.892V254h1.272zm1.596-4.188h-1.596v-2.604h1.596c.44 0 .784.118 1.032.354s.372.554.372.954c0 .4-.124.716-.372.948-.248.232-.592.348-1.032.348zM75.456 254l.564-1.32h3.564l.564 1.32h1.368l-3.492-8.052h-.432L74.1 254h1.356zm3.672-2.412h-2.652l1.332-3.276 1.32 3.276zm7.332 2.544a4.09 4.09 0 001.986-.486 3.66 3.66 0 001.41-1.338l-.96-.708c-.584.912-1.392 1.368-2.424 1.368-.816 0-1.496-.278-2.04-.834-.544-.556-.816-1.254-.816-2.094 0-.84.272-1.538.816-2.094.544-.556 1.224-.834 2.04-.834 1.032 0 1.84.456 2.424 1.368l.96-.708a3.722 3.722 0 00-1.416-1.332 4.06 4.06 0 00-1.98-.492c-1.136-.016-2.12.38-2.952 1.188-.832.808-1.236 1.776-1.212 2.904-.024 1.128.38 2.096 1.212 2.904.832.808 1.816 1.204 2.952 1.188zm6.192-.132v-3.624h3.984V254h1.272v-7.92h-1.272v3.156h-3.984v-3.156H91.38V254h1.272zm10.932.132c1.128.016 2.11-.38 2.946-1.188.836-.808 1.242-1.776 1.218-2.904.024-1.128-.382-2.096-1.218-2.904-.836-.808-1.818-1.204-2.946-1.188-1.136-.016-2.116.38-2.94 1.188-.824.808-1.228 1.776-1.212 2.904-.024 1.128.378 2.096 1.206 2.904.828.808 1.81 1.204 2.946 1.188zm.012-1.164c-.824 0-1.504-.278-2.04-.834-.536-.556-.804-1.258-.804-2.106 0-.84.27-1.536.81-2.088s1.218-.828 2.034-.828c.808 0 1.484.278 2.028.834.544.556.816 1.25.816 2.082 0 .84-.272 1.54-.816 2.1-.544.56-1.22.84-2.028.84zm12.732 1.164a4.29 4.29 0 002.172-.564 3.984 3.984 0 001.524-1.524v-2.232h-3.708v1.128h2.436v.852c-.52.8-1.308 1.2-2.364 1.2-.848 0-1.546-.282-2.094-.846-.548-.564-.822-1.27-.822-2.118 0-.84.266-1.536.798-2.088s1.214-.828 2.046-.828c.984 0 1.772.416 2.364 1.248l.924-.756c-.792-1.104-1.884-1.656-3.276-1.656-1.152-.016-2.142.38-2.97 1.188-.828.808-1.23 1.776-1.206 2.904-.016 1.136.386 2.106 1.206 2.91.82.804 1.81 1.198 2.97 1.182zm6.528-.132v-3.06h1.452l2.256 3.06h1.452l-2.376-3.264c.48-.184.854-.472 1.122-.864.268-.392.402-.848.402-1.368 0-.712-.248-1.294-.744-1.746-.496-.452-1.144-.678-1.944-.678h-2.892V254h1.272zm1.596-4.188h-1.596v-2.604h1.596c.432 0 .774.12 1.026.36s.378.556.378.948c0 .392-.126.706-.378.942s-.594.354-1.026.354zM129.78 254l.564-1.32h3.564l.564 1.32h1.368l-3.492-8.052h-.432L128.424 254h1.356zm3.672-2.412H130.8l1.332-3.276 1.32 3.276zm6.78 2.412v-6.78h2.676v-1.14h-6.612v1.14h2.664V254h1.272zm5.136 0v-7.92h-1.272V254h1.272zm4.416.132c.768 0 1.402-.212 1.902-.636.5-.424.75-.976.75-1.656 0-.512-.15-.94-.45-1.284-.3-.344-.782-.668-1.446-.972l-.888-.408a1.067 1.067 0 00-.108-.06 74.06 74.06 0 00-.468-.24 1.674 1.674 0 01-.252-.186c-.12-.1-.194-.196-.222-.288a1.537 1.537 0 01-.054-.354c0-.304.112-.54.336-.708.224-.168.512-.252.864-.252.68 0 1.236.32 1.668.96l.888-.684a2.74 2.74 0 00-1.05-1.032 3.002 3.002 0 00-1.506-.384c-.704 0-1.296.2-1.776.6-.48.4-.72.916-.72 1.548 0 .504.154.926.462 1.266.308.34.77.65 1.386.93l.876.408c.44.208.744.39.912.546.168.156.252.37.252.642a.974.974 0 01-.378.804c-.252.2-.582.3-.99.3-.808 0-1.5-.42-2.076-1.26l-.9.684a3.384 3.384 0 002.988 1.716z" fill="#4F008C"/><path d="M32.5 244c1.799 0 3.424.726 4.591 1.909A6.486 6.486 0 0139 250.516a6.422 6.422 0 01-1.909 4.59A6.501 6.501 0 0132.5 257a6.486 6.486 0 01-4.607-1.909A6.435 6.435 0 0126 250.5c0-1.799.726-3.424 1.909-4.607A6.473 6.473 0 0132.5 244zm4.275 3.644a.677.677 0 00-.962-.047l-4.733 4.323-1.814-2.13a.678.678 0 00-.963-.079.666.666 0 00-.078.963l2.271 2.666a.694.694 0 00.963.079l.016-.016 5.253-4.796a.677.677 0 00.047-.963z" fill="#DB167A"/><g><path d="M46.62 272l.564-1.32h3.564l.564 1.32h1.368l-3.492-8.052h-.432L45.264 272h1.356zm3.672-2.412H47.64l1.332-3.276 1.32 3.276zm7.332 2.544a4.09 4.09 0 001.986-.486 3.66 3.66 0 001.41-1.338l-.96-.708c-.584.912-1.392 1.368-2.424 1.368-.816 0-1.496-.278-2.04-.834-.544-.556-.816-1.254-.816-2.094 0-.84.272-1.538.816-2.094.544-.556 1.224-.834 2.04-.834 1.032 0 1.84.456 2.424 1.368l.96-.708a3.722 3.722 0 00-1.416-1.332 4.06 4.06 0 00-1.98-.492c-1.136-.016-2.12.38-2.952 1.188-.832.808-1.236 1.776-1.212 2.904-.024 1.128.38 2.096 1.212 2.904.832.808 1.816 1.204 2.952 1.188zm8.604 0a4.09 4.09 0 001.986-.486 3.66 3.66 0 001.41-1.338l-.96-.708c-.584.912-1.392 1.368-2.424 1.368-.816 0-1.496-.278-2.04-.834-.544-.556-.816-1.254-.816-2.094 0-.84.272-1.538.816-2.094.544-.556 1.224-.834 2.04-.834 1.032 0 1.84.456 2.424 1.368l.96-.708a3.722 3.722 0 00-1.416-1.332 4.06 4.06 0 00-1.98-.492c-1.136-.016-2.12.38-2.952 1.188-.832.808-1.236 1.776-1.212 2.904-.024 1.128.38 2.096 1.212 2.904.832.808 1.816 1.204 2.952 1.188zM76.5 272v-1.14h-4.08v-2.508h2.964v-1.104H72.42v-2.028h3.936v-1.14h-5.208V272H76.5zm3.9.132c.768 0 1.402-.212 1.902-.636.5-.424.75-.976.75-1.656 0-.512-.15-.94-.45-1.284-.3-.344-.782-.668-1.446-.972l-.888-.408a1.067 1.067 0 00-.108-.06 74.06 74.06 0 00-.468-.24 1.674 1.674 0 01-.252-.186c-.12-.1-.194-.196-.222-.288a1.537 1.537 0 01-.054-.354c0-.304.112-.54.336-.708.224-.168.512-.252.864-.252.68 0 1.236.32 1.668.96l.888-.684a2.74 2.74 0 00-1.05-1.032 3.002 3.002 0 00-1.506-.384c-.704 0-1.296.2-1.776.6-.48.4-.72.916-.72 1.548 0 .504.154.926.462 1.266.308.34.77.65 1.386.93l.876.408c.44.208.744.39.912.546.168.156.252.37.252.642a.974.974 0 01-.378.804c-.252.2-.582.3-.99.3-.808 0-1.5-.42-2.076-1.26l-.9.684a3.384 3.384 0 002.988 1.716zm7.956 0c1.128.016 2.11-.38 2.946-1.188.836-.808 1.242-1.776 1.218-2.904.024-1.128-.382-2.096-1.218-2.904-.836-.808-1.818-1.204-2.946-1.188-1.136-.016-2.116.38-2.94 1.188-.824.808-1.228 1.776-1.212 2.904-.024 1.128.378 2.096 1.206 2.904.828.808 1.81 1.204 2.946 1.188zm.012-1.164c-.824 0-1.504-.278-2.04-.834-.536-.556-.804-1.258-.804-2.106 0-.84.27-1.536.81-2.088s1.218-.828 2.034-.828c.808 0 1.484.278 2.028.834.544.556.816 1.25.816 2.082 0 .84-.272 1.54-.816 2.1-.544.56-1.22.84-2.028.84zm9.66 1.032l.564-1.32h3.564l.564 1.32h1.368l-3.492-8.052h-.432L96.672 272h1.356zm3.672-2.412h-2.652l1.332-3.276 1.32 3.276zM111.84 272v-6.78h2.676v-1.14h-6.612v1.14h2.664V272h1.272zm7.536.132c1.128.016 2.11-.38 2.946-1.188.836-.808 1.242-1.776 1.218-2.904.024-1.128-.382-2.096-1.218-2.904-.836-.808-1.818-1.204-2.946-1.188-1.136-.016-2.116.38-2.94 1.188-.824.808-1.228 1.776-1.212 2.904-.024 1.128.378 2.096 1.206 2.904.828.808 1.81 1.204 2.946 1.188zm.012-1.164c-.824 0-1.504-.278-2.04-.834-.536-.556-.804-1.258-.804-2.106 0-.84.27-1.536.81-2.088s1.218-.828 2.034-.828c.808 0 1.484.278 2.028.834.544.556.816 1.25.816 2.082 0 .84-.272 1.54-.816 2.1-.544.56-1.22.84-2.028.84zm8.16 1.032c1.28 0 2.318-.372 3.114-1.116.796-.744 1.194-1.696 1.194-2.856 0-1.176-.396-2.128-1.188-2.856-.792-.728-1.832-1.092-3.12-1.092h-2.484V272h2.484zm-.012-1.14h-1.2v-5.628h1.2c.92 0 1.652.254 2.196.762.544.508.816 1.186.816 2.034 0 .84-.274 1.522-.822 2.046-.548.524-1.278.786-2.19.786zm6.456 1.14l.564-1.32h3.564l.564 1.32h1.368l-3.492-8.052h-.432L132.636 272h1.356zm3.672-2.412h-2.652l1.332-3.276 1.32 3.276zm6.072 2.544c.768 0 1.402-.212 1.902-.636.5-.424.75-.976.75-1.656 0-.512-.15-.94-.45-1.284-.3-.344-.782-.668-1.446-.972l-.888-.408a1.067 1.067 0 00-.108-.06 74.06 74.06 0 00-.468-.24 1.674 1.674 0 01-.252-.186c-.12-.1-.194-.196-.222-.288a1.537 1.537 0 01-.054-.354c0-.304.112-.54.336-.708.224-.168.512-.252.864-.252.68 0 1.236.32 1.668.96l.888-.684a2.74 2.74 0 00-1.05-1.032 3.002 3.002 0 00-1.506-.384c-.704 0-1.296.2-1.776.6-.48.4-.72.916-.72 1.548 0 .504.154.926.462 1.266.308.34.77.65 1.386.93l.876.408c.44.208.744.39.912.546.168.156.252.37.252.642a.974.974 0 01-.378.804c-.252.2-.582.3-.99.3-.808 0-1.5-.42-2.076-1.26l-.9.684a3.384 3.384 0 002.988 1.716zm-91.212 12v-8.052h-1.272v5.34l-4.812-5.472h-.444V284h1.272v-5.364l4.824 5.496h.432zm5.184 0c.952 0 1.73-.3 2.334-.9.604-.6.906-1.412.906-2.436v-4.716h-1.272v4.8c0 .656-.18 1.168-.54 1.536-.36.368-.836.552-1.428.552-.6 0-1.082-.184-1.446-.552-.364-.368-.546-.88-.546-1.536v-4.8h-1.272v4.716c0 1.024.302 1.836.906 2.436.604.6 1.39.9 2.358.9zm10.5-.132v-1.14h-4.08v-2.508h2.964v-1.104h-2.964v-2.028h3.936v-1.14h-5.208V284h5.352zm3.9.132c.768 0 1.402-.212 1.902-.636.5-.424.75-.976.75-1.656 0-.512-.15-.94-.45-1.284-.3-.344-.782-.668-1.446-.972l-.888-.408a1.067 1.067 0 00-.108-.06 74.06 74.06 0 00-.468-.24 1.674 1.674 0 01-.252-.186c-.12-.1-.194-.196-.222-.288a1.537 1.537 0 01-.054-.354c0-.304.112-.54.336-.708.224-.168.512-.252.864-.252.68 0 1.236.32 1.668.96l.888-.684a2.74 2.74 0 00-1.05-1.032 3.002 3.002 0 00-1.506-.384c-.704 0-1.296.2-1.776.6-.48.4-.72.916-.72 1.548 0 .504.154.926.462 1.266.308.34.77.65 1.386.93l.876.408c.44.208.744.39.912.546.168.156.252.37.252.642a.974.974 0 01-.378.804c-.252.2-.582.3-.99.3-.808 0-1.5-.42-2.076-1.26l-.9.684a3.384 3.384 0 002.988 1.716zm7.416-.132v-6.78H82.2v-1.14h-6.612v1.14h2.664V284h1.272zm5.136 0v-3.06h1.452l2.256 3.06h1.452l-2.376-3.264c.48-.184.854-.472 1.122-.864.268-.392.402-.848.402-1.368 0-.712-.248-1.294-.744-1.746-.496-.452-1.144-.678-1.944-.678h-2.892V284h1.272zm1.596-4.188H84.66v-2.604h1.596c.432 0 .774.12 1.026.36s.378.556.378.948c0 .392-.126.706-.378.942s-.594.354-1.026.354zM91.584 284l.564-1.32h3.564l.564 1.32h1.368l-3.492-8.052h-.432L90.228 284h1.356zm3.672-2.412h-2.652l1.332-3.276 1.32 3.276zm6.072 2.544c.768 0 1.402-.212 1.902-.636.5-.424.75-.976.75-1.656 0-.512-.15-.94-.45-1.284-.3-.344-.782-.668-1.446-.972l-.888-.408a1.067 1.067 0 00-.108-.06 74.06 74.06 0 00-.468-.24 1.674 1.674 0 01-.252-.186c-.12-.1-.194-.196-.222-.288a1.537 1.537 0 01-.054-.354c0-.304.112-.54.336-.708.224-.168.512-.252.864-.252.68 0 1.236.32 1.668.96l.888-.684a2.74 2.74 0 00-1.05-1.032 3.002 3.002 0 00-1.506-.384c-.704 0-1.296.2-1.776.6-.48.4-.72.916-.72 1.548 0 .504.154.926.462 1.266.308.34.77.65 1.386.93l.876.408c.44.208.744.39.912.546.168.156.252.37.252.642a.974.974 0 01-.378.804c-.252.2-.582.3-.99.3-.808 0-1.5-.42-2.076-1.26l-.9.684a3.384 3.384 0 002.988 1.716zm8.916-.132v-3.06h1.62c.792 0 1.438-.228 1.938-.684.5-.456.75-1.04.75-1.752s-.248-1.294-.744-1.746c-.496-.452-1.144-.678-1.944-.678h-2.892V284h1.272zm1.596-4.188h-1.596v-2.604h1.596c.44 0 .784.118 1.032.354s.372.554.372.954c0 .4-.124.716-.372.948-.248.232-.592.348-1.032.348zm5.4 4.188v-3.06h1.452l2.256 3.06h1.452l-2.376-3.264c.48-.184.854-.472 1.122-.864.268-.392.402-.848.402-1.368 0-.712-.248-1.294-.744-1.746-.496-.452-1.144-.678-1.944-.678h-2.892V284h1.272zm1.596-4.188h-1.596v-2.604h1.596c.432 0 .774.12 1.026.36s.378.556.378.948c0 .392-.126.706-.378.942s-.594.354-1.026.354zm8.376 4.32c1.128.016 2.11-.38 2.946-1.188.836-.808 1.242-1.776 1.218-2.904.024-1.128-.382-2.096-1.218-2.904-.836-.808-1.818-1.204-2.946-1.188-1.136-.016-2.116.38-2.94 1.188-.824.808-1.228 1.776-1.212 2.904-.024 1.128.378 2.096 1.206 2.904.828.808 1.81 1.204 2.946 1.188zm.012-1.164c-.824 0-1.504-.278-2.04-.834-.536-.556-.804-1.258-.804-2.106 0-.84.27-1.536.81-2.088s1.218-.828 2.034-.828c.808 0 1.484.278 2.028.834.544.556.816 1.25.816 2.082 0 .84-.272 1.54-.816 2.1-.544.56-1.22.84-2.028.84zm6.948 1.032v-4.98l2.28 2.988h.432l2.268-2.976V284h1.272v-8.052h-.432l-3.324 4.428-3.324-4.428h-.444V284h1.272zm11.916.132c1.128.016 2.11-.38 2.946-1.188.836-.808 1.242-1.776 1.218-2.904.024-1.128-.382-2.096-1.218-2.904-.836-.808-1.818-1.204-2.946-1.188-1.136-.016-2.116.38-2.94 1.188-.824.808-1.228 1.776-1.212 2.904-.024 1.128.378 2.096 1.206 2.904.828.808 1.81 1.204 2.946 1.188zm.012-1.164c-.824 0-1.504-.278-2.04-.834-.536-.556-.804-1.258-.804-2.106 0-.84.27-1.536.81-2.088s1.218-.828 2.034-.828c.808 0 1.484.278 2.028.834.544.556.816 1.25.816 2.082 0 .84-.272 1.54-.816 2.1-.544.56-1.22.84-2.028.84zm8.1 1.164c.768 0 1.402-.212 1.902-.636.5-.424.75-.976.75-1.656 0-.512-.15-.94-.45-1.284-.3-.344-.782-.668-1.446-.972l-.888-.408a1.067 1.067 0 00-.108-.06 74.06 74.06 0 00-.468-.24 1.674 1.674 0 01-.252-.186c-.12-.1-.194-.196-.222-.288a1.537 1.537 0 01-.054-.354c0-.304.112-.54.336-.708.224-.168.512-.252.864-.252.68 0 1.236.32 1.668.96l.888-.684a2.74 2.74 0 00-1.05-1.032 3.002 3.002 0 00-1.506-.384c-.704 0-1.296.2-1.776.6-.48.4-.72.916-.72 1.548 0 .504.154.926.462 1.266.308.34.77.65 1.386.93l.876.408c.44.208.744.39.912.546.168.156.252.37.252.642a.974.974 0 01-.378.804c-.252.2-.582.3-.99.3-.808 0-1.5-.42-2.076-1.26l-.9.684a3.384 3.384 0 002.988 1.716z" fill="#4F008C"/><path d="M32.5 262c1.799 0 3.424.726 4.591 1.909A6.486 6.486 0 0139 268.516a6.422 6.422 0 01-1.909 4.59A6.501 6.501 0 0132.5 275a6.486 6.486 0 01-4.607-1.909A6.435 6.435 0 0126 268.5c0-1.799.726-3.424 1.909-4.607A6.473 6.473 0 0132.5 262zm4.275 3.644a.677.677 0 00-.962-.047l-4.733 4.323-1.814-2.13a.678.678 0 00-.963-.079.666.666 0 00-.078.963l2.271 2.666a.694.694 0 00.963.079l.016-.016 5.253-4.796a.677.677 0 00.047-.963z" fill="#DB167A"/></g></g><path stroke="#E8E8E8" stroke-linecap="square" d="M1 215.5h200"/></g></svg>