<svg width="50" height="50" viewBox="0 0 50 50" fill="none" xmlns="http://www.w3.org/2000/svg">
<path d="M45.8335 0H27.5002C26.3951 0 25.3353 0.438987 24.5539 1.22039C23.7725 2.00179 23.3335 3.0616 23.3335 4.16667V18.3333C23.3335 18.5543 23.4213 18.7663 23.5776 18.9226C23.7339 19.0789 23.9458 19.1667 24.1668 19.1667C24.3878 19.1667 24.5998 19.0789 24.7561 18.9226C24.9124 18.7663 25.0002 18.5543 25.0002 18.3333V4.16667C25.0002 3.50363 25.2636 2.86774 25.7324 2.3989C26.2012 1.93006 26.8371 1.66667 27.5002 1.66667H30.0002V2.5C30.0002 2.72101 30.088 2.93298 30.2442 3.08926C30.4005 3.24554 30.6125 3.33333 30.8335 3.33333H42.5002C42.7212 3.33333 42.9332 3.24554 43.0894 3.08926C43.2457 2.93298 43.3335 2.72101 43.3335 2.5V1.66667H45.8335C46.4966 1.66667 47.1324 1.93006 47.6013 2.3989C48.0701 2.86774 48.3335 3.50363 48.3335 4.16667V45.8333C48.3335 46.4964 48.0701 47.1323 47.6013 47.6011C47.1324 48.0699 46.4966 48.3333 45.8335 48.3333H27.5002C26.8371 48.3333 26.2012 48.0699 25.7324 47.6011C25.2636 47.1323 25.0002 46.4964 25.0002 45.8333V31.6667C25.0002 31.4457 24.9124 31.2337 24.7561 31.0774C24.5998 30.9211 24.3878 30.8333 24.1668 30.8333C23.9458 30.8333 23.7339 30.9211 23.5776 31.0774C23.4213 31.2337 23.3335 31.4457 23.3335 31.6667V45.8333C23.3335 46.9384 23.7725 47.9982 24.5539 48.7796C25.3353 49.561 26.3951 50 27.5002 50H45.8335C46.9386 50 47.9984 49.561 48.7798 48.7796C49.5612 47.9982 50.0002 46.9384 50.0002 45.8333V4.16667C50.0002 3.0616 49.5612 2.00179 48.7798 1.22039C47.9984 0.438987 46.9386 0 45.8335 0Z" fill="url(#paint0_linear)"/>
<path d="M22.5 48.3333H4.16667C3.50363 48.3333 2.86774 48.0699 2.3989 47.6011C1.93006 47.1323 1.66667 46.4964 1.66667 45.8333V41.6667H20.8333C21.0544 41.6667 21.2663 41.5789 21.4226 41.4226C21.5789 41.2663 21.6667 41.0543 21.6667 40.8333C21.6667 40.6123 21.5789 40.4004 21.4226 40.2441C21.2663 40.0878 21.0544 40 20.8333 40H1.66667V4.16667C1.66667 3.50363 1.93006 2.86774 2.3989 2.3989C2.86774 1.93006 3.50363 1.66667 4.16667 1.66667H22.5C22.721 1.66667 22.933 1.57887 23.0893 1.42259C23.2456 1.26631 23.3333 1.05435 23.3333 0.833333C23.3333 0.61232 23.2456 0.400358 23.0893 0.244078C22.933 0.0877973 22.721 0 22.5 0H4.16667C3.0616 0 2.00179 0.438987 1.22039 1.22039C0.438987 2.00179 0 3.0616 0 4.16667V45.8333C0 46.9384 0.438987 47.9982 1.22039 48.7796C2.00179 49.561 3.0616 50 4.16667 50H22.5C22.721 50 22.933 49.9122 23.0893 49.7559C23.2456 49.5996 23.3333 49.3877 23.3333 49.1667C23.3333 48.9457 23.2456 48.7337 23.0893 48.5774C22.933 48.4211 22.721 48.3333 22.5 48.3333Z" fill="url(#paint1_linear)"/>
<path d="M12.5 45.0004C12.5 45.33 12.5977 45.6523 12.7809 45.9264C12.964 46.2004 13.2243 46.4141 13.5289 46.5402C13.8334 46.6663 14.1685 46.6994 14.4918 46.635C14.8151 46.5707 15.1121 46.412 15.3452 46.1789C15.5783 45.9458 15.737 45.6489 15.8013 45.3256C15.8656 45.0023 15.8326 44.6671 15.7065 44.3626C15.5803 44.0581 15.3667 43.7978 15.0926 43.6146C14.8185 43.4315 14.4963 43.3337 14.1667 43.3337C13.7246 43.3337 13.3007 43.5093 12.9882 43.8219C12.6756 44.1345 12.5 44.5584 12.5 45.0004Z" fill="url(#paint2_linear)"/>
<path d="M33.3333 45.8333C33.3333 46.0543 33.421 46.2663 33.5773 46.4226C33.7336 46.5789 33.9456 46.6667 34.1666 46.6667H39.1666C39.3876 46.6667 39.5996 46.5789 39.7558 46.4226C39.9121 46.2663 39.9999 46.0543 39.9999 45.8333C39.9999 45.6123 39.9121 45.4004 39.7558 45.2441C39.5996 45.0878 39.3876 45 39.1666 45H34.1666C33.9456 45 33.7336 45.0878 33.5773 45.2441C33.421 45.4004 33.3333 45.6123 33.3333 45.8333Z" fill="url(#paint3_linear)"/>
<path d="M16.6667 4.16585C16.6667 3.94484 16.5789 3.73288 16.4226 3.5766C16.2663 3.42032 16.0544 3.33252 15.8333 3.33252H10.8333C10.6123 3.33252 10.4004 3.42032 10.2441 3.5766C10.0878 3.73288 10 3.94484 10 4.16585C10 4.38687 10.0878 4.59883 10.2441 4.75511C10.4004 4.91139 10.6123 4.99919 10.8333 4.99919H15.8333C16.0544 4.99919 16.2663 4.91139 16.4226 4.75511C16.5789 4.59883 16.6667 4.38687 16.6667 4.16585Z" fill="url(#paint4_linear)"/>
<path d="M31.8668 25.8338H16.4668V24.1672H31.8668L29.6835 21.9838C29.6058 21.9061 29.5441 21.8139 29.5021 21.7124C29.46 21.6109 29.4384 21.502 29.4384 21.3922C29.4384 21.2823 29.46 21.1735 29.5021 21.072C29.5441 20.9704 29.6058 20.8782 29.6835 20.8005C29.7612 20.7228 29.8534 20.6612 29.9549 20.6191C30.0564 20.5771 30.1653 20.5554 30.2751 20.5554C30.385 20.5554 30.4938 20.5771 30.5953 20.6191C30.6969 20.6612 30.7891 20.7228 30.8668 20.8005L34.4668 24.4172C34.5465 24.492 34.6101 24.5823 34.6535 24.6827C34.6969 24.783 34.7193 24.8912 34.7193 25.0005C34.7193 25.1098 34.6969 25.218 34.6535 25.3183C34.6101 25.4187 34.5465 25.509 34.4668 25.5838L30.8668 29.2005C30.7873 29.2772 30.6933 29.3374 30.5902 29.3774C30.4872 29.4175 30.3773 29.4367 30.2668 29.4338C30.159 29.4354 30.0519 29.4156 29.9518 29.3755C29.8517 29.3355 29.7605 29.276 29.6835 29.2005C29.5297 29.0419 29.4437 28.8297 29.4437 28.6088C29.4437 28.388 29.5297 28.1757 29.6835 28.0172L31.8668 25.8338Z" fill="#E92070"/>
<defs>
<linearGradient id="paint0_linear" x1="36.6668" y1="-2.375" x2="36.6668" y2="44" gradientUnits="userSpaceOnUse">
<stop stop-color="#E92070"/>
<stop offset="1" stop-color="#5C3E8D"/>
</linearGradient>
<linearGradient id="paint1_linear" x1="11.6667" y1="-2.375" x2="11.6667" y2="44" gradientUnits="userSpaceOnUse">
<stop stop-color="#E92070"/>
<stop offset="1" stop-color="#5C3E8D"/>
</linearGradient>
<linearGradient id="paint2_linear" x1="14.1667" y1="43.1754" x2="14.1667" y2="46.2671" gradientUnits="userSpaceOnUse">
<stop stop-color="#E92070"/>
<stop offset="1" stop-color="#5C3E8D"/>
</linearGradient>
<linearGradient id="paint3_linear" x1="36.6666" y1="44.9208" x2="36.6666" y2="46.4667" gradientUnits="userSpaceOnUse">
<stop stop-color="#E92070"/>
<stop offset="1" stop-color="#5C3E8D"/>
</linearGradient>
<linearGradient id="paint4_linear" x1="13.3333" y1="3.25335" x2="13.3333" y2="4.79919" gradientUnits="userSpaceOnUse">
<stop stop-color="#E92070"/>
<stop offset="1" stop-color="#5C3E8D"/>
</linearGradient>
</defs>
</svg>
