<svg width="24" height="24" viewBox="0 0 24 24" fill="none" xmlns="http://www.w3.org/2000/svg">
<path fill-rule="evenodd" clip-rule="evenodd" d="M9.64297 12L1.46268 3.81971C0.773524 3.13055 0.742486 2.04423 1.39336 1.39336C2.04423 0.742486 3.13055 0.773524 3.81971 1.46268L12 9.64297L20.1802 1.46274C20.8694 0.77358 21.9557 0.742543 22.6066 1.39342C23.2574 2.04429 23.2264 3.1306 22.5372 3.81976L14.357 12L22.5372 20.1802C23.2264 20.8694 23.2574 21.9557 22.6066 22.6066C21.9557 23.2574 20.8694 23.2264 20.1802 22.5372L12 14.357L3.81971 22.5373C3.13055 23.2265 2.04423 23.2575 1.39336 22.6066C0.742486 21.9557 0.773524 20.8694 1.46268 20.1803L9.64297 12Z" fill="#381451"/>
</svg>
