<svg width="50" height="50" viewBox="0 0 50 50" fill="none" xmlns="http://www.w3.org/2000/svg">
<path d="M23.6127 1.38889V5.92773C23.6127 6.29609 23.7591 6.64936 24.0195 6.90983C24.28 7.17029 24.6333 7.31662 25.0016 7.31662C25.37 7.31662 25.7233 7.17029 25.9837 6.90983C26.2442 6.64936 26.3905 6.29609 26.3905 5.92773V1.38889C26.3905 1.02053 26.2442 0.667263 25.9837 0.406796C25.7233 0.146329 25.37 0 25.0016 0C24.6333 0 24.28 0.146329 24.0195 0.406796C23.7591 0.667263 23.6127 1.02053 23.6127 1.38889Z" fill="#E92070"/>
<path d="M25.6412 23.8359C26.8851 25.0798 28.7718 25.21 29.8552 24.1266C30.1925 23.7814 30.4217 23.3452 30.5147 22.8716C30.7805 23.5498 30.9173 24.2717 30.9181 25.0001C30.9181 26.1706 30.571 27.3148 29.9207 28.2881C29.2704 29.2613 28.3462 30.0198 27.2648 30.4678C26.1834 30.9157 24.9934 31.0329 23.8454 30.8046C22.6974 30.5763 21.6429 30.0127 20.8152 29.185C19.9876 28.3574 19.4239 27.3029 19.1955 26.1549C18.9671 25.0069 19.0843 23.8169 19.5322 22.7355C19.9801 21.6541 20.7386 20.7298 21.7118 20.0795C22.685 19.4292 23.8292 19.082 24.9997 19.082C25.333 19.085 25.6654 19.1167 25.9933 19.1768C25.7563 19.2894 25.5392 19.4398 25.3505 19.6221C24.2671 20.7054 24.3973 22.592 25.6412 23.8359Z" fill="#E92070"/>
<path fill-rule="evenodd" clip-rule="evenodd" d="M1.06052 23.8813C1.49604 23.422 11.8816 12.6265 25 12.6265C38.1178 12.6265 48.504 23.422 48.9395 23.8813L50 25L48.9395 26.1187C48.504 26.5781 38.1178 37.3741 25 37.3741C11.8816 37.3741 1.49604 26.5781 1.06052 26.1187L0 25L1.06052 23.8813ZM19.9691 32.5297C21.4582 33.5247 23.209 34.0557 25 34.0557C27.4008 34.053 29.7026 33.098 31.4002 31.4003C33.0978 29.7026 34.0527 27.4008 34.0554 25C34.0553 23.209 33.5242 21.4583 32.5291 19.9691C31.5341 18.48 30.1198 17.3194 28.4651 16.634C26.8104 15.9487 24.9897 15.7694 23.2331 16.1189C21.4765 16.4683 19.863 17.3308 18.5966 18.5972C17.3302 19.8637 16.4678 21.4772 16.1184 23.2338C15.7691 24.9904 15.9484 26.8111 16.6338 28.4658C17.3192 30.1204 18.4799 31.5347 19.9691 32.5297ZM13.1471 25.0002C13.1471 22.4558 13.9722 19.98 15.4986 17.9443C11.5069 19.6926 7.82447 22.0753 4.59398 25C7.82437 27.9249 11.5069 30.3078 15.4986 32.0561C13.9722 30.0204 13.1471 27.5446 13.1471 25.0002ZM36.8524 25.006C36.8512 27.5524 36.0236 30.0296 34.494 32.0654C38.4913 30.3191 42.1775 27.9333 45.4076 25.0016C42.1765 22.0762 38.4934 19.6929 34.5009 17.9443C36.0285 19.9816 36.8537 22.4596 36.8524 25.006Z" fill="#E92070"/>
<path d="M38.659 8.95009L40.3237 4.69811C40.4587 4.35604 40.7238 4.08145 41.0609 3.93456C41.398 3.78767 41.7796 3.78046 42.1221 3.91453C42.4645 4.04859 42.7398 4.31298 42.8875 4.64971C43.0353 4.98645 43.0435 5.36805 42.9104 5.71082L41.2457 9.9628C41.1792 10.1327 41.08 10.2879 40.9536 10.4195C40.8271 10.5511 40.676 10.6565 40.5089 10.7296C40.3417 10.8028 40.1618 10.8423 39.9794 10.8459C39.7969 10.8495 39.6156 10.8171 39.4457 10.7506C39.2758 10.684 39.1206 10.5847 38.9891 10.4582C38.8576 10.3317 38.7523 10.1805 38.6793 10.0133C38.6062 9.84612 38.5668 9.66616 38.5634 9.48373C38.5599 9.30129 38.5924 9.11996 38.659 8.95009Z" fill="#E92070"/>
<path d="M7.87411 3.91107C7.70425 3.97755 7.54914 4.07684 7.41765 4.20326C7.28616 4.32969 7.18086 4.48078 7.10776 4.64791C7.03467 4.81503 6.99521 4.99492 6.99164 5.1773C6.98807 5.35967 7.02046 5.54097 7.08696 5.71082L8.75166 9.96278C8.81808 10.1327 8.91734 10.2879 9.04375 10.4195C9.17017 10.5511 9.32128 10.6565 9.48844 10.7296C9.6556 10.8028 9.83553 10.8423 10.018 10.8459C10.2004 10.8494 10.3817 10.8171 10.5517 10.7505C10.7216 10.684 10.8767 10.5847 11.0082 10.4582C11.1397 10.3317 11.245 10.1805 11.318 10.0133C11.3911 9.8461 11.4305 9.66614 11.434 9.48371C11.4374 9.30127 11.405 9.11994 11.3383 8.95008L9.67363 4.69811C9.53935 4.35513 9.27433 4.07953 8.93686 3.93193C8.59939 3.78434 8.21711 3.77683 7.87411 3.91107Z" fill="#E92070"/>
<path d="M26.3905 44.0723V48.6111C26.3905 48.9795 26.2442 49.3327 25.9837 49.5932C25.7233 49.8537 25.37 50 25.0016 50C24.6333 50 24.28 49.8537 24.0195 49.5932C23.7591 49.3327 23.6127 48.9795 23.6127 48.6111V44.0723C23.6127 43.7039 23.7591 43.3506 24.0195 43.0902C24.28 42.8297 24.6333 42.6834 25.0016 42.6834C25.37 42.6834 25.7233 42.8297 25.9837 43.0902C26.2442 43.3506 26.3905 43.7039 26.3905 44.0723Z" fill="#E92070"/>
<path d="M42.1232 46.0889C42.2931 46.0225 42.4482 45.9232 42.5797 45.7967C42.7112 45.6703 42.8165 45.5192 42.8896 45.3521C42.9627 45.185 43.0021 45.0051 43.0057 44.8227C43.0093 44.6403 42.9769 44.459 42.9104 44.2892L41.2457 40.0372C41.1792 39.8673 41.08 39.7121 40.9536 39.5805C40.8271 39.4489 40.676 39.3436 40.5089 39.2704C40.3417 39.1973 40.1618 39.1577 39.9794 39.1542C39.7969 39.1506 39.6156 39.183 39.4457 39.2495C39.2758 39.316 39.1206 39.4153 38.9891 39.5418C38.8576 39.6683 38.7523 39.8195 38.6793 39.9867C38.6062 40.1539 38.5668 40.3339 38.5634 40.5163C38.5599 40.6987 38.5924 40.8801 38.659 41.0499L40.3237 45.3019C40.458 45.6449 40.723 45.9205 41.0605 46.0681C41.3979 46.2157 41.7802 46.2232 42.1232 46.0889Z" fill="#E92070"/>
<path d="M9.48815 39.271C9.82562 39.1234 10.2079 39.1159 10.5509 39.2502C10.7208 39.3166 10.8759 39.4159 11.0074 39.5424C11.1389 39.6688 11.2442 39.8199 11.3173 39.987C11.3904 40.1541 11.4298 40.334 11.4334 40.5164C11.437 40.6988 11.4046 40.8801 11.3381 41.0499L9.67336 45.3019C9.53907 45.6449 9.27401 45.9206 8.9365 46.0681C8.599 46.2157 8.21668 46.2232 7.87367 46.0889C7.53066 45.9546 7.25504 45.6896 7.10745 45.352C6.95987 45.0145 6.9524 44.6322 7.08669 44.2892L8.75139 40.0372C8.88566 39.6942 9.15068 39.4186 9.48815 39.271Z" fill="#E92070"/>
</svg>
